Jinko-Bold.ufo
<glyph name="exclam" format="1">
  <advance width="679"/>
  <unicode hex="0021"/>
  <outline>
    <contour>
      <point x="164" y="-41" type="curve"/>
      <point x="564" y="-41" type="line"/>
      <point x="560" y="75"/>
      <point x="555" y="190"/>
      <point x="552" y="304" type="curve"/>
      <point x="418" y="301"/>
      <point x="288" y="298"/>
      <point x="154" y="296" type="curve"/>
      <point x="158" y="266"/>
      <point x="162" y="238"/>
      <point x="166" y="208" type="curve"/>
      <point x="165" y="125"/>
      <point x="164" y="43"/>
    </contour>
    <contour>
      <point x="232" y="436" type="line"/>
      <point x="482" y="436" type="line"/>
      <point x="561" y="1574" type="line"/>
      <point x="154" y="1574" type="line"/>
    </contour>
  </outline>
</glyph>
<glyph name="quotedbl" format="1">
  <advance width="941"/>
  <unicode hex="0022"/>
  <outline>
    <contour>
      <point x="167" y="969" type="line"/>
      <point x="385" y="969" type="line"/>
      <point x="431" y="1481" type="line"/>
      <point x="120" y="1481" type="line"/>
    </contour>
    <contour>
      <point x="561" y="969" type="line"/>
      <point x="779" y="969" type="line"/>
      <point x="825" y="1481" type="line"/>
      <point x="515" y="1481" type="line"/>
    </contour>
  </outline>
</glyph>
<glyph name="numbersign" format="1">
  <advance width="1504"/>
  <unicode hex="0023"/>
  <outline>
    <contour>
      <point x="917" y="897" type="line"/>
      <point x="846" y="589" type="line"/>
      <point x="601" y="589" type="line"/>
      <point x="673" y="897" type="line"/>
    </contour>
    <contour>
      <point x="1435" y="895" type="line"/>
      <point x="1435" y="1117" type="line"/>
      <point x="1213" y="1117" type="line"/>
      <point x="1291" y="1479" type="line"/>
      <point x="1042" y="1479" type="line"/>
      <point x="964" y="1117" type="line"/>
      <point x="725" y="1117" type="line"/>
      <point x="802" y="1479" type="line"/>
      <point x="553" y="1479" type="line"/>
      <point x="476" y="1117" type="line"/>
      <point x="172" y="1117" type="line"/>
      <point x="172" y="895" type="line"/>
      <point x="426" y="895" type="line"/>
      <point x="355" y="591" type="line"/>
      <point x="69" y="591" type="line"/>
      <point x="69" y="369" type="line"/>
      <point x="305" y="369" type="line"/>
      <point x="225" y="-2" type="line"/>
      <point x="472" y="-2" type="line"/>
      <point x="551" y="369" type="line"/>
      <point x="793" y="369" type="line"/>
      <point x="714" y="-2" type="line"/>
      <point x="958" y="-2" type="line"/>
      <point x="1039" y="369" type="line"/>
      <point x="1334" y="369" type="line"/>
      <point x="1334" y="591" type="line"/>
      <point x="1089" y="591" type="line"/>
      <point x="1161" y="895" type="line"/>
    </contour>
  </outline>
</glyph>
<glyph name="dollar" format="1">
  <advance width="1322"/>
  <unicode hex="0024"/>
  <outline>
    <contour>
      <point x="572" y="-338" type="line"/>
      <point x="745" y="-338" type="line"/>
      <point x="745" y="-4" type="line"/>
      <point x="1062" y="16"/>
      <point x="1264" y="222"/>
      <point x="1264" y="465" type="curve" smooth="yes"/>
      <point x="1264" y="725"/>
      <point x="1100" y="842"/>
      <point x="740" y="913" type="curve"/>
      <point x="740" y="1202" type="line"/>
      <point x="862" y="1196"/>
      <point x="972" y="1170"/>
      <point x="1059" y="1119" type="curve"/>
      <point x="1114" y="1119" type="line"/>
      <point x="1160" y="1382" type="line"/>
      <point x="1069" y="1438"/>
      <point x="872" y="1485"/>
      <point x="745" y="1488" type="curve"/>
      <point x="745" y="1691" type="line"/>
      <point x="572" y="1691" type="line"/>
      <point x="572" y="1487" type="line"/>
      <point x="267" y="1454"/>
      <point x="81" y="1289"/>
      <point x="81" y="1063" type="curve" smooth="yes"/>
      <point x="81" y="737"/>
      <point x="342" y="653"/>
      <point x="577" y="600" type="curve"/>
      <point x="577" y="282" type="line"/>
      <point x="439" y="288"/>
      <point x="247" y="349"/>
      <point x="189" y="391" type="curve"/>
      <point x="140" y="391" type="line"/>
      <point x="84" y="130" type="line"/>
      <point x="190" y="55"/>
      <point x="425" y="-6"/>
      <point x="572" y="-7" type="curve"/>
    </contour>
    <contour>
      <point x="734" y="283" type="curve"/>
      <point x="734" y="578" type="line"/>
      <point x="838" y="560"/>
      <point x="876" y="501"/>
      <point x="876" y="437" type="curve" smooth="yes"/>
      <point x="876" y="355"/>
      <point x="827" y="305"/>
      <point x="752" y="287" type="curve" smooth="yes"/>
      <point x="746" y="285"/>
      <point x="740" y="284"/>
    </contour>
    <contour>
      <point x="585" y="936" type="line"/>
      <point x="474" y="965"/>
      <point x="463" y="1006"/>
      <point x="463" y="1065" type="curve" smooth="yes"/>
      <point x="463" y="1151"/>
      <point x="522" y="1195"/>
      <point x="585" y="1201" type="curve"/>
    </contour>
  </outline>
</glyph>
<glyph name="percent" format="1">
  <advance width="2136"/>
  <unicode hex="0025"/>
  <outline>
    <contour>
      <point x="485" y="840" type="curve" smooth="yes"/>
      <point x="376" y="840"/>
      <point x="370" y="932"/>
      <point x="370" y="1056" type="curve" smooth="yes"/>
      <point x="370" y="1199"/>
      <point x="380" y="1285"/>
      <point x="484" y="1285" type="curve" smooth="yes"/>
      <point x="588" y="1285"/>
      <point x="599" y="1201"/>
      <point x="599" y="1070" type="curve" smooth="yes"/>
      <point x="599" y="912"/>
      <point x="582" y="840"/>
    </contour>
    <contour>
      <point x="484" y="639" type="curve" smooth="yes"/>
      <point x="748" y="639"/>
      <point x="867" y="780"/>
      <point x="867" y="1089" type="curve" smooth="yes"/>
      <point x="867" y="1353"/>
      <point x="735" y="1483"/>
      <point x="485" y="1484" type="curve"/>
      <point x="398" y="1483"/>
      <point x="328" y="1467"/>
      <point x="270" y="1434" type="curve"/>
      <point x="144" y="1376"/>
      <point x="97" y="1248"/>
      <point x="97" y="1035" type="curve" smooth="yes"/>
      <point x="97" y="766"/>
      <point x="239" y="639"/>
    </contour>
    <contour>
      <point x="1649" y="197" type="curve" smooth="yes"/>
      <point x="1541" y="197"/>
      <point x="1535" y="289"/>
      <point x="1535" y="413" type="curve" smooth="yes"/>
      <point x="1535" y="550"/>
      <point x="1546" y="639"/>
      <point x="1646" y="643" type="curve"/>
      <point x="1747" y="643"/>
      <point x="1758" y="558"/>
      <point x="1759" y="442" type="curve"/>
      <point x="1762" y="436"/>
      <point x="1764" y="432"/>
      <point x="1764" y="412" type="curve" smooth="yes"/>
      <point x="1762" y="266"/>
      <point x="1744" y="197"/>
    </contour>
    <contour>
      <point x="1649" y="-4" type="curve" smooth="yes"/>
      <point x="1912" y="-4"/>
      <point x="2031" y="137"/>
      <point x="2031" y="446" type="curve" smooth="yes"/>
      <point x="2031" y="710"/>
      <point x="1900" y="841"/>
      <point x="1649" y="841" type="curve"/>
      <point x="1562" y="840"/>
      <point x="1492" y="824"/>
      <point x="1434" y="791" type="curve"/>
      <point x="1309" y="733"/>
      <point x="1262" y="605"/>
      <point x="1262" y="392" type="curve" smooth="yes"/>
      <point x="1262" y="123"/>
      <point x="1403" y="-4"/>
    </contour>
    <contour>
      <point x="807" y="0" type="line"/>
      <point x="1583" y="1479" type="line"/>
      <point x="1326" y="1479" type="line"/>
      <point x="550" y="0" type="line"/>
    </contour>
  </outline>
</glyph>
<glyph name="ampersand" format="1">
  <advance width="1697"/>
  <unicode hex="0026"/>
  <outline>
    <contour>
      <point x="683" y="-25" type="curve" smooth="yes"/>
      <point x="854" y="-25"/>
      <point x="1003" y="23"/>
      <point x="1148" y="113" type="curve"/>
      <point x="1194" y="70"/>
      <point x="1240" y="26"/>
      <point x="1283" y="-20" type="curve"/>
      <point x="1336" y="-17"/>
      <point x="1391" y="-12"/>
      <point x="1444" y="-8" type="curve"/>
      <point x="1791" y="-2" type="line"/>
      <point x="1700" y="41"/>
      <point x="1632" y="124"/>
      <point x="1559" y="194" type="curve" smooth="yes"/>
      <point x="1505" y="246"/>
      <point x="1449" y="298"/>
      <point x="1395" y="349" type="curve"/>
      <point x="1503" y="450"/>
      <point x="1539" y="567"/>
      <point x="1560" y="685" type="curve"/>
      <point x="1566" y="726"/>
      <point x="1572" y="768"/>
      <point x="1576" y="807" type="curve"/>
      <point x="1205" y="835" type="line"/>
      <point x="1192" y="743"/>
      <point x="1170" y="661"/>
      <point x="1168" y="560" type="curve"/>
      <point x="1067" y="661"/>
      <point x="966" y="764"/>
      <point x="867" y="867" type="curve"/>
      <point x="1107" y="951"/>
      <point x="1201" y="1091"/>
      <point x="1201" y="1252" type="curve" smooth="yes"/>
      <point x="1201" y="1445"/>
      <point x="1033" y="1600"/>
      <point x="707" y="1600" type="curve" smooth="yes"/>
      <point x="331" y="1600"/>
      <point x="193" y="1406"/>
      <point x="193" y="1229" type="curve" smooth="yes"/>
      <point x="193" y="1078"/>
      <point x="276" y="983"/>
      <point x="370" y="896" type="curve"/>
      <point x="215" y="812"/>
      <point x="83" y="678"/>
      <point x="83" y="464" type="curve" smooth="yes"/>
      <point x="83" y="184"/>
      <point x="309" y="-25"/>
    </contour>
    <contour>
      <point x="700" y="252" type="curve" smooth="yes"/>
      <point x="609" y="260"/>
      <point x="481" y="349"/>
      <point x="481" y="510" type="curve" smooth="yes"/>
      <point x="481" y="567"/>
      <point x="504" y="658"/>
      <point x="559" y="706" type="curve"/>
      <point x="693" y="572"/>
      <point x="826" y="438"/>
      <point x="961" y="308" type="curve"/>
      <point x="879" y="260"/>
      <point x="810" y="242"/>
    </contour>
    <contour>
      <point x="711" y="1024" type="curve"/>
      <point x="643" y="1091"/>
      <point x="579" y="1163"/>
      <point x="579" y="1233" type="curve" smooth="yes"/>
      <point x="579" y="1340"/>
      <point x="657" y="1360"/>
      <point x="690" y="1360" type="curve" smooth="yes"/>
      <point x="727" y="1360"/>
      <point x="818" y="1344"/>
      <point x="818" y="1217" type="curve" smooth="yes"/>
      <point x="818" y="1149"/>
      <point x="789" y="1089"/>
    </contour>
  </outline>
</glyph>
<glyph name="quotesingle" format="1">
  <advance width="564"/>
  <unicode hex="0027"/>
  <outline>
    <contour>
      <point x="437" y="1523" type="line"/>
      <point x="127" y="1523" type="line"/>
      <point x="173" y="1011" type="line"/>
      <point x="391" y="1011" type="line"/>
    </contour>
  </outline>
</glyph>
<glyph name="parenleft" format="1">
  <advance width="839"/>
  <unicode hex="0028"/>
  <outline>
    <contour>
      <point x="470" y="-339" type="curve"/>
      <point x="791" y="-339" type="line"/>
      <point x="786" y="-319"/>
      <point x="779" y="-298"/>
      <point x="775" y="-278" type="curve"/>
      <point x="591" y="-76"/>
      <point x="427" y="223"/>
      <point x="427" y="592" type="curve" smooth="yes"/>
      <point x="427" y="972"/>
      <point x="601" y="1263"/>
      <point x="775" y="1463" type="curve"/>
      <point x="779" y="1483"/>
      <point x="786" y="1504"/>
      <point x="791" y="1524" type="curve"/>
      <point x="470" y="1524" type="line"/>
      <point x="246" y="1271"/>
      <point x="97" y="996"/>
      <point x="97" y="592" type="curve" smooth="yes"/>
      <point x="97" y="209"/>
      <point x="248" y="-86"/>
    </contour>
  </outline>
</glyph>
<glyph name="parenright" format="1">
  <advance width="894"/>
  <unicode hex="0029"/>
  <outline>
    <contour>
      <point x="54" y="-361" type="curve"/>
      <point x="394" y="-361" type="line"/>
      <point x="632" y="-90"/>
      <point x="791" y="226"/>
      <point x="791" y="629" type="curve" smooth="yes"/>
      <point x="791" y="1059"/>
      <point x="634" y="1351"/>
      <point x="394" y="1621" type="curve"/>
      <point x="54" y="1621" type="line"/>
      <point x="60" y="1599"/>
      <point x="66" y="1578"/>
      <point x="70" y="1555" type="curve"/>
      <point x="254" y="1346"/>
      <point x="442" y="1033"/>
      <point x="442" y="629" type="curve" smooth="yes"/>
      <point x="442" y="231"/>
      <point x="265" y="-79"/>
      <point x="70" y="-296" type="curve"/>
      <point x="66" y="-318"/>
      <point x="60" y="-340"/>
    </contour>
  </outline>
</glyph>
<glyph name="asterisk" format="1">
  <advance width="1168"/>
  <unicode hex="002a"/>
  <outline>
    <contour>
      <point x="670" y="713" type="curve" smooth="no"/>
      <point x="655" y="658"/>
      <point x="596" y="629"/>
      <point x="538" y="629" type="curve" smooth="no"/>
      <point x="495" y="638"/>
      <point x="452" y="676"/>
      <point x="452" y="740" type="curve" smooth="yes"/>
      <point x="452" y="829"/>
      <point x="499" y="936"/>
      <point x="513" y="1024" type="curve" smooth="no"/>
      <point x="509" y="1020"/>
      <point x="503" y="1016"/>
      <point x="496" y="1010" type="curve" smooth="yes"/>
      <point x="419" y="936"/>
      <point x="323" y="808"/>
      <point x="234" y="801" type="curve" smooth="no"/>
      <point x="184" y="814"/>
      <point x="140" y="863"/>
      <point x="129" y="918" type="curve" smooth="no"/>
      <point x="138" y="1045"/>
      <point x="353" y="1054"/>
      <point x="473" y="1105" type="curve" smooth="no"/>
      <point x="350" y="1157"/>
      <point x="135" y="1167"/>
      <point x="129" y="1293" type="curve" smooth="no"/>
      <point x="140" y="1346"/>
      <point x="183" y="1395"/>
      <point x="233" y="1409" type="curve" smooth="no"/>
      <point x="256" y="1407"/>
      <point x="279" y="1398"/>
      <point x="301" y="1384" type="curve" smooth="yes"/>
      <point x="375" y="1339"/>
      <point x="446" y="1239"/>
      <point x="515" y="1184" type="curve" smooth="no"/>
      <point x="504" y="1285"/>
      <point x="453" y="1398"/>
      <point x="453" y="1498" type="curve" smooth="no"/>
      <point x="468" y="1553"/>
      <point x="525" y="1581"/>
      <point x="583" y="1581" type="curve" smooth="no"/>
      <point x="626" y="1572"/>
      <point x="669" y="1534"/>
      <point x="669" y="1471" type="curve" smooth="yes"/>
      <point x="669" y="1381"/>
      <point x="622" y="1275"/>
      <point x="606" y="1185" type="curve" smooth="no"/>
      <point x="611" y="1189"/>
      <point x="617" y="1192"/>
      <point x="624" y="1198" type="curve" smooth="yes"/>
      <point x="701" y="1271"/>
      <point x="794" y="1402"/>
      <point x="887" y="1409" type="curve" smooth="no"/>
      <point x="937" y="1395"/>
      <point x="981" y="1346"/>
      <point x="992" y="1293" type="curve" smooth="no"/>
      <point x="986" y="1168"/>
      <point x="766" y="1157"/>
      <point x="648" y="1105" type="curve" smooth="no"/>
      <point x="767" y="1051"/>
      <point x="983" y="1047"/>
      <point x="992" y="918" type="curve" smooth="no"/>
      <point x="981" y="863"/>
      <point x="936" y="814"/>
      <point x="887" y="801" type="curve" smooth="no"/>
      <point x="864" y="803"/>
      <point x="842" y="811"/>
      <point x="820" y="824" type="curve" smooth="yes"/>
      <point x="747" y="868"/>
      <point x="673" y="967"/>
      <point x="608" y="1023" type="curve" smooth="no"/>
      <point x="625" y="928"/>
      <point x="670" y="809"/>
    </contour>
  </outline>
</glyph>
<glyph name="plus" format="1">
  <advance width="1588"/>
  <unicode hex="002B"/>
  <outline>
    <contour>
      <point x="1426" y="485" type="line"/>
      <point x="1426" y="735" type="line"/>
      <point x="927" y="735" type="line"/>
      <point x="927" y="1209" type="line"/>
      <point x="661" y="1209" type="line"/>
      <point x="661" y="735" type="line"/>
      <point x="161" y="735" type="line"/>
      <point x="161" y="485" type="line"/>
      <point x="661" y="485" type="line"/>
      <point x="661" y="9" type="line"/>
      <point x="927" y="9" type="line"/>
      <point x="927" y="485" type="line"/>
    </contour>
  </outline>
</glyph>
<glyph name="comma" format="1">
  <advance width="551"/>
  <unicode hex="002C"/>
  <outline>
    <contour>
      <point x="105" y="-235" type="line"/>
      <point x="276" y="-235" type="line"/>
      <point x="502" y="338" type="line"/>
      <point x="165" y="338" type="line"/>
    </contour>
  </outline>
</glyph>
<glyph name="hyphen" format="1">
  <advance width="891"/>
  <unicode hex="002d"/>
  <outline>
    <contour>
      <point x="789" y="489" type="line" smooth="no"/>
      <point x="101" y="489" type="line" smooth="no"/>
      <point x="101" y="768" type="line" smooth="no"/>
      <point x="789" y="768" type="line" smooth="no"/>
    </contour>
  </outline>
</glyph>
<glyph name="period" format="1">
  <advance width="725"/>
  <unicode hex="002E"/>
  <outline>
    <contour>
      <point x="385" y="-24" type="curve"/>
      <point x="507" y="-10"/>
      <point x="580" y="77"/>
      <point x="580" y="214" type="curve"/>
      <point x="565" y="335"/>
      <point x="478" y="415"/>
      <point x="341" y="415" type="curve"/>
      <point x="218" y="401"/>
      <point x="146" y="309"/>
      <point x="146" y="174" type="curve"/>
      <point x="160" y="51"/>
      <point x="248" y="-24"/>
    </contour>
  </outline>
</glyph>
<glyph name="slash" format="1">
  <advance width="1197"/>
  <unicode hex="002F"/>
  <outline>
    <contour>
      <point x="140" y="-232" type="line"/>
      <point x="443" y="-232" type="line"/>
      <point x="1022" y="1625" type="line"/>
      <point x="717" y="1625" type="line"/>
    </contour>
  </outline>
</glyph>
<glyph name="zero" format="1">
  <advance width="1244"/>
  <unicode hex="0030"/>
  <outline>
    <contour>
      <point x="624" y="226" type="curve" smooth="yes"/>
      <point x="451" y="226"/>
      <point x="428" y="408"/>
      <point x="428" y="741" type="curve" smooth="yes"/>
      <point x="428" y="1062"/>
      <point x="457" y="1222"/>
      <point x="624" y="1222" type="curve" smooth="yes"/>
      <point x="790" y="1222"/>
      <point x="819" y="1062"/>
      <point x="819" y="741" type="curve" smooth="yes"/>
      <point x="819" y="408"/>
      <point x="796" y="226"/>
    </contour>
    <contour>
      <point x="624" y="-24" type="curve" smooth="yes"/>
      <point x="937" y="-24"/>
      <point x="1131" y="127"/>
      <point x="1177" y="410" type="curve" smooth="yes"/>
      <point x="1192" y="497"/>
      <point x="1199" y="595"/>
      <point x="1199" y="701" type="curve" smooth="yes"/>
      <point x="1199" y="830"/>
      <point x="1192" y="952"/>
      <point x="1177" y="1065" type="curve"/>
      <point x="1132" y="1344"/>
      <point x="940" y="1502"/>
      <point x="624" y="1502" type="curve" smooth="yes"/>
      <point x="307" y="1502"/>
      <point x="115" y="1344"/>
      <point x="70" y="1065" type="curve" smooth="yes"/>
      <point x="55" y="978"/>
      <point x="48" y="882"/>
      <point x="48" y="779" type="curve" smooth="yes"/>
      <point x="48" y="647"/>
      <point x="54" y="523"/>
      <point x="70" y="410" type="curve"/>
      <point x="115" y="127"/>
      <point x="309" y="-24"/>
    </contour>
  </outline>
</glyph>
<glyph name="one" format="1">
  <advance width="1323"/>
  <unicode hex="0031"/>
  <outline>
    <contour>
      <point x="269" y="0" type="line"/>
      <point x="1117" y="0" type="line"/>
      <point x="1117" y="293" type="line"/>
      <point x="894" y="293" type="line"/>
      <point x="894" y="1575" type="line"/>
      <point x="772" y="1576"/>
      <point x="648" y="1576"/>
      <point x="526" y="1577" type="curve"/>
      <point x="494" y="1449"/>
      <point x="376" y="1398"/>
      <point x="190" y="1379" type="curve"/>
      <point x="190" y="1135" type="line"/>
      <point x="499" y="1188" type="line"/>
      <point x="499" y="293" type="line"/>
      <point x="269" y="294" type="line"/>
    </contour>
  </outline>
</glyph>
<glyph name="two" format="1">
  <advance width="1242"/>
  <unicode hex="0032"/>
  <outline>
    <contour>
      <point x="126" y="0" type="line"/>
      <point x="1197" y="0" type="line"/>
      <point x="1197" y="284" type="line"/>
      <point x="614" y="284" type="line"/>
      <point x="813" y="439"/>
      <point x="1151" y="757"/>
      <point x="1151" y="1054" type="curve" smooth="yes"/>
      <point x="1151" y="1328"/>
      <point x="959" y="1503"/>
      <point x="614" y="1503" type="curve" smooth="yes"/>
      <point x="445" y="1503"/>
      <point x="226" y="1434"/>
      <point x="150" y="1368" type="curve"/>
      <point x="226" y="1101" type="line"/>
      <point x="282" y="1131"/>
      <point x="438" y="1199"/>
      <point x="571" y="1199" type="curve" smooth="yes"/>
      <point x="678" y="1199"/>
      <point x="767" y="1156"/>
      <point x="767" y="1011" type="curve" smooth="yes"/>
      <point x="767" y="782"/>
      <point x="310" y="391"/>
      <point x="126" y="234" type="curve"/>
    </contour>
  </outline>
</glyph>
<glyph name="three" format="1">
  <advance width="1244"/>
  <unicode hex="0033"/>
  <outline>
    <contour>
      <point x="573" y="-24" type="curve" smooth="yes"/>
      <point x="958" y="-24"/>
      <point x="1176" y="171"/>
      <point x="1176" y="450" type="curve" smooth="yes"/>
      <point x="1176" y="637"/>
      <point x="1029" y="734"/>
      <point x="898" y="774" type="curve"/>
      <point x="1029" y="831"/>
      <point x="1136" y="932"/>
      <point x="1121" y="1144" type="curve" smooth="yes"/>
      <point x="1106" y="1359"/>
      <point x="930" y="1504"/>
      <point x="577" y="1504" type="curve" smooth="yes"/>
      <point x="400" y="1504"/>
      <point x="202" y="1440"/>
      <point x="107" y="1374" type="curve"/>
      <point x="107" y="1068" type="line"/>
      <point x="182" y="1068" type="line"/>
      <point x="271" y="1154"/>
      <point x="395" y="1214"/>
      <point x="522" y="1214" type="curve" smooth="yes"/>
      <point x="607" y="1214"/>
      <point x="747" y="1183"/>
      <point x="747" y="1061" type="curve" smooth="yes"/>
      <point x="747" y="921"/>
      <point x="634" y="893"/>
      <point x="465" y="893" type="curve" smooth="yes"/>
      <point x="404" y="893" type="line"/>
      <point x="404" y="663" type="line"/>
      <point x="544" y="663" type="line" smooth="yes"/>
      <point x="725" y="663"/>
      <point x="797" y="609"/>
      <point x="797" y="483" type="curve" smooth="yes"/>
      <point x="797" y="297"/>
      <point x="629" y="263"/>
      <point x="496" y="266" type="curve" smooth="yes"/>
      <point x="353" y="269"/>
      <point x="243" y="335"/>
      <point x="166" y="411" type="curve"/>
      <point x="107" y="411" type="line"/>
      <point x="107" y="97" type="line"/>
      <point x="206" y="26"/>
      <point x="346" y="-24"/>
    </contour>
  </outline>
</glyph>
<glyph name="four" format="1">
  <advance width="1325"/>
  <unicode hex="0034"/>
  <outline>
    <contour>
      <point x="1131" y="0" type="line"/>
      <point x="1131" y="231" type="line"/>
      <point x="1284" y="231" type="line"/>
      <point x="1284" y="481" type="line"/>
      <point x="1131" y="481" type="line"/>
      <point x="1131" y="1574" type="line"/>
      <point x="606" y="1574" type="line"/>
      <point x="66" y="481" type="line"/>
      <point x="66" y="231" type="line"/>
      <point x="736" y="231" type="line"/>
      <point x="736" y="0" type="line"/>
    </contour>
    <contour>
      <point x="378" y="481" type="line"/>
      <point x="736" y="1239" type="line"/>
      <point x="736" y="481" type="line"/>
    </contour>
  </outline>
</glyph>
<glyph name="five" format="1">
  <advance width="1244"/>
  <unicode hex="0035"/>
  <outline>
    <contour>
      <point x="142" y="652" type="line"/>
      <point x="252" y="644" type="line"/>
      <point x="322" y="683"/>
      <point x="412" y="713"/>
      <point x="509" y="713" type="curve" smooth="yes"/>
      <point x="645" y="713"/>
      <point x="788" y="660"/>
      <point x="788" y="504" type="curve" smooth="yes"/>
      <point x="788" y="382"/>
      <point x="744" y="289"/>
      <point x="617" y="276" type="curve" smooth="yes"/>
      <point x="597" y="273"/>
      <point x="579" y="272"/>
      <point x="560" y="272" type="curve"/>
      <point x="542" y="271"/>
      <point x="525" y="272"/>
      <point x="508" y="273" type="curve" smooth="yes"/>
      <point x="344" y="280"/>
      <point x="187" y="390"/>
      <point x="189" y="411" type="curve"/>
      <point x="88" y="411" type="line"/>
      <point x="90" y="311"/>
      <point x="95" y="215"/>
      <point x="102" y="120" type="curve"/>
      <point x="202" y="32"/>
      <point x="365" y="-24"/>
      <point x="591" y="-24" type="curve" smooth="yes"/>
      <point x="817" y="-24"/>
      <point x="975" y="58"/>
      <point x="1064" y="168" type="curve" smooth="yes"/>
      <point x="1135" y="255"/>
      <point x="1168" y="358"/>
      <point x="1168" y="509" type="curve" smooth="yes"/>
      <point x="1168" y="855"/>
      <point x="965" y="989"/>
      <point x="668" y="989" type="curve" smooth="yes"/>
      <point x="624" y="989"/>
      <point x="556" y="978"/>
      <point x="500" y="958" type="curve"/>
      <point x="500" y="1196" type="line"/>
      <point x="1123" y="1196" type="line"/>
      <point x="1123" y="1479" type="line"/>
      <point x="142" y="1479" type="line"/>
    </contour>
  </outline>
</glyph>
<glyph name="six" format="1">
  <advance width="1242"/>
  <unicode hex="0036"/>
  <outline>
    <contour>
      <point x="638" y="-24" type="curve" smooth="yes"/>
      <point x="969" y="-24"/>
      <point x="1184" y="173"/>
      <point x="1184" y="496" type="curve" smooth="yes"/>
      <point x="1184" y="802"/>
      <point x="1026" y="959"/>
      <point x="773" y="959" type="curve" smooth="yes"/>
      <point x="678" y="959"/>
      <point x="590" y="928"/>
      <point x="520" y="887" type="curve"/>
      <point x="586" y="1125"/>
      <point x="771" y="1194"/>
      <point x="1049" y="1220" type="curve"/>
      <point x="990" y="1480" type="line"/>
      <point x="396" y="1446"/>
      <point x="88" y="1139"/>
      <point x="88" y="557" type="curve" smooth="yes"/>
      <point x="88" y="186"/>
      <point x="304" y="-24"/>
    </contour>
    <contour>
      <point x="628" y="233" type="curve" smooth="yes"/>
      <point x="505" y="233"/>
      <point x="446" y="341"/>
      <point x="446" y="477" type="curve" smooth="yes"/>
      <point x="446" y="604"/>
      <point x="453" y="697"/>
      <point x="635" y="697" type="curve" smooth="yes"/>
      <point x="738" y="697"/>
      <point x="813" y="644"/>
      <point x="813" y="483" type="curve" smooth="yes"/>
      <point x="813" y="329"/>
      <point x="788" y="233"/>
    </contour>
  </outline>
</glyph>
<glyph name="seven" format="1">
  <advance width="1242"/>
  <unicode hex="0037"/>
  <outline>
    <contour>
      <point x="149" y="0" type="line"/>
      <point x="575" y="0" type="line"/>
      <point x="1177" y="1194" type="line"/>
      <point x="1177" y="1481" type="line"/>
      <point x="107" y="1481" type="line"/>
      <point x="107" y="1118" type="line"/>
      <point x="332" y="1118" type="line"/>
      <point x="332" y="1197" type="line"/>
      <point x="767" y="1197" type="line"/>
    </contour>
  </outline>
</glyph>
<glyph name="eight" format="1">
  <advance width="1244"/>
  <unicode hex="0038"/>
  <outline>
    <contour>
      <point x="798" y="1077" type="curve" smooth="yes"/>
      <point x="798" y="986"/>
      <point x="753" y="932"/>
      <point x="702" y="892" type="curve"/>
      <point x="526" y="950"/>
      <point x="454" y="972"/>
      <point x="454" y="1096" type="curve" smooth="yes"/>
      <point x="454" y="1181"/>
      <point x="529" y="1240"/>
      <point x="625" y="1240" type="curve" smooth="yes"/>
      <point x="728" y="1240"/>
      <point x="798" y="1177"/>
    </contour>
    <contour>
      <point x="828" y="409" type="curve" smooth="yes"/>
      <point x="828" y="292"/>
      <point x="710" y="241"/>
      <point x="636" y="241" type="curve" smooth="yes"/>
      <point x="507" y="241"/>
      <point x="413" y="323"/>
      <point x="413" y="450" type="curve" smooth="yes"/>
      <point x="413" y="543"/>
      <point x="477" y="619"/>
      <point x="537" y="649" type="curve"/>
      <point x="546" y="648"/>
      <point x="556" y="646"/>
      <point x="564" y="642" type="curve" smooth="yes"/>
      <point x="774" y="539"/>
      <point x="828" y="517"/>
    </contour>
    <contour>
      <point x="1202" y="420" type="curve" smooth="yes"/>
      <point x="1202" y="585"/>
      <point x="1122" y="715"/>
      <point x="944" y="794" type="curve"/>
      <point x="975" y="823"/>
      <point x="996" y="857"/>
      <point x="996" y="905" type="curve"/>
      <point x="1114" y="968"/>
      <point x="1164" y="1050"/>
      <point x="1160" y="1154" type="curve"/>
      <point x="1143" y="1351"/>
      <point x="971" y="1505"/>
      <point x="624" y="1505" type="curve" smooth="yes"/>
      <point x="272" y="1505"/>
      <point x="80" y="1310"/>
      <point x="80" y="1094" type="curve" smooth="yes"/>
      <point x="80" y="999"/>
      <point x="115" y="913"/>
      <point x="239" y="857" type="curve"/>
      <point x="239" y="809"/>
      <point x="261" y="775"/>
      <point x="292" y="746" type="curve"/>
      <point x="130" y="672"/>
      <point x="43" y="569"/>
      <point x="43" y="410" type="curve" smooth="yes"/>
      <point x="43" y="163"/>
      <point x="234" y="-26"/>
      <point x="621" y="-26" type="curve" smooth="yes"/>
      <point x="984" y="-26"/>
      <point x="1202" y="162"/>
    </contour>
  </outline>
</glyph>
<glyph name="nine" format="1">
  <advance width="1323"/>
  <unicode hex="0039"/>
  <outline>
    <contour>
      <point x="269" y="0" type="curve"/>
      <point x="276" y="8"/>
      <point x="409" y="-2"/>
      <point x="470" y="5" type="curve"/>
      <point x="892" y="79"/>
      <point x="1118" y="349"/>
      <point x="1206" y="717" type="curve"/>
      <point x="1227" y="783"/>
      <point x="1237" y="858"/>
      <point x="1238" y="934" type="curve" smooth="yes"/>
      <point x="1245" y="1375"/>
      <point x="1014" y="1598"/>
      <point x="650" y="1598" type="curve" smooth="yes"/>
      <point x="299" y="1598"/>
      <point x="64" y="1383"/>
      <point x="64" y="1045" type="curve" smooth="yes"/>
      <point x="64" y="803"/>
      <point x="159" y="663"/>
      <point x="293" y="598" type="curve"/>
      <point x="325" y="584"/>
      <point x="357" y="574"/>
      <point x="392" y="568" type="curve"/>
      <point x="425" y="560"/>
      <point x="464" y="553"/>
      <point x="506" y="553" type="curve" smooth="yes"/>
      <point x="626" y="553"/>
      <point x="686" y="584"/>
      <point x="771" y="631" type="curve"/>
      <point x="718" y="415"/>
      <point x="580" y="318"/>
      <point x="434" y="262" type="curve"/>
      <point x="332" y="250"/>
      <point x="282" y="257"/>
      <point x="250" y="260" type="curve"/>
      <point x="207" y="253" type="line"/>
      <point x="230" y="170"/>
      <point x="250" y="86"/>
    </contour>
    <contour>
      <point x="688" y="830" type="curve" smooth="yes"/>
      <point x="576" y="830"/>
      <point x="467" y="878"/>
      <point x="467" y="1067" type="curve" smooth="yes"/>
      <point x="467" y="1261"/>
      <point x="581" y="1322"/>
      <point x="646" y="1322" type="curve" smooth="yes"/>
      <point x="767" y="1322"/>
      <point x="837" y="1218"/>
      <point x="837" y="993" type="curve" smooth="yes"/>
      <point x="837" y="935"/>
      <point x="830" y="889"/>
      <point x="822" y="877" type="curve"/>
      <point x="818" y="861"/>
      <point x="770" y="830"/>
    </contour>
  </outline>
</glyph>
<glyph name="colon" format="1">
  <advance width="598"/>
  <unicode hex="003A"/>
  <outline>
    <contour>
      <point x="297" y="0" type="curve" smooth="yes"/>
      <point x="409" y="0"/>
      <point x="501" y="90"/>
      <point x="501" y="202" type="curve" smooth="yes"/>
      <point x="501" y="314"/>
      <point x="409" y="404"/>
      <point x="297" y="404" type="curve" smooth="yes"/>
      <point x="185" y="404"/>
      <point x="95" y="314"/>
      <point x="95" y="202" type="curve" smooth="yes"/>
      <point x="95" y="90"/>
      <point x="185" y="0"/>
    </contour>
    <contour>
      <point x="297" y="630" type="curve" smooth="yes"/>
      <point x="409" y="630"/>
      <point x="501" y="720"/>
      <point x="501" y="832" type="curve" smooth="yes"/>
      <point x="501" y="944"/>
      <point x="409" y="1035"/>
      <point x="297" y="1035" type="curve" smooth="yes"/>
      <point x="185" y="1035"/>
      <point x="95" y="944"/>
      <point x="95" y="832" type="curve" smooth="yes"/>
      <point x="95" y="720"/>
      <point x="185" y="630"/>
    </contour>
  </outline>
</glyph>
<glyph name="semicolon" format="1">
  <advance width="598"/>
  <unicode hex="003B"/>
  <outline>
    <contour>
      <point x="105" y="-235" type="line"/>
      <point x="276" y="-235" type="line"/>
      <point x="502" y="338" type="line"/>
      <point x="165" y="338" type="line"/>
    </contour>
    <contour>
      <point x="297" y="630" type="curve" smooth="yes"/>
      <point x="409" y="630"/>
      <point x="501" y="720"/>
      <point x="501" y="832" type="curve" smooth="yes"/>
      <point x="501" y="944"/>
      <point x="409" y="1035"/>
      <point x="297" y="1035" type="curve" smooth="yes"/>
      <point x="185" y="1035"/>
      <point x="95" y="944"/>
      <point x="95" y="832" type="curve" smooth="yes"/>
      <point x="95" y="720"/>
      <point x="185" y="630"/>
    </contour>
  </outline>
</glyph>
<glyph name="less" format="1">
  <advance width="1588"/>
  <unicode hex="003C"/>
  <outline>
    <contour>
      <point x="1427" y="-15" type="line"/>
      <point x="1427" y="249" type="line"/>
      <point x="740" y="517" type="line"/>
      <point x="651" y="550"/>
      <point x="561" y="584"/>
      <point x="472" y="618" type="curve"/>
      <point x="569" y="650"/>
      <point x="665" y="681"/>
      <point x="762" y="712" type="curve"/>
      <point x="1427" y="970" type="line"/>
      <point x="1427" y="1234" type="line"/>
      <point x="135" y="720" type="line"/>
      <point x="135" y="500" type="line"/>
    </contour>
  </outline>
</glyph>
<glyph name="greater" format="1">
  <advance width="1499"/>
  <unicode hex="003E"/>
  <outline>
    <contour>
      <point x="153" y="-15" type="line"/>
      <point x="1374" y="471" type="line"/>
      <point x="1374" y="679" type="line"/>
      <point x="153" y="1164" type="line"/>
      <point x="153" y="917" type="line"/>
      <point x="1023" y="575" type="line"/>
      <point x="153" y="234" type="line"/>
    </contour>
  </outline>
</glyph>
<glyph name="question" format="1">
  <advance width="1149"/>
  <unicode hex="003F"/>
  <outline>
    <contour>
      <point x="721" y="-20" type="curve"/>
      <point x="716" y="22"/>
      <point x="713" y="65"/>
      <point x="709" y="107" type="curve"/>
      <point x="723" y="158"/>
      <point x="736" y="210"/>
      <point x="750" y="261" type="curve"/>
      <point x="600" y="266"/>
      <point x="451" y="271"/>
      <point x="299" y="278" type="curve"/>
      <point x="304" y="235"/>
      <point x="307" y="193"/>
      <point x="311" y="151" type="curve"/>
      <point x="298" y="99"/>
      <point x="284" y="48"/>
      <point x="270" y="-4" type="curve"/>
      <point x="418" y="-8"/>
      <point x="570" y="-14"/>
    </contour>
    <contour>
      <point x="1068" y="1107" type="curve" smooth="yes"/>
      <point x="1068" y="1337"/>
      <point x="866" y="1502"/>
      <point x="552" y="1502" type="curve" smooth="yes"/>
      <point x="334" y="1502"/>
      <point x="136" y="1404"/>
      <point x="84" y="1302" type="curve"/>
      <point x="84" y="1070" type="line"/>
      <point x="105" y="1069"/>
      <point x="125" y="1069"/>
      <point x="146" y="1069" type="curve"/>
      <point x="215" y="1107"/>
      <point x="349" y="1154"/>
      <point x="444" y="1154" type="curve"/>
      <point x="434" y="1193"/>
      <point x="434" y="1209"/>
      <point x="441" y="1219" type="curve"/>
      <point x="445" y="1221"/>
      <point x="449" y="1223"/>
      <point x="454" y="1224" type="curve" smooth="yes"/>
      <point x="591" y="1228"/>
      <point x="685" y="1170"/>
      <point x="685" y="1046" type="curve" smooth="yes"/>
      <point x="685" y="879"/>
      <point x="455" y="761"/>
      <point x="342" y="726" type="curve"/>
      <point x="345" y="727"/>
      <point x="348" y="729"/>
      <point x="351" y="731" type="curve"/>
      <point x="327" y="622"/>
      <point x="332" y="508"/>
      <point x="332" y="385" type="curve"/>
      <point x="687" y="385" type="line"/>
      <point x="688" y="449"/>
      <point x="688" y="513"/>
      <point x="688" y="577" type="curve"/>
      <point x="866" y="692"/>
      <point x="1068" y="851"/>
    </contour>
  </outline>
</glyph>
<glyph name="at" format="1">
  <advance width="1824"/>
  <unicode hex="0040"/>
  <outline>
    <contour>
      <point x="1035" y="419" type="curve"/>
      <point x="988" y="385"/>
      <point x="940" y="368"/>
      <point x="896" y="368" type="curve" smooth="yes"/>
      <point x="778" y="368"/>
      <point x="690" y="457"/>
      <point x="694" y="630" type="curve" smooth="yes"/>
      <point x="695" y="657"/>
      <point x="698" y="684"/>
      <point x="703" y="708" type="curve" smooth="yes"/>
      <point x="732" y="857"/>
      <point x="832" y="974"/>
      <point x="968" y="974" type="curve" smooth="yes"/>
      <point x="1041" y="974"/>
      <point x="1107" y="929"/>
      <point x="1150" y="871" type="curve"/>
      <point x="1150" y="713"/>
      <point x="1099" y="519"/>
    </contour>
    <contour>
      <point x="1782" y="744" type="curve" smooth="yes"/>
      <point x="1782" y="1177"/>
      <point x="1451" y="1491"/>
      <point x="981" y="1491" type="curve" smooth="yes"/>
      <point x="486" y="1491"/>
      <point x="122" y="1147"/>
      <point x="122" y="667" type="curve" smooth="yes"/>
      <point x="122" y="192"/>
      <point x="475" y="-142"/>
      <point x="982" y="-142" type="curve" smooth="yes"/>
      <point x="1143" y="-142"/>
      <point x="1322" y="-88"/>
      <point x="1459" y="11" type="curve"/>
      <point x="1410" y="134" type="line"/>
      <point x="1284" y="65"/>
      <point x="1134" y="29"/>
      <point x="982" y="29" type="curve" smooth="yes"/>
      <point x="588" y="29"/>
      <point x="310" y="287"/>
      <point x="310" y="665" type="curve" smooth="yes"/>
      <point x="310" y="1033"/>
      <point x="577" y="1317"/>
      <point x="986" y="1317" type="curve" smooth="yes"/>
      <point x="1356" y="1317"/>
      <point x="1600" y="1069"/>
      <point x="1599" y="714" type="curve"/>
      <point x="1597" y="670"/>
      <point x="1593" y="617"/>
      <point x="1582" y="567" type="curve"/>
      <point x="1561" y="456"/>
      <point x="1511" y="352"/>
      <point x="1409" y="339" type="curve"/>
      <point x="1368" y="337"/>
      <point x="1323" y="346"/>
      <point x="1309" y="374" type="curve"/>
      <point x="1307" y="398"/>
      <point x="1310" y="424"/>
      <point x="1310" y="446" type="curve"/>
      <point x="1307" y="466"/>
      <point x="1306" y="488"/>
      <point x="1306" y="511" type="curve" smooth="yes"/>
      <point x="1306" y="522"/>
      <point x="1309" y="535"/>
      <point x="1314" y="548" type="curve"/>
      <point x="1334" y="735"/>
      <point x="1354" y="921"/>
      <point x="1374" y="1107" type="curve"/>
      <point x="1188" y="1107" type="line"/>
      <point x="1185" y="1089"/>
      <point x="1181" y="1066"/>
      <point x="1178" y="1044" type="curve"/>
      <point x="1127" y="1071"/>
      <point x="1077" y="1084"/>
      <point x="1028" y="1084" type="curve"/>
      <point x="1011" y="1125"/>
      <point x="979" y="1142"/>
      <point x="944" y="1142" type="curve" smooth="yes"/>
      <point x="687" y="1142"/>
      <point x="492" y="908"/>
      <point x="492" y="605" type="curve" smooth="yes"/>
      <point x="492" y="408"/>
      <point x="607" y="259"/>
      <point x="764" y="219" type="curve"/>
      <point x="845" y="205"/>
      <point x="903" y="221"/>
      <point x="960" y="246" type="curve"/>
      <point x="1021" y="246"/>
      <point x="1095" y="274"/>
      <point x="1155" y="320" type="curve"/>
      <point x="1187" y="226"/>
      <point x="1258" y="189"/>
      <point x="1363" y="189" type="curve" smooth="yes"/>
      <point x="1612" y="189"/>
      <point x="1782" y="402"/>
    </contour>
  </outline>
</glyph>
<glyph name="A" format="1">
  <advance width="1419"/>
  <unicode hex="0041"/>
  <outline>
    <contour>
      <point x="-8" y="0" type="line"/>
      <point x="384" y="0" type="line"/>
      <point x="472" y="281" type="line"/>
      <point x="942" y="281" type="line"/>
      <point x="1031" y="0" type="line"/>
      <point x="1427" y="0" type="line"/>
      <point x="904" y="1481" type="line"/>
      <point x="517" y="1481" type="line"/>
    </contour>
    <contour>
      <point x="557" y="553" type="line"/>
      <point x="707" y="1030" type="line"/>
      <point x="858" y="553" type="line"/>
    </contour>
  </outline>
</glyph>
<glyph name="B" format="1">
  <advance width="1408"/>
  <unicode hex="0042"/>
  <outline>
    <contour>
      <point x="890" y="1048" type="curve" smooth="yes"/>
      <point x="890" y="906"/>
      <point x="800" y="884"/>
      <point x="579" y="884" type="curve" smooth="yes"/>
      <point x="530" y="884" type="line"/>
      <point x="530" y="1206" type="line"/>
      <point x="561" y="1206" type="line" smooth="yes"/>
      <point x="790" y="1206"/>
      <point x="890" y="1184"/>
    </contour>
    <contour>
      <point x="953" y="454" type="curve" smooth="yes"/>
      <point x="953" y="329"/>
      <point x="849" y="277"/>
      <point x="714" y="277" type="curve" smooth="yes"/>
      <point x="674" y="277"/>
      <point x="624" y="278"/>
      <point x="553" y="278" type="curve" smooth="yes"/>
      <point x="531" y="278" type="line" smooth="yes"/>
      <point x="530" y="278" type="line"/>
      <point x="530" y="627" type="line"/>
      <point x="597" y="627" type="line" smooth="yes"/>
      <point x="670" y="627"/>
      <point x="732" y="626"/>
      <point x="781" y="621" type="curve"/>
      <point x="891" y="607"/>
      <point x="953" y="573"/>
    </contour>
    <contour>
      <point x="1347" y="441" type="curve" smooth="yes"/>
      <point x="1347" y="623"/>
      <point x="1235" y="748"/>
      <point x="1061" y="785" type="curve"/>
      <point x="1061" y="792" type="line"/>
      <point x="1211" y="851"/>
      <point x="1278" y="977"/>
      <point x="1278" y="1113" type="curve" smooth="yes"/>
      <point x="1278" y="1243"/>
      <point x="1223" y="1348"/>
      <point x="1113" y="1410" type="curve" smooth="yes"/>
      <point x="989" y="1479"/>
      <point x="888" y="1479"/>
      <point x="555" y="1479" type="curve" smooth="yes"/>
      <point x="147" y="1479" type="line"/>
      <point x="147" y="0" type="line"/>
      <point x="750" y="0" type="line" smooth="yes"/>
      <point x="851" y="0"/>
      <point x="940" y="4"/>
      <point x="1014" y="25" type="curve" smooth="yes"/>
      <point x="1196" y="77"/>
      <point x="1347" y="217"/>
    </contour>
  </outline>
</glyph>
<glyph name="C" format="1">
  <advance width="1325"/>
  <unicode hex="0043"/>
  <outline>
    <contour>
      <point x="1284" y="498" type="curve"/>
      <point x="1172" y="467" type="line"/>
      <point x="1118" y="400"/>
      <point x="992" y="260"/>
      <point x="800" y="249" type="curve"/>
      <point x="790" y="259"/>
      <point x="786" y="267"/>
      <point x="784" y="269" type="curve"/>
      <point x="765" y="270"/>
      <point x="746" y="274"/>
      <point x="728" y="278" type="curve" smooth="yes"/>
      <point x="552" y="309"/>
      <point x="464" y="458"/>
      <point x="464" y="737" type="curve" smooth="yes"/>
      <point x="464" y="895"/>
      <point x="476" y="951"/>
      <point x="507" y="1013" type="curve"/>
      <point x="568" y="1161"/>
      <point x="704" y="1222"/>
      <point x="835" y="1218" type="curve" smooth="yes"/>
      <point x="895" y="1216"/>
      <point x="950" y="1198"/>
      <point x="999" y="1172" type="curve"/>
      <point x="1089" y="1121"/>
      <point x="1155" y="1043"/>
      <point x="1174" y="1006" type="curve"/>
      <point x="1284" y="1006" type="line"/>
      <point x="1277" y="1128"/>
      <point x="1262" y="1246"/>
      <point x="1240" y="1360" type="curve"/>
      <point x="1101" y="1443"/>
      <point x="983" y="1488"/>
      <point x="790" y="1496" type="curve" smooth="yes"/>
      <point x="762" y="1498"/>
      <point x="734" y="1498"/>
      <point x="708" y="1497" type="curve" smooth="yes"/>
      <point x="682" y="1496"/>
      <point x="657" y="1494"/>
      <point x="632" y="1491" type="curve" smooth="yes"/>
      <point x="433" y="1468"/>
      <point x="283" y="1362"/>
      <point x="193" y="1233" type="curve" smooth="yes"/>
      <point x="112" y="1118"/>
      <point x="70" y="994"/>
      <point x="70" y="740" type="curve" smooth="yes"/>
      <point x="70" y="528"/>
      <point x="90" y="436"/>
      <point x="135" y="340" type="curve"/>
      <point x="233" y="121"/>
      <point x="448" y="-17"/>
      <point x="745" y="-26" type="curve"/>
      <point x="915" y="-24"/>
      <point x="1032" y="18"/>
      <point x="1162" y="73" type="curve"/>
      <point x="1223" y="169"/>
      <point x="1278" y="309"/>
    </contour>
  </outline>
</glyph>
<glyph name="D" format="1">
  <advance width="1513"/>
  <unicode hex="0044"/>
  <outline>
    <contour>
      <point x="1053" y="737" type="curve" smooth="yes"/>
      <point x="1053" y="524"/>
      <point x="1012" y="438"/>
      <point x="939" y="370" type="curve"/>
      <point x="860" y="294"/>
      <point x="765" y="283"/>
      <point x="645" y="283" type="curve" smooth="yes"/>
      <point x="532" y="283" type="line"/>
      <point x="532" y="1198" type="line"/>
      <point x="619" y="1198" type="line" smooth="yes"/>
      <point x="708" y="1198" type="line" smooth="yes"/>
      <point x="932" y="1202"/>
      <point x="1053" y="1052"/>
    </contour>
    <contour>
      <point x="1445" y="738" type="curve" smooth="yes"/>
      <point x="1445" y="1063"/>
      <point x="1351" y="1236"/>
      <point x="1162" y="1364" type="curve"/>
      <point x="994" y="1476"/>
      <point x="813" y="1482"/>
      <point x="601" y="1480" type="curve" smooth="yes"/>
      <point x="539" y="1480"/>
      <point x="480" y="1479"/>
      <point x="420" y="1479" type="curve" smooth="yes"/>
      <point x="147" y="1479" type="line"/>
      <point x="147" y="0" type="line"/>
      <point x="607" y="0" type="line" smooth="yes"/>
      <point x="686" y="0"/>
      <point x="770" y="4"/>
      <point x="854" y="11" type="curve" smooth="yes"/>
      <point x="1069" y="28"/>
      <point x="1257" y="153"/>
      <point x="1361" y="337" type="curve" smooth="yes"/>
      <point x="1419" y="438"/>
      <point x="1445" y="535"/>
    </contour>
  </outline>
</glyph>
<glyph name="E" format="1">
  <advance width="1252"/>
  <unicode hex="0045"/>
  <outline>
    <contour>
      <point x="146" y="0" type="line"/>
      <point x="1178" y="0" type="line"/>
      <point x="1178" y="286" type="line"/>
      <point x="529" y="286" type="line"/>
      <point x="529" y="636" type="line"/>
      <point x="1093" y="636" type="line"/>
      <point x="1093" y="918" type="line"/>
      <point x="529" y="918" type="line"/>
      <point x="529" y="1194" type="line"/>
      <point x="1179" y="1194" type="line"/>
      <point x="1179" y="1481" type="line"/>
      <point x="146" y="1481" type="line"/>
    </contour>
  </outline>
</glyph>
<glyph name="F" format="1">
  <advance width="1209"/>
  <unicode hex="0046"/>
  <outline>
    <contour>
      <point x="146" y="0" type="line"/>
      <point x="529" y="0" type="line"/>
      <point x="529" y="615" type="line"/>
      <point x="1119" y="615" type="line"/>
      <point x="1119" y="898" type="line"/>
      <point x="529" y="898" type="line"/>
      <point x="529" y="1194" type="line"/>
      <point x="1178" y="1194" type="line"/>
      <point x="1178" y="1481" type="line"/>
      <point x="146" y="1481" type="line"/>
    </contour>
  </outline>
</glyph>
<glyph name="G" format="1">
  <advance width="1472"/>
  <unicode hex="0047"/>
  <outline>
    <contour>
      <point x="1352" y="231" type="curve"/>
      <point x="1352" y="831" type="line"/>
      <point x="706" y="831" type="line"/>
      <point x="706" y="549" type="line"/>
      <point x="979" y="549" type="line"/>
      <point x="979" y="339" type="line"/>
      <point x="989" y="299"/>
      <point x="959" y="291"/>
      <point x="939" y="272" type="curve"/>
      <point x="884" y="263"/>
      <point x="831" y="261"/>
      <point x="778" y="268" type="curve" smooth="yes"/>
      <point x="676" y="283"/>
      <point x="597" y="329"/>
      <point x="545" y="397" type="curve" smooth="yes"/>
      <point x="489" y="471"/>
      <point x="464" y="550"/>
      <point x="464" y="745" type="curve" smooth="yes"/>
      <point x="464" y="898"/>
      <point x="475" y="951"/>
      <point x="506" y="1011" type="curve"/>
      <point x="549" y="1109"/>
      <point x="632" y="1175"/>
      <point x="738" y="1199" type="curve" smooth="yes"/>
      <point x="759" y="1204"/>
      <point x="781" y="1206"/>
      <point x="803" y="1208" type="curve" smooth="yes"/>
      <point x="821" y="1209"/>
      <point x="842" y="1210"/>
      <point x="864" y="1209" type="curve" smooth="yes"/>
      <point x="1039" y="1200"/>
      <point x="1164" y="1082"/>
      <point x="1242" y="1005" type="curve"/>
      <point x="1346" y="1005" type="line"/>
      <point x="1339" y="1124"/>
      <point x="1324" y="1242"/>
      <point x="1302" y="1353" type="curve"/>
      <point x="1160" y="1443"/>
      <point x="1044" y="1503"/>
      <point x="786" y="1503" type="curve" smooth="yes"/>
      <point x="516" y="1503"/>
      <point x="314" y="1389"/>
      <point x="198" y="1232" type="curve" smooth="yes"/>
      <point x="113" y="1118"/>
      <point x="70" y="993"/>
      <point x="70" y="741" type="curve" smooth="yes"/>
      <point x="70" y="480"/>
      <point x="114" y="354"/>
      <point x="198" y="240" type="curve" smooth="yes"/>
      <point x="291" y="112"/>
      <point x="445" y="8"/>
      <point x="649" y="-14" type="curve"/>
      <point x="709" y="-22"/>
      <point x="773" y="-22"/>
      <point x="837" y="-16" type="curve"/>
      <point x="1049" y="9"/>
      <point x="1280" y="120"/>
    </contour>
  </outline>
</glyph>
<glyph name="H" format="1">
  <advance width="1549"/>
  <unicode hex="0048"/>
  <outline>
    <contour>
      <point x="146" y="0" type="line"/>
      <point x="531" y="0" type="line"/>
      <point x="531" y="636" type="line"/>
      <point x="1018" y="636" type="line"/>
      <point x="1018" y="0" type="line"/>
      <point x="1403" y="0" type="line"/>
      <point x="1403" y="1481" type="line"/>
      <point x="1018" y="1481" type="line"/>
      <point x="1018" y="917" type="line"/>
      <point x="531" y="917" type="line"/>
      <point x="531" y="1481" type="line"/>
      <point x="146" y="1481" type="line"/>
    </contour>
  </outline>
</glyph>
<glyph name="I" format="1">
  <advance width="908"/>
  <unicode hex="0049"/>
  <outline>
    <contour>
      <point x="799" y="0" type="line" smooth="no"/>
      <point x="109" y="0" type="line" smooth="no"/>
      <point x="109" y="256" type="line" smooth="no"/>
      <point x="262" y="256" type="line" smooth="no"/>
      <point x="262" y="1222" type="line" smooth="no"/>
      <point x="109" y="1222" type="line" smooth="no"/>
      <point x="109" y="1479" type="line" smooth="no"/>
      <point x="799" y="1479" type="line" smooth="no"/>
      <point x="799" y="1222" type="line" smooth="no"/>
      <point x="646" y="1222" type="line" smooth="no"/>
      <point x="646" y="256" type="line" smooth="no"/>
      <point x="799" y="256" type="line" smooth="no"/>
    </contour>
  </outline>
</glyph>
<glyph name="J" format="1">
  <advance width="1082"/>
  <unicode hex="004A"/>
  <outline>
    <contour>
      <point x="955" y="453" type="curve" smooth="yes"/>
      <point x="955" y="1479" type="line"/>
      <point x="324" y="1479" type="line"/>
      <point x="324" y="1207" type="line"/>
      <point x="570" y="1172" type="line"/>
      <point x="570" y="606" type="line" smooth="yes"/>
      <point x="570" y="398"/>
      <point x="542" y="270"/>
      <point x="307" y="270" type="curve" smooth="yes"/>
      <point x="208" y="270"/>
      <point x="162" y="292"/>
      <point x="104" y="321" type="curve"/>
      <point x="88" y="326"/>
      <point x="73" y="333"/>
      <point x="59" y="339" type="curve"/>
      <point x="-6" y="67" type="line"/>
      <point x="79" y="16"/>
      <point x="203" y="-20"/>
      <point x="383" y="-20" type="curve" smooth="yes"/>
      <point x="716" y="-20"/>
      <point x="955" y="157"/>
    </contour>
  </outline>
</glyph>
<glyph name="K" format="1">
  <advance width="1465"/>
  <unicode hex="004B"/>
  <outline>
    <contour>
      <point x="146" y="0" type="line"/>
      <point x="529" y="0" type="line"/>
      <point x="529" y="477" type="line"/>
      <point x="652" y="628" type="line"/>
      <point x="723" y="505" type="line"/>
      <point x="822" y="336"/>
      <point x="922" y="169"/>
      <point x="1019" y="0" type="curve"/>
      <point x="1477" y="0" type="line"/>
      <point x="955" y="832" type="line"/>
      <point x="1448" y="1481" type="line"/>
      <point x="1005" y="1481" type="line"/>
      <point x="893" y="1322"/>
      <point x="778" y="1166"/>
      <point x="667" y="1007" type="curve"/>
      <point x="531" y="816" type="line"/>
      <point x="529" y="816" type="line"/>
      <point x="529" y="1481" type="line"/>
      <point x="146" y="1481" type="line"/>
    </contour>
  </outline>
</glyph>
<glyph name="L" format="1">
  <advance width="1221"/>
  <unicode hex="004c"/>
  <outline>
    <contour>
      <point x="1178" y="0" type="line" smooth="no"/>
      <point x="147" y="0" type="line" smooth="no"/>
      <point x="147" y="1479" type="line" smooth="no"/>
      <point x="532" y="1479" type="line" smooth="no"/>
      <point x="532" y="286" type="line" smooth="no"/>
      <point x="1178" y="286" type="line" smooth="no"/>
    </contour>
  </outline>
</glyph>
<glyph name="M" format="1">
  <advance width="1829"/>
  <unicode hex="004D"/>
  <outline>
    <contour>
      <point x="1682" y="0" type="line"/>
      <point x="1682" y="1479" type="line"/>
      <point x="1272" y="1479" type="line"/>
      <point x="1017" y="922" type="line" smooth="yes"/>
      <point x="1017" y="924" type="line" smooth="yes"/>
      <point x="915" y="698" type="line"/>
      <point x="559" y="1479" type="line"/>
      <point x="147" y="1479" type="line"/>
      <point x="147" y="0" type="line"/>
      <point x="515" y="0" type="line"/>
      <point x="515" y="701" type="line" smooth="yes"/>
      <point x="515" y="749"/>
      <point x="514" y="837"/>
      <point x="516" y="876" type="curve"/>
      <point x="546" y="804" type="line" smooth="yes"/>
      <point x="560" y="772"/>
      <point x="575" y="739"/>
      <point x="589" y="708" type="curve" smooth="yes"/>
      <point x="648" y="569"/>
      <point x="709" y="429"/>
      <point x="768" y="291" type="curve"/>
      <point x="1046" y="291" type="line"/>
      <point x="1130" y="486"/>
      <point x="1213" y="679"/>
      <point x="1298" y="876" type="curve"/>
      <point x="1301" y="837"/>
      <point x="1300" y="749"/>
      <point x="1300" y="701" type="curve" smooth="yes"/>
      <point x="1300" y="0" type="line"/>
    </contour>
  </outline>
</glyph>
<glyph name="N" format="1">
  <advance width="1592"/>
  <unicode hex="004e"/>
  <outline>
    <contour>
      <point x="1446.5" y="0" type="line" smooth="no"/>
      <point x="1093.5" y="0" type="line" smooth="no"/>
      <point x="898.5" y="318"/>
      <point x="696.5" y="645"/>
      <point x="504.5" y="960" type="curve" smooth="no"/>
      <point x="501.5" y="917"/>
      <point x="502.5" y="809"/>
      <point x="502.5" y="757" type="curve" smooth="yes"/>
      <point x="502.5" y="0" type="line" smooth="no"/>
      <point x="145.5" y="0" type="line" smooth="no"/>
      <point x="145.5" y="1479" type="line" smooth="no"/>
      <point x="577.5" y="1479" type="line" smooth="no"/>
      <point x="977.5" y="839" type="line" smooth="yes"/>
      <point x="1007.5" y="789"/>
      <point x="1059.5" y="698"/>
      <point x="1090.5" y="659" type="curve" smooth="no"/>
      <point x="1090.5" y="1479" type="line" smooth="no"/>
      <point x="1446.5" y="1479" type="line" smooth="no"/>
    </contour>
  </outline>
</glyph>
<glyph name="O" format="1">
  <advance width="1569"/>
  <unicode hex="004F"/>
  <outline>
    <contour>
      <point x="787" y="264" type="curve" smooth="yes"/>
      <point x="560" y="264"/>
      <point x="491" y="441"/>
      <point x="491" y="740" type="curve" smooth="yes"/>
      <point x="491" y="1041"/>
      <point x="561" y="1215"/>
      <point x="787" y="1215" type="curve" smooth="yes"/>
      <point x="1011" y="1215"/>
      <point x="1079" y="1037"/>
      <point x="1079" y="740" type="curve" smooth="yes"/>
      <point x="1079" y="452"/>
      <point x="1014" y="264"/>
    </contour>
    <contour>
      <point x="786" y="-24" type="curve" smooth="yes"/>
      <point x="1245" y="-24"/>
      <point x="1471" y="253"/>
      <point x="1471" y="740" type="curve" smooth="yes"/>
      <point x="1471" y="1232"/>
      <point x="1243" y="1504"/>
      <point x="786" y="1504" type="curve" smooth="yes"/>
      <point x="329" y="1504"/>
      <point x="98" y="1230"/>
      <point x="98" y="740" type="curve" smooth="yes"/>
      <point x="98" y="253"/>
      <point x="327" y="-24"/>
    </contour>
  </outline>
</glyph>
<glyph name="P" format="1">
  <advance width="1386"/>
  <unicode hex="0050"/>
  <outline>
    <contour>
      <point x="1343" y="1010" type="curve" smooth="yes"/>
      <point x="1343" y="712"/>
      <point x="1124" y="499"/>
      <point x="757" y="499" type="curve" smooth="yes"/>
      <point x="532" y="499" type="line" smooth="no"/>
      <point x="532" y="0" type="line" smooth="no"/>
      <point x="147" y="0" type="line" smooth="no"/>
      <point x="147" y="1479" type="line" smooth="no"/>
      <point x="782" y="1479" type="line" smooth="yes"/>
      <point x="1082" y="1479"/>
      <point x="1343" y="1351"/>
    </contour>
    <contour>
      <point x="952" y="1006" type="curve" smooth="yes"/>
      <point x="952" y="1193"/>
      <point x="767" y="1197"/>
      <point x="636" y="1197" type="curve" smooth="yes"/>
      <point x="532" y="1197" type="line" smooth="no"/>
      <point x="532" y="781" type="line" smooth="no"/>
      <point x="563" y="781" type="line" smooth="yes"/>
      <point x="642" y="781"/>
      <point x="721" y="780"/>
      <point x="788" y="791" type="curve" smooth="no"/>
      <point x="893" y="804"/>
      <point x="952" y="877"/>
    </contour>
  </outline>
</glyph>
<glyph name="Q" format="1">
  <advance width="1569"/>
  <unicode hex="0051"/>
  <outline>
    <contour>
      <point x="1046" y="-416" type="line"/>
      <point x="1250" y="-322" type="line"/>
      <point x="866" y="476" type="line"/>
      <point x="866" y="476"/>
      <point x="622" y="476"/>
      <point x="622" y="476" type="curve"/>
    </contour>
    <component base="O"/>
  </outline>
</glyph>
<glyph name="R" format="1">
  <advance width="1483"/>
  <unicode hex="0052"/>
  <outline>
    <contour>
      <point x="967" y="1032" type="curve" smooth="yes"/>
      <point x="967" y="879"/>
      <point x="871" y="832"/>
      <point x="666" y="832" type="curve" smooth="yes"/>
      <point x="530" y="832" type="line"/>
      <point x="530" y="1205" type="line"/>
      <point x="654" y="1205" type="line" smooth="yes"/>
      <point x="697" y="1205"/>
      <point x="736" y="1204"/>
      <point x="769" y="1201" type="curve" smooth="yes"/>
      <point x="918" y="1187"/>
      <point x="967" y="1146"/>
    </contour>
    <contour>
      <point x="1455" y="0" type="line"/>
      <point x="1412" y="156" type="line" smooth="yes"/>
      <point x="1406" y="176"/>
      <point x="1113" y="553"/>
      <point x="1059" y="633" type="curve"/>
      <point x="1237" y="710"/>
      <point x="1353" y="841"/>
      <point x="1353" y="1055" type="curve" smooth="yes"/>
      <point x="1353" y="1488"/>
      <point x="917" y="1479"/>
      <point x="631" y="1479" type="curve" smooth="yes"/>
      <point x="147" y="1479" type="line"/>
      <point x="147" y="0" type="line"/>
      <point x="530" y="0" type="line"/>
      <point x="530" y="562" type="line"/>
      <point x="696" y="562" type="line"/>
      <point x="805" y="373"/>
      <point x="915" y="187"/>
      <point x="1025" y="0" type="curve"/>
    </contour>
  </outline>
</glyph>
<glyph name="S" format="1">
  <advance width="1296"/>
  <unicode hex="0053"/>
  <outline>
    <contour>
      <point x="621" y="-20" type="curve" smooth="yes"/>
      <point x="1004" y="-20"/>
      <point x="1259" y="164"/>
      <point x="1259" y="457" type="curve" smooth="yes"/>
      <point x="1259" y="704"/>
      <point x="1099" y="841"/>
      <point x="778" y="909" type="curve"/>
      <point x="536" y="955"/>
      <point x="468" y="984"/>
      <point x="468" y="1076" type="curve" smooth="yes"/>
      <point x="468" y="1207"/>
      <point x="595" y="1221"/>
      <point x="680" y="1221" type="curve" smooth="yes"/>
      <point x="837" y="1221"/>
      <point x="984" y="1170"/>
      <point x="1098" y="1090" type="curve"/>
      <point x="1158" y="1090" type="line"/>
      <point x="1205" y="1383" type="line"/>
      <point x="1064" y="1455"/>
      <point x="873" y="1503"/>
      <point x="685" y="1503" type="curve" smooth="yes"/>
      <point x="336" y="1503"/>
      <point x="85" y="1309"/>
      <point x="85" y="1040" type="curve" smooth="yes"/>
      <point x="85" y="846"/>
      <point x="168" y="711"/>
      <point x="376" y="629" type="curve"/>
      <point x="553" y="553"/>
      <point x="870" y="582"/>
      <point x="870" y="408" type="curve" smooth="yes"/>
      <point x="870" y="290"/>
      <point x="726" y="260"/>
      <point x="621" y="260" type="curve" smooth="yes"/>
      <point x="464" y="260"/>
      <point x="301" y="316"/>
      <point x="163" y="418" type="curve"/>
      <point x="103" y="418" type="line"/>
      <point x="51" y="125" type="line"/>
      <point x="201" y="35"/>
      <point x="383" y="-20"/>
    </contour>
  </outline>
</glyph>
<glyph name="T" format="1">
  <advance width="1222"/>
  <unicode hex="0054"/>
  <outline>
    <contour>
      <point x="1222.5" y="1198" type="line" smooth="no"/>
      <point x="803.5" y="1198" type="line" smooth="no"/>
      <point x="803.5" y="0" type="line" smooth="no"/>
      <point x="419.5" y="0" type="line" smooth="no"/>
      <point x="419.5" y="1198" type="line" smooth="no"/>
      <point x="-0.5" y="1198" type="line" smooth="no"/>
      <point x="-0.5" y="1479" type="line" smooth="no"/>
      <point x="1222.5" y="1479" type="line" smooth="no"/>
    </contour>
  </outline>
</glyph>
<glyph name="U" format="1">
  <advance width="1507"/>
  <unicode hex="0055"/>
  <outline>
    <contour>
      <point x="753" y="-24" type="curve" smooth="yes"/>
      <point x="1149" y="-24"/>
      <point x="1381" y="178"/>
      <point x="1381" y="506" type="curve" smooth="yes"/>
      <point x="1381" y="1481" type="line"/>
      <point x="996" y="1481" type="line"/>
      <point x="996" y="538" type="line" smooth="yes"/>
      <point x="996" y="351"/>
      <point x="907" y="266"/>
      <point x="753" y="266" type="curve" smooth="yes"/>
      <point x="592" y="266"/>
      <point x="512" y="355"/>
      <point x="512" y="536" type="curve" smooth="yes"/>
      <point x="512" y="1481" type="line"/>
      <point x="126" y="1481" type="line"/>
      <point x="126" y="505" type="line" smooth="yes"/>
      <point x="126" y="171"/>
      <point x="373" y="-24"/>
    </contour>
  </outline>
</glyph>
<glyph name="V" format="1">
  <advance width="1432"/>
  <unicode hex="0056"/>
  <outline>
    <contour>
      <point x="523" y="0" type="line"/>
      <point x="909" y="0" type="line"/>
      <point x="1456" y="1574" type="line"/>
      <point x="1041" y="1574" type="line"/>
      <point x="957.12" y="1303.37"/>
      <point x="866.978" y="1039"/>
      <point x="784.944" y="766.519" type="curve" smooth="yes"/>
      <point x="763.311" y="694.664"/>
      <point x="742.242" y="622.246"/>
      <point x="722" y="549" type="curve"/>
      <point x="720" y="549" type="line"/>
      <point x="720" y="549"/>
      <point x="672.341" y="717.757"/>
      <point x="655" y="764" type="curve"/>
      <point x="570" y="1034"/>
      <point x="485" y="1304"/>
      <point x="401" y="1574" type="curve"/>
      <point x="-24" y="1574" type="line"/>
    </contour>
  </outline>
</glyph>
<glyph name="W" format="1">
  <advance width="2205"/>
  <unicode hex="0057"/>
  <outline>
    <contour>
      <point x="422" y="0" type="line"/>
      <point x="846" y="0" type="line"/>
      <point x="1099" y="938" type="line"/>
      <point x="1156" y="761"/>
      <point x="1276" y="299"/>
      <point x="1358" y="0" type="curve"/>
      <point x="1783" y="0" type="line"/>
      <point x="2193" y="1574" type="line"/>
      <point x="1774" y="1574" type="line"/>
      <point x="1717.62" y="1313.24"/>
      <point x="1660.01" y="1046.35"/>
      <point x="1604.06" y="784.854" type="curve" smooth="yes"/>
      <point x="1588.56" y="712.407"/>
      <point x="1573.19" y="640.374"/>
      <point x="1558" y="569" type="curve"/>
      <point x="1540" y="622"/>
      <point x="1516" y="731"/>
      <point x="1500" y="795" type="curve" smooth="yes"/>
      <point x="1298" y="1574" type="line"/>
      <point x="917" y="1574" type="line"/>
      <point x="852" y="1331"/>
      <point x="786" y="1090"/>
      <point x="721" y="848" type="curve"/>
      <point x="644" y="566" type="line"/>
      <point x="642" y="566" type="line"/>
      <point x="595" y="805" type="line"/>
      <point x="543" y="1063"/>
      <point x="492" y="1317"/>
      <point x="441" y="1574" type="curve"/>
      <point x="13" y="1574" type="line"/>
    </contour>
    <contour>
      <point x="1103" y="1574" type="move"/>
    </contour>
    <contour>
      <point x="1103" y="1574" type="move" name="top"/>
    </contour>
  </outline>
</glyph>
<glyph name="X" format="1">
  <advance width="1437"/>
  <unicode hex="0058"/>
  <outline>
    <contour>
      <point x="-41" y="0" type="line"/>
      <point x="414" y="0" type="line"/>
      <point x="414" y="0"/>
      <point x="601.477097755" y="313.119087748"/>
      <point x="608.832005587" y="325.215481961" type="curve" smooth="yes"/>
      <point x="642.394056128" y="380.41397027"/>
      <point x="677.369834736" y="436.043388471"/>
      <point x="711" y="491" type="curve"/>
      <point x="743" y="439"/>
      <point x="779" y="382"/>
      <point x="812" y="329" type="curve"/>
      <point x="1005" y="0" type="line"/>
      <point x="1479" y="0" type="line"/>
      <point x="966" y="812" type="line"/>
      <point x="1452" y="1574" type="line"/>
      <point x="994" y="1574" type="line"/>
      <point x="827" y="1290" type="line"/>
      <point x="790" y="1229"/>
      <point x="757" y="1176"/>
      <point x="722" y="1119" type="curve"/>
      <point x="688.000000954" y="1178.11363471"/>
      <point x="653.701448205" y="1236.77943886"/>
      <point x="619.335042336" y="1295.28578818" type="curve" smooth="yes"/>
      <point x="564.753101108" y="1388.20764136"/>
      <point x="510.000000954" y="1480.72727108"/>
      <point x="456" y="1574" type="curve"/>
      <point x="-16" y="1574" type="line"/>
      <point x="470" y="800" type="line"/>
    </contour>
  </outline>
</glyph>
<glyph name="Y" format="1">
  <advance width="1363"/>
  <unicode hex="0059"/>
  <outline>
    <contour>
      <point x="495" y="0" type="line"/>
      <point x="876" y="0" type="line"/>
      <point x="876" y="608" type="line"/>
      <point x="1383" y="1481" type="line"/>
      <point x="960" y="1481" type="line"/>
      <point x="872" y="1300"/>
      <point x="782" y="1126"/>
      <point x="693" y="944" type="curve"/>
      <point x="598" y="1123"/>
      <point x="508" y="1300"/>
      <point x="416" y="1481" type="curve"/>
      <point x="-20" y="1481" type="line"/>
      <point x="495" y="596" type="line"/>
    </contour>
  </outline>
</glyph>
<glyph name="Z" format="1">
  <advance width="1227"/>
  <unicode hex="005A"/>
  <outline>
    <contour>
      <point x="52" y="0" type="line"/>
      <point x="1199" y="0" type="line"/>
      <point x="1199" y="286" type="line"/>
      <point x="528" y="286" type="line"/>
      <point x="1165" y="1209" type="line"/>
      <point x="1165" y="1481" type="line"/>
      <point x="87" y="1481" type="line"/>
      <point x="87" y="1199" type="line"/>
      <point x="692" y="1199" type="line"/>
      <point x="52" y="272" type="line"/>
    </contour>
  </outline>
</glyph>
<glyph name="bracketleft" format="1">
  <advance width="894"/>
  <unicode hex="005B"/>
  <outline>
    <contour>
      <point x="155" y="-348" type="line"/>
      <point x="789" y="-348" type="line"/>
      <point x="789" y="-108" type="line"/>
      <point x="483" y="-108" type="line"/>
      <point x="483" y="1381" type="line"/>
      <point x="789" y="1381" type="line"/>
      <point x="789" y="1621" type="line"/>
      <point x="155" y="1621" type="line"/>
    </contour>
  </outline>
</glyph>
<glyph name="backslash" format="1">
  <advance width="1126"/>
  <unicode hex="005c"/>
  <outline>
    <contour>
      <point x="1006" y="-218" type="line" smooth="no"/>
      <point x="721" y="-218" type="line" smooth="no"/>
      <point x="177" y="1527" type="line" smooth="no"/>
      <point x="464" y="1527" type="line" smooth="no"/>
    </contour>
  </outline>
</glyph>
<glyph name="bracketright" format="1">
  <advance width="894"/>
  <unicode hex="005D"/>
  <outline>
    <contour>
      <point x="741" y="1621" type="line"/>
      <point x="105" y="1621" type="line"/>
      <point x="105" y="1381" type="line"/>
      <point x="412" y="1381" type="line"/>
      <point x="412" y="-108" type="line"/>
      <point x="105" y="-108" type="line"/>
      <point x="105" y="-348" type="line"/>
      <point x="741" y="-348" type="line"/>
    </contour>
  </outline>
</glyph>
<glyph name="asciicircum" format="1">
  <advance width="1588"/>
  <unicode hex="005E"/>
  <outline>
    <contour>
      <point x="1437" y="639" type="line"/>
      <point x="901" y="1479" type="line"/>
      <point x="656" y="1479" type="line"/>
      <point x="150" y="637" type="line"/>
      <point x="456" y="637" type="line"/>
      <point x="779" y="1212" type="line"/>
      <point x="1130" y="639" type="line"/>
    </contour>
  </outline>
</glyph>
<glyph name="underscore" format="1">
  <advance width="1196"/>
  <unicode hex="005F"/>
  <outline>
    <contour>
      <point x="-13" y="-306" type="line"/>
      <point x="1211" y="-306" type="line"/>
      <point x="1211" y="-131" type="line"/>
      <point x="-13" y="-131" type="line"/>
    </contour>
  </outline>
</glyph>
<glyph name="grave" format="1">
  <advance width="844"/>
  <unicode hex="0060"/>
  <outline>
    <contour>
      <point x="437" y="1169" type="line"/>
      <point x="673" y="1169" type="line"/>
      <point x="470" y="1516" type="line"/>
      <point x="140" y="1516" type="line"/>
    </contour>
  </outline>
</glyph>
<glyph name="a" format="1">
  <advance width="1204"/>
  <unicode hex="0061"/>
  <outline>
    <contour>
      <point x="61" y="317" type="curve" smooth="yes"/>
      <point x="61" y="127"/>
      <point x="200" y="-20"/>
      <point x="408" y="-20" type="curve" smooth="yes"/>
      <point x="574" y="-20"/>
      <point x="692" y="57.7798"/>
      <point x="749" y="159" type="curve"/>
      <point x="749" y="159"/>
      <point x="751.0" y="0.0"/>
      <point x="751" y="0" type="curve"/>
      <point x="1109" y="0" type="line"/>
      <point x="1109" y="749" type="line" smooth="yes"/>
      <point x="1109" y="1006"/>
      <point x="934" y="1122"/>
      <point x="553" y="1122" type="curve" smooth="yes"/>
      <point x="387" y="1122"/>
      <point x="213" y="1084"/>
      <point x="142" y="1033" type="curve"/>
      <point x="201" y="792" type="line"/>
      <point x="308" y="834"/>
      <point x="430" y="864"/>
      <point x="537" y="864" type="curve" smooth="yes"/>
      <point x="716" y="864"/>
      <point x="751" y="820"/>
      <point x="751" y="696" type="curve"/>
      <point x="372.574" y="696"/>
      <point x="61" y="649.686"/>
    </contour>
    <contour>
      <point x="751" y="504" type="curve"/>
      <point x="751" y="268"/>
      <point x="664" y="227"/>
      <point x="562" y="227" type="curve" smooth="yes"/>
      <point x="470" y="227"/>
      <point x="418" y="274"/>
      <point x="418" y="352" type="curve" smooth="yes"/>
      <point x="418" y="492"/>
      <point x="549" y="488"/>
    </contour>
  </outline>
</glyph>
<glyph name="b" format="1">
  <advance width="1269"/>
  <unicode hex="0062"/>
  <outline>
    <contour>
      <point x="841" y="554" type="curve" smooth="yes"/>
      <point x="841" y="376"/>
      <point x="793" y="254"/>
      <point x="614" y="254" type="curve" smooth="yes"/>
      <point x="570" y="254"/>
      <point x="528" y="261"/>
      <point x="503" y="277" type="curve"/>
      <point x="486" y="356"/>
      <point x="485" y="447"/>
      <point x="485" y="535" type="curve" smooth="yes"/>
      <point x="485" y="617"/>
      <point x="486" y="700"/>
      <point x="491" y="780" type="curve"/>
      <point x="531" y="822"/>
      <point x="576" y="846"/>
      <point x="645" y="846" type="curve" smooth="yes"/>
      <point x="797" y="846"/>
      <point x="841" y="746"/>
    </contour>
    <contour>
      <point x="1207" y="557" type="curve" smooth="yes"/>
      <point x="1207" y="796"/>
      <point x="1163" y="931"/>
      <point x="1069" y="1021" type="curve" smooth="yes"/>
      <point x="1004" y="1082"/>
      <point x="917" y="1120"/>
      <point x="808" y="1120" type="curve" smooth="yes"/>
      <point x="674" y="1120"/>
      <point x="585" y="1067"/>
      <point x="485" y="987" type="curve"/>
      <point x="485" y="1521" type="line"/>
      <point x="126" y="1521" type="line"/>
      <point x="126" y="0" type="line"/>
      <point x="486" y="0" type="line"/>
      <point x="485" y="88" type="line"/>
      <point x="568" y="16"/>
      <point x="641" y="-22"/>
      <point x="768" y="-22" type="curve" smooth="yes"/>
      <point x="880" y="-22"/>
      <point x="973" y="22"/>
      <point x="1046" y="92" type="curve"/>
      <point x="1148" y="187"/>
      <point x="1207" y="327"/>
    </contour>
  </outline>
</glyph>
<glyph name="c" format="1">
  <advance width="1077"/>
  <unicode hex="0063"/>
  <outline>
    <contour>
      <point x="649" y="-24" type="curve" smooth="yes"/>
      <point x="792" y="-24"/>
      <point x="921" y="21"/>
      <point x="1028" y="80" type="curve"/>
      <point x="976" y="328" type="line"/>
      <point x="896" y="262"/>
      <point x="803" y="222"/>
      <point x="679" y="222" type="curve" smooth="yes"/>
      <point x="539" y="222"/>
      <point x="427" y="297"/>
      <point x="427" y="515" type="curve" smooth="yes"/>
      <point x="427" y="732"/>
      <point x="545" y="817"/>
      <point x="690" y="817" type="curve" smooth="yes"/>
      <point x="778" y="817"/>
      <point x="886" y="775"/>
      <point x="975" y="705" type="curve"/>
      <point x="1026" y="955" type="line"/>
      <point x="891" y="1030"/>
      <point x="765" y="1059"/>
      <point x="641" y="1059" type="curve" smooth="yes"/>
      <point x="365" y="1059"/>
      <point x="81" y="916"/>
      <point x="81" y="516" type="curve" smooth="yes"/>
      <point x="81" y="139"/>
      <point x="343" y="-24"/>
    </contour>
  </outline>
</glyph>
<glyph name="d" format="1">
  <advance width="1288"/>
  <unicode hex="0064"/>
  <outline>
    <contour>
      <point x="512" y="-22" type="curve" smooth="yes"/>
      <point x="640" y="-22"/>
      <point x="730" y="14"/>
      <point x="814" y="82" type="curve"/>
      <point x="814" y="0" type="line"/>
      <point x="1175" y="0" type="line"/>
      <point x="1175" y="1527" type="line"/>
      <point x="814" y="1527" type="line"/>
      <point x="814" y="1022" type="line"/>
      <point x="727" y="1083"/>
      <point x="633" y="1126"/>
      <point x="516" y="1126" type="curve" smooth="yes"/>
      <point x="196" y="1126"/>
      <point x="56" y="910"/>
      <point x="56" y="562" type="curve" smooth="yes"/>
      <point x="56" y="224"/>
      <point x="217" y="-22"/>
    </contour>
    <contour>
      <point x="665" y="238" type="curve" smooth="yes"/>
      <point x="502" y="238"/>
      <point x="423" y="366"/>
      <point x="423" y="542" type="curve" smooth="yes"/>
      <point x="423" y="731"/>
      <point x="472" y="863"/>
      <point x="606" y="863" type="curve" smooth="yes"/>
      <point x="655" y="863"/>
      <point x="736" y="845"/>
      <point x="814" y="806" type="curve"/>
      <point x="814" y="260" type="line"/>
      <point x="765" y="245"/>
      <point x="703" y="238"/>
    </contour>
    <contour>
      <point x="644" y="549" type="move" name="center"/>
    </contour>
  </outline>
</glyph>
<glyph name="e" format="1">
  <advance width="1207"/>
  <unicode hex="0065"/>
  <outline>
    <contour>
      <point x="1145" y="466" type="line" smooth="no"/>
      <point x="410" y="466" type="line" smooth="no"/>
      <point x="424" y="286"/>
      <point x="552" y="232"/>
      <point x="720" y="232" type="curve" smooth="yes"/>
      <point x="854" y="232"/>
      <point x="999" y="292"/>
      <point x="1072" y="352" type="curve" smooth="no"/>
      <point x="1127" y="96" type="line" smooth="no"/>
      <point x="1042" y="36"/>
      <point x="912" y="-25"/>
      <point x="687" y="-25" type="curve" smooth="yes"/>
      <point x="305" y="-25"/>
      <point x="51" y="147"/>
      <point x="51" y="544" type="curve" smooth="yes"/>
      <point x="51" y="924"/>
      <point x="284" y="1122"/>
      <point x="632" y="1122" type="curve" smooth="yes"/>
      <point x="956" y="1122"/>
      <point x="1145" y="940"/>
      <point x="1145" y="615" type="curve" smooth="yes"/>
    </contour>
    <contour>
      <point x="797" y="681" type="line" smooth="no"/>
      <point x="791" y="821"/>
      <point x="724" y="893"/>
      <point x="607" y="893" type="curve" smooth="yes"/>
      <point x="488" y="893"/>
      <point x="414" y="819"/>
      <point x="410" y="681" type="curve" smooth="no"/>
    </contour>
  </outline>
</glyph>
<glyph name="f" format="1">
  <advance width="758"/>
  <unicode hex="0066"/>
  <outline>
    <contour>
      <point x="161" y="0" type="line"/>
      <point x="520" y="0" type="line"/>
      <point x="520" y="865" type="line"/>
      <point x="760" y="865" type="line"/>
      <point x="760" y="1102" type="line"/>
      <point x="511" y="1102" type="line"/>
      <point x="511" y="1245"/>
      <point x="558" y="1278"/>
      <point x="646" y="1278" type="curve" smooth="yes"/>
      <point x="686" y="1278"/>
      <point x="734" y="1271"/>
      <point x="791" y="1265" type="curve"/>
      <point x="791" y="1521" type="line"/>
      <point x="733" y="1528"/>
      <point x="654" y="1534"/>
      <point x="576" y="1534" type="curve" smooth="yes"/>
      <point x="291" y="1534"/>
      <point x="161" y="1412"/>
      <point x="161" y="1144" type="curve" smooth="yes"/>
      <point x="161" y="1102" type="line"/>
      <point x="24" y="1102" type="line"/>
      <point x="24" y="865" type="line"/>
      <point x="161" y="865" type="line"/>
    </contour>
  </outline>
</glyph>
<glyph name="g" format="1">
  <advance width="1201"/>
  <unicode hex="0067"/>
  <outline>
    <contour>
      <point x="553" y="-402" type="curve" smooth="yes"/>
      <point x="848" y="-402"/>
      <point x="1102" y="-284"/>
      <point x="1102" y="88" type="curve" smooth="yes"/>
      <point x="1102" y="1036" type="line"/>
      <point x="753" y="1036" type="line"/>
      <point x="756" y="917" type="line"/>
      <point x="682" y="1022"/>
      <point x="593" y="1059"/>
      <point x="485" y="1059" type="curve" smooth="yes"/>
      <point x="213" y="1059"/>
      <point x="81" y="851"/>
      <point x="81" y="540" type="curve" smooth="yes"/>
      <point x="81" y="185"/>
      <point x="239" y="0"/>
      <point x="537" y="0" type="curve" smooth="yes"/>
      <point x="626" y="0"/>
      <point x="723" y="43"/>
      <point x="764" y="110" type="curve"/>
      <point x="764" y="79" type="line"/>
      <point x="762" y="-95"/>
      <point x="705" y="-151"/>
      <point x="519" y="-151" type="curve" smooth="yes"/>
      <point x="418.995000125" y="-151.0"/>
      <point x="289.578759017" y="-115.578864272"/>
      <point x="218" y="-84" type="curve"/>
      <point x="163" y="-320" type="line"/>
      <point x="258" y="-362"/>
      <point x="401" y="-402"/>
    </contour>
    <contour>
      <point x="614" y="249" type="curve" smooth="yes"/>
      <point x="469" y="249"/>
      <point x="426" y="336"/>
      <point x="426" y="546" type="curve" smooth="yes"/>
      <point x="426" y="707"/>
      <point x="502" y="808"/>
      <point x="630" y="808" type="curve" smooth="yes"/>
      <point x="666" y="808"/>
      <point x="713" y="801"/>
      <point x="756" y="783" type="curve"/>
      <point x="756" y="299" type="line"/>
      <point x="717" y="271"/>
      <point x="670" y="249"/>
    </contour>
  </outline>
</glyph>
<glyph name="h" format="1">
  <advance width="1206"/>
  <unicode hex="0068"/>
  <outline>
    <contour>
      <point x="119" y="0" type="line"/>
      <point x="456" y="0" type="line"/>
      <point x="456" y="700" type="line" smooth="yes"/>
      <point x="456" y="762"/>
      <point x="533" y="785"/>
      <point x="614" y="785" type="curve" smooth="yes"/>
      <point x="736" y="785"/>
      <point x="767" y="716"/>
      <point x="767" y="556" type="curve" smooth="yes"/>
      <point x="767" y="0" type="line"/>
      <point x="1108" y="0" type="line"/>
      <point x="1108" y="681" type="line" smooth="yes"/>
      <point x="1108" y="927"/>
      <point x="967" y="1059"/>
      <point x="766" y="1059" type="curve" smooth="yes"/>
      <point x="556" y="1059"/>
      <point x="456" y="869"/>
      <point x="456" y="869" type="curve"/>
      <point x="456" y="1435" type="line"/>
      <point x="119" y="1435" type="line"/>
    </contour>
  </outline>
</glyph>
<glyph name="i" format="1">
  <advance width="616"/>
  <unicode hex="0069"/>
  <outline>
    <contour>
      <point x="129" y="0" type="line"/>
      <point x="489" y="0" type="line"/>
      <point x="489" y="1102" type="line"/>
      <point x="129" y="1102" type="line"/>
    </contour>
    <contour>
      <point x="309" y="1252" type="curve" smooth="yes"/>
      <point x="448" y="1252"/>
      <point x="518" y="1351"/>
      <point x="518" y="1451" type="curve" smooth="yes"/>
      <point x="518" y="1551"/>
      <point x="448" y="1652"/>
      <point x="309" y="1652" type="curve" smooth="yes"/>
      <point x="170" y="1652"/>
      <point x="100" y="1552"/>
      <point x="100" y="1452" type="curve" smooth="yes"/>
      <point x="100" y="1352"/>
      <point x="170" y="1252"/>
    </contour>
  </outline>
</glyph>
<glyph name="j" format="1">
  <advance width="655"/>
  <unicode hex="006A"/>
  <outline>
    <contour>
      <point x="138" y="-396" type="curve" smooth="yes"/>
      <point x="369" y="-396"/>
      <point x="531" y="-276"/>
      <point x="531" y="-56" type="curve" smooth="yes"/>
      <point x="531" y="1036" type="line"/>
      <point x="193" y="1036" type="line"/>
      <point x="193" y="86" type="line" smooth="yes"/>
      <point x="193" y="-118"/>
      <point x="128" y="-148"/>
      <point x="26" y="-148" type="curve" smooth="yes"/>
      <point x="-5" y="-148"/>
      <point x="-40" y="-143"/>
      <point x="-76" y="-140" type="curve"/>
      <point x="-76" y="-382" type="line"/>
      <point x="-44" y="-385"/>
      <point x="35" y="-396"/>
    </contour>
    <contour>
      <point x="364" y="1173" type="curve" smooth="yes"/>
      <point x="495" y="1173"/>
      <point x="558" y="1265"/>
      <point x="558" y="1359" type="curve" smooth="yes"/>
      <point x="558" y="1453"/>
      <point x="495" y="1546"/>
      <point x="364" y="1546" type="curve" smooth="yes"/>
      <point x="233" y="1546"/>
      <point x="168" y="1453"/>
      <point x="168" y="1359" type="curve" smooth="yes"/>
      <point x="168" y="1265"/>
      <point x="233" y="1173"/>
    </contour>
  </outline>
</glyph>
<glyph name="k" format="1">
  <advance width="1188"/>
  <unicode hex="006B"/>
  <outline>
    <contour>
      <point x="119" y="0" type="line"/>
      <point x="459" y="0" type="line"/>
      <point x="459" y="362" type="line"/>
      <point x="547" y="459" type="line"/>
      <point x="821" y="0" type="line"/>
      <point x="1175" y="0" type="line"/>
      <point x="1175" y="78" type="line"/>
      <point x="825" y="614" type="line"/>
      <point x="1154" y="992" type="line"/>
      <point x="1154" y="1036" type="line"/>
      <point x="792" y="1036" type="line"/>
      <point x="459" y="635" type="line"/>
      <point x="459" y="635" type="line"/>
      <point x="459" y="1437" type="line"/>
      <point x="119" y="1437" type="line"/>
    </contour>
  </outline>
</glyph>
<glyph name="l" format="1">
  <advance width="667"/>
  <unicode hex="006C"/>
  <outline>
    <contour>
      <point x="484" y="1442" type="line" smooth="yes"/>
      <point x="484" y="1501"/>
      <point x="475" y="1521"/>
      <point x="385" y="1521" type="curve" smooth="yes"/>
      <point x="225" y="1521" type="line" smooth="yes"/>
      <point x="135" y="1521"/>
      <point x="126" y="1501"/>
      <point x="126" y="1442" type="curve" smooth="yes"/>
      <point x="126" y="377" type="line" smooth="yes"/>
      <point x="126" y="185"/>
      <point x="126" y="0"/>
      <point x="543" y="0" type="curve" smooth="yes"/>
      <point x="630" y="0" type="line"/>
      <point x="630" y="241" type="line"/>
      <point x="486" y="241"/>
      <point x="484" y="317"/>
      <point x="484" y="377" type="curve" smooth="yes"/>
    </contour>
  </outline>
</glyph>
<glyph name="m" format="1">
  <advance width="1956"/>
  <unicode hex="006D"/>
  <outline>
    <contour>
      <point x="131" y="0" type="line"/>
      <point x="490" y="0" type="line"/>
      <point x="490" y="733" type="line" smooth="yes"/>
      <point x="490" y="795"/>
      <point x="569" y="831"/>
      <point x="634" y="831" type="curve" smooth="yes"/>
      <point x="755" y="831"/>
      <point x="798" y="771"/>
      <point x="798" y="594" type="curve" smooth="yes"/>
      <point x="798" y="0" type="line"/>
      <point x="1158" y="0" type="line"/>
      <point x="1158" y="733" type="line" smooth="yes"/>
      <point x="1158" y="774"/>
      <point x="1243" y="831"/>
      <point x="1304" y="831" type="curve" smooth="yes"/>
      <point x="1436" y="831"/>
      <point x="1473" y="765"/>
      <point x="1473" y="567" type="curve" smooth="yes"/>
      <point x="1473" y="0" type="line"/>
      <point x="1832" y="0" type="line"/>
      <point x="1832" y="725" type="line"/>
      <point x="1833" y="1007"/>
      <point x="1672" y="1126"/>
      <point x="1481" y="1126" type="curve" smooth="yes"/>
      <point x="1351" y="1126"/>
      <point x="1215" y="1064"/>
      <point x="1120" y="935" type="curve"/>
      <point x="1062" y="1067"/>
      <point x="954" y="1126"/>
      <point x="832" y="1126" type="curve" smooth="yes"/>
      <point x="697" y="1126"/>
      <point x="572" y="1052"/>
      <point x="506" y="938" type="curve" smooth="yes"/>
      <point x="505" y="938"/>
      <point x="491" y="911"/>
      <point x="490" y="911" type="curve"/>
      <point x="490" y="1102" type="line"/>
      <point x="131" y="1102" type="line"/>
    </contour>
  </outline>
</glyph>
<glyph name="n" format="1">
  <advance width="1294"/>
  <unicode hex="006E"/>
  <outline>
    <contour>
      <point x="817" y="0" type="line"/>
      <point x="817" y="553" type="line" smooth="yes"/>
      <point x="817" y="734"/>
      <point x="789" y="828"/>
      <point x="641" y="828" type="curve" smooth="yes"/>
      <point x="574" y="828"/>
      <point x="484" y="807"/>
      <point x="484" y="729" type="curve" smooth="yes"/>
      <point x="484" y="0" type="line"/>
      <point x="126" y="0" type="line"/>
      <point x="126" y="1098" type="line"/>
      <point x="484" y="1098" type="line"/>
      <point x="484" y="899" type="line"/>
      <point x="561" y="1028"/>
      <point x="665" y="1122"/>
      <point x="818" y="1122" type="curve" smooth="yes"/>
      <point x="995" y="1122"/>
      <point x="1175" y="997"/>
      <point x="1175" y="736" type="curve" smooth="yes"/>
      <point x="1175" y="0" type="line"/>
    </contour>
  </outline>
</glyph>
<glyph name="o" format="1">
  <advance width="1240"/>
  <unicode hex="006F"/>
  <outline>
    <contour>
      <point x="622" y="233" type="curve" smooth="yes"/>
      <point x="503" y="233"/>
      <point x="417" y="281"/>
      <point x="417" y="549" type="curve" smooth="yes"/>
      <point x="417" y="820"/>
      <point x="510" y="870"/>
      <point x="619" y="870" type="curve" smooth="yes"/>
      <point x="733" y="870"/>
      <point x="821" y="812"/>
      <point x="821" y="548" type="curve" smooth="yes"/>
      <point x="821" y="314"/>
      <point x="752" y="233"/>
    </contour>
    <contour>
      <point x="619" y="-28" type="curve" smooth="yes"/>
      <point x="994" y="-28"/>
      <point x="1190" y="179"/>
      <point x="1190" y="550" type="curve" smooth="yes"/>
      <point x="1190" y="923"/>
      <point x="993" y="1126"/>
      <point x="619" y="1126" type="curve" smooth="yes"/>
      <point x="244" y="1126"/>
      <point x="50" y="925"/>
      <point x="50" y="551" type="curve" smooth="yes"/>
      <point x="50" y="178"/>
      <point x="245" y="-28"/>
    </contour>
    <contour>
      <point x="620" y="1098" type="move" name="top"/>
    </contour>
  </outline>
</glyph>
<glyph name="p" format="1">
  <advance width="1269"/>
  <unicode hex="0070"/>
  <outline>
    <contour>
      <point x="127" y="-416" type="line"/>
      <point x="488" y="-416" type="line"/>
      <point x="488" y="57" type="line"/>
      <point x="572" y="3"/>
      <point x="648" y="-23"/>
      <point x="760" y="-23" type="curve" smooth="yes"/>
      <point x="1055" y="-23"/>
      <point x="1213" y="218"/>
      <point x="1213" y="559" type="curve" smooth="yes"/>
      <point x="1213" y="899"/>
      <point x="1116" y="1126"/>
      <point x="819" y="1126" type="curve" smooth="yes"/>
      <point x="680" y="1126"/>
      <point x="549" y="1052"/>
      <point x="488" y="943" type="curve"/>
      <point x="488" y="1102" type="line"/>
      <point x="127" y="1102" type="line"/>
    </contour>
    <contour>
      <point x="621" y="238" type="curve" smooth="yes"/>
      <point x="553" y="238"/>
      <point x="508" y="249"/>
      <point x="488" y="263" type="curve"/>
      <point x="488" y="786" type="line"/>
      <point x="528" y="827"/>
      <point x="577" y="850"/>
      <point x="647" y="850" type="curve" smooth="yes"/>
      <point x="805" y="850"/>
      <point x="845" y="743"/>
      <point x="845" y="555" type="curve" smooth="yes"/>
      <point x="845" y="361"/>
      <point x="796" y="238"/>
    </contour>
  </outline>
</glyph>
<glyph name="q" format="1">
  <advance width="1269"/>
  <unicode hex="0071"/>
  <outline>
    <contour>
      <point x="520" y="1126" type="curve" smooth="yes"/>
      <point x="630" y="1126"/>
      <point x="734" y="1064"/>
      <point x="782" y="973" type="curve"/>
      <point x="782" y="1102" type="line"/>
      <point x="1143" y="1102" type="line"/>
      <point x="1143" y="-416" type="line"/>
      <point x="782" y="-416" type="line"/>
      <point x="782" y="87" type="line"/>
      <point x="697" y="12"/>
      <point x="622" y="-23"/>
      <point x="509" y="-23" type="curve" smooth="yes"/>
      <point x="214" y="-23"/>
      <point x="56" y="218"/>
      <point x="56" y="559" type="curve" smooth="yes"/>
      <point x="56" y="899"/>
      <point x="170" y="1126"/>
    </contour>
    <contour>
      <point x="622" y="850" type="curve" smooth="yes"/>
      <point x="464" y="850"/>
      <point x="424" y="743"/>
      <point x="424" y="555" type="curve" smooth="yes"/>
      <point x="424" y="361"/>
      <point x="473" y="238"/>
      <point x="648" y="238" type="curve" smooth="yes"/>
      <point x="717" y="238"/>
      <point x="762" y="262"/>
      <point x="782" y="293" type="curve"/>
      <point x="782" y="816" type="line"/>
      <point x="742" y="838"/>
      <point x="693" y="850"/>
    </contour>
  </outline>
</glyph>
<glyph name="r" format="1">
  <advance width="844"/>
  <unicode hex="0072"/>
  <outline>
    <contour>
      <point x="119" y="0" type="line"/>
      <point x="457" y="0" type="line"/>
      <point x="457" y="674" type="line"/>
      <point x="503" y="736"/>
      <point x="608" y="751"/>
      <point x="669" y="751" type="curve" smooth="yes"/>
      <point x="728" y="751"/>
      <point x="774" y="735"/>
      <point x="806" y="720" type="curve"/>
      <point x="858" y="1016" type="line"/>
      <point x="832" y="1029"/>
      <point x="790" y="1038"/>
      <point x="754" y="1038" type="curve" smooth="yes"/>
      <point x="626" y="1038"/>
      <point x="516" y="968"/>
      <point x="457" y="904" type="curve"/>
      <point x="457" y="904" type="line"/>
      <point x="457" y="1036" type="line"/>
      <point x="119" y="1036" type="line"/>
    </contour>
  </outline>
</glyph>
<glyph name="s" format="1">
  <advance width="1010"/>
  <unicode hex="0073"/>
  <outline>
    <contour>
      <point x="463.0" y="-24.0" type="curve" smooth="yes"/>
      <point x="782.0" y="-24.0"/>
      <point x="980.0" y="120.0"/>
      <point x="980.0" y="325.0" type="curve" smooth="yes"/>
      <point x="980.0" y="522.0"/>
      <point x="876" y="591"/>
      <point x="610" y="649" type="curve" smooth="yes"/>
      <point x="427" y="689"/>
      <point x="404.0" y="694.0"/>
      <point x="404.0" y="743.0" type="curve" smooth="yes"/>
      <point x="404.0" y="792.0"/>
      <point x="465.0" y="828.0"/>
      <point x="562.0" y="828.0" type="curve" smooth="yes"/>
      <point x="682.0" y="828.0"/>
      <point x="777.0" y="784.0"/>
      <point x="845.0" y="742.0" type="curve"/>
      <point x="881.0" y="742.0" type="line"/>
      <point x="918.0" y="981.0" type="line"/>
      <point x="826.0" y="1027.0"/>
      <point x="702.0" y="1060.0"/>
      <point x="544.0" y="1060.0" type="curve" smooth="yes"/>
      <point x="247.0" y="1060.0"/>
      <point x="57.0" y="914.0"/>
      <point x="57.0" y="718.0" type="curve" smooth="yes"/>
      <point x="57.0" y="524.0"/>
      <point x="155" y="453"/>
      <point x="378" y="403" type="curve" smooth="yes"/>
      <point x="544" y="366"/>
      <point x="631" y="357"/>
      <point x="631" y="288" type="curve" smooth="yes"/>
      <point x="631" y="229"/>
      <point x="543.0" y="208.0"/>
      <point x="466.0" y="208.0" type="curve" smooth="yes"/>
      <point x="314.0" y="208.0"/>
      <point x="209.0" y="262.0"/>
      <point x="147.0" y="306.0" type="curve"/>
      <point x="97.0" y="306.0" type="line"/>
      <point x="59.0" y="71.0" type="line"/>
      <point x="161.0" y="14.0"/>
      <point x="312.0" y="-24.0"/>
    </contour>
  </outline>
</glyph>
<glyph name="t" format="1">
  <advance width="885"/>
  <unicode hex="0074"/>
  <outline>
    <contour>
      <point x="528" y="-14" type="curve" smooth="yes"/>
      <point x="645" y="-14"/>
      <point x="712" y="-8"/>
      <point x="783" y="6" type="curve"/>
      <point x="783" y="258" type="line"/>
      <point x="743" y="251"/>
      <point x="700" y="245"/>
      <point x="660" y="245" type="curve" smooth="yes"/>
      <point x="579" y="245"/>
      <point x="510" y="273"/>
      <point x="510" y="384" type="curve" smooth="yes"/>
      <point x="510" y="865" type="line"/>
      <point x="783" y="865" type="line"/>
      <point x="783" y="1102" type="line"/>
      <point x="510" y="1102" type="line"/>
      <point x="510" y="1448" type="line"/>
      <point x="149" y="1374" type="line"/>
      <point x="149" y="1102" type="line"/>
      <point x="18" y="1102" type="line"/>
      <point x="18" y="865" type="line"/>
      <point x="149" y="865" type="line"/>
      <point x="149" y="350" type="line" smooth="yes"/>
      <point x="149" y="97"/>
      <point x="262" y="-14"/>
    </contour>
    <contour>
      <point x="443" y="549" type="move" name="center"/>
    </contour>
    <contour>
      <point x="443" y="0" type="move" name="bottom"/>
    </contour>
  </outline>
</glyph>
<glyph name="u" format="1">
  <advance width="1294"/>
  <unicode hex="0075"/>
  <outline>
    <contour>
      <point x="119" y="1098" type="line"/>
      <point x="481" y="1098" type="line"/>
      <point x="481" y="545" type="line" smooth="yes"/>
      <point x="481" y="364"/>
      <point x="507" y="271"/>
      <point x="654" y="271" type="curve" smooth="yes"/>
      <point x="714" y="271"/>
      <point x="767" y="292"/>
      <point x="810" y="338" type="curve"/>
      <point x="810" y="1098" type="line"/>
      <point x="1169" y="1098" type="line"/>
      <point x="1169" y="0" type="line"/>
      <point x="810" y="0" type="line"/>
      <point x="808" y="160" type="line"/>
      <point x="739" y="40"/>
      <point x="610" y="-24"/>
      <point x="478" y="-24" type="curve" smooth="yes"/>
      <point x="301" y="-24"/>
      <point x="119" y="101"/>
      <point x="119" y="362" type="curve" smooth="yes"/>
    </contour>
  </outline>
</glyph>
<glyph name="v" format="1">
  <advance width="1127"/>
  <unicode hex="0076"/>
  <outline>
    <contour>
      <point x="1149" y="1096" type="line"/>
      <point x="779" y="1096" type="line"/>
      <point x="613" y="540" type="line"/>
      <point x="569" y="399" type="line"/>
      <point x="567" y="399" type="line" smooth="yes"/>
      <point x="524" y="541" type="line" smooth="yes"/>
      <point x="467" y="727"/>
      <point x="413" y="909"/>
      <point x="355" y="1096" type="curve"/>
      <point x="-21" y="1096" type="line"/>
      <point x="375" y="0" type="line"/>
      <point x="751" y="0" type="line"/>
    </contour>
  </outline>
</glyph>
<glyph name="w" format="1">
  <advance width="1818"/>
  <unicode hex="0077"/>
  <outline>
    <contour>
      <point x="1810" y="1096" type="line"/>
      <point x="1436" y="1096" type="line"/>
      <point x="1299" y="486" type="line"/>
      <point x="1289" y="448"/>
      <point x="1280" y="408"/>
      <point x="1272" y="369" type="curve"/>
      <point x="1255" y="413"/>
      <point x="1215" y="571"/>
      <point x="1201" y="631" type="curve"/>
      <point x="1072" y="1096" type="line"/>
      <point x="764" y="1096" type="line"/>
      <point x="698" y="883"/>
      <point x="631" y="670"/>
      <point x="573" y="455" type="curve"/>
      <point x="547" y="361" type="line"/>
      <point x="546" y="361" type="line"/>
      <point x="526" y="453" type="line" smooth="yes"/>
      <point x="513" y="515"/>
      <point x="499" y="577"/>
      <point x="486" y="640" type="curve" smooth="yes"/>
      <point x="386" y="1096" type="line"/>
      <point x="7" y="1096" type="line"/>
      <point x="342" y="0" type="line"/>
      <point x="718" y="0" type="line"/>
      <point x="907" y="728" type="line"/>
      <point x="909" y="728" type="line" smooth="yes"/>
      <point x="1096" y="0" type="line"/>
      <point x="1472" y="0" type="line"/>
    </contour>
  </outline>
</glyph>
<glyph name="x" format="1">
  <advance width="1137"/>
  <unicode hex="0078"/>
  <outline>
    <contour>
      <point x="-13" y="0" type="line"/>
      <point x="380" y="0" type="line"/>
      <point x="423" y="64"/>
      <point x="467" y="130"/>
      <point x="510" y="195" type="curve" smooth="yes"/>
      <point x="569" y="286" type="line"/>
      <point x="629" y="197" type="line" smooth="yes"/>
      <point x="672" y="133"/>
      <point x="713" y="66"/>
      <point x="756" y="0" type="curve"/>
      <point x="1151" y="0" type="line"/>
      <point x="771" y="527" type="line"/>
      <point x="1142" y="1036" type="line"/>
      <point x="747" y="1036" type="line"/>
      <point x="706" y="972"/>
      <point x="667" y="909"/>
      <point x="626" y="845" type="curve" smooth="yes"/>
      <point x="569" y="756" type="line"/>
      <point x="551" y="787"/>
      <point x="528" y="821"/>
      <point x="510" y="851" type="curve" smooth="yes"/>
      <point x="393" y="1036" type="line"/>
      <point x="-3" y="1036" type="line"/>
      <point x="369" y="522" type="line"/>
    </contour>
  </outline>
</glyph>
<glyph name="y" format="1">
  <advance width="1122"/>
  <unicode hex="0079"/>
  <outline>
    <contour>
      <point x="233" y="-244" type="curve"/>
      <point x="191" y="-416" type="line"/>
      <point x="528" y="-416" type="line"/>
      <point x="621" y="-337"/>
      <point x="658" y="-252"/>
      <point x="706" y="-109" type="curve"/>
      <point x="1147" y="1096" type="line"/>
      <point x="776" y="1096" type="line"/>
      <point x="711" y="882"/>
      <point x="617" y="557"/>
      <point x="571" y="420" type="curve"/>
      <point x="527" y="561" type="line"/>
      <point x="469" y="740"/>
      <point x="410" y="918"/>
      <point x="352" y="1096" type="curve"/>
      <point x="-25" y="1096" type="line"/>
      <point x="379" y="25" type="line"/>
      <point x="340" y="-86"/>
      <point x="321" y="-179"/>
    </contour>
  </outline>
</glyph>
<glyph name="z" format="1">
  <advance width="1001"/>
  <unicode hex="007A"/>
  <outline>
    <contour>
      <point x="43" y="0" type="line"/>
      <point x="961" y="0" type="line"/>
      <point x="961" y="257" type="line"/>
      <point x="462" y="257" type="line"/>
      <point x="955" y="818" type="line"/>
      <point x="955" y="1036" type="line"/>
      <point x="70" y="1036" type="line"/>
      <point x="70" y="787" type="line"/>
      <point x="535" y="787" type="line"/>
      <point x="43" y="220" type="line"/>
    </contour>
  </outline>
</glyph>
<glyph name="braceleft" format="1">
  <advance width="1078"/>
  <unicode hex="007B"/>
  <outline>
    <contour>
      <point x="995" y="-327" type="line"/>
      <point x="995" y="-115" type="line"/>
      <point x="969" y="-115"/>
      <point x="942" y="-116"/>
      <point x="919" y="-116" type="curve" smooth="yes"/>
      <point x="738" y="-116"/>
      <point x="674" y="-91"/>
      <point x="674" y="148" type="curve" smooth="yes"/>
      <point x="674" y="229" type="line" smooth="yes"/>
      <point x="674" y="439"/>
      <point x="547" y="544"/>
      <point x="404" y="589" type="curve"/>
      <point x="404" y="607" type="line"/>
      <point x="578" y="662"/>
      <point x="674" y="775"/>
      <point x="674" y="1020" type="curve" smooth="yes"/>
      <point x="674" y="1079" type="line" smooth="yes"/>
      <point x="674" y="1282"/>
      <point x="753" y="1312"/>
      <point x="927" y="1312" type="curve" smooth="yes"/>
      <point x="995" y="1312" type="line"/>
      <point x="995" y="1523" type="line"/>
      <point x="841" y="1523" type="line" smooth="yes"/>
      <point x="561" y="1523"/>
      <point x="352" y="1483"/>
      <point x="352" y="1194" type="curve" smooth="yes"/>
      <point x="352" y="1013" type="line" smooth="yes"/>
      <point x="352" y="818"/>
      <point x="286" y="719"/>
      <point x="84" y="711" type="curve"/>
      <point x="60" y="709"/>
      <point x="34" y="711"/>
      <point x="15" y="711" type="curve"/>
      <point x="15" y="485" type="line"/>
      <point x="37" y="485"/>
      <point x="59" y="483"/>
      <point x="80" y="481" type="curve" smooth="yes"/>
      <point x="289" y="467"/>
      <point x="352" y="379"/>
      <point x="352" y="182" type="curve" smooth="yes"/>
      <point x="352" y="44" type="line" smooth="yes"/>
      <point x="352" y="-201"/>
      <point x="483" y="-332"/>
      <point x="727" y="-329" type="curve" smooth="yes"/>
      <point x="789" y="-328"/>
      <point x="848" y="-328"/>
      <point x="909" y="-327" type="curve" smooth="yes"/>
    </contour>
  </outline>
</glyph>
<glyph name="bar" format="1">
  <advance width="1167"/>
  <unicode hex="007C"/>
  <outline>
    <contour>
      <point x="444" y="-433" type="line"/>
      <point x="725" y="-433" type="line"/>
      <point x="725" y="1481" type="line"/>
      <point x="444" y="1481" type="line"/>
    </contour>
  </outline>
</glyph>
<glyph name="braceright" format="1">
  <advance width="1147"/>
  <unicode hex="007D"/>
  <outline>
    <contour>
      <point x="87" y="-348" type="line"/>
      <point x="269" y="-348" type="line"/>
      <point x="564" y="-351"/>
      <point x="777" y="-303"/>
      <point x="773" y="17" type="curve" smooth="yes"/>
      <point x="768" y="384"/>
      <point x="783" y="516"/>
      <point x="1132" y="516" type="curve"/>
      <point x="1132" y="757" type="line"/>
      <point x="861" y="757"/>
      <point x="773" y="863"/>
      <point x="773" y="1112" type="curve" smooth="yes"/>
      <point x="773" y="1212" type="line" smooth="yes"/>
      <point x="773" y="1485"/>
      <point x="646" y="1626"/>
      <point x="375" y="1623" type="curve" smooth="yes"/>
      <point x="277" y="1622"/>
      <point x="182" y="1621"/>
      <point x="87" y="1621" type="curve"/>
      <point x="87" y="1396" type="line"/>
      <point x="329" y="1396"/>
      <point x="431" y="1413"/>
      <point x="431" y="1107" type="curve" smooth="yes"/>
      <point x="431" y="1035" type="line" smooth="yes"/>
      <point x="431" y="804"/>
      <point x="563" y="695"/>
      <point x="717" y="646" type="curve"/>
      <point x="717" y="626" type="line"/>
      <point x="564" y="577"/>
      <point x="431" y="465"/>
      <point x="431" y="240" type="curve" smooth="yes"/>
      <point x="431" y="158" type="line" smooth="yes"/>
      <point x="431" y="-117"/>
      <point x="349" y="-122"/>
      <point x="87" y="-122" type="curve"/>
    </contour>
  </outline>
</glyph>
<glyph name="asciitilde" format="1">
  <advance width="1595"/>
  <unicode hex="007E"/>
  <outline>
    <contour>
      <point x="357" y="327" type="line"/>
      <point x="380" y="522"/>
      <point x="427" y="635"/>
      <point x="519" y="635" type="curve" smooth="yes"/>
      <point x="635" y="635"/>
      <point x="805" y="330"/>
      <point x="1077" y="330" type="curve" smooth="yes"/>
      <point x="1320" y="330"/>
      <point x="1457" y="508"/>
      <point x="1473" y="854" type="curve"/>
      <point x="1241" y="902" type="line"/>
      <point x="1219" y="743"/>
      <point x="1216" y="586"/>
      <point x="1074" y="586" type="curve" smooth="yes"/>
      <point x="870" y="586"/>
      <point x="730" y="900"/>
      <point x="513" y="900" type="curve" smooth="yes"/>
      <point x="284" y="900"/>
      <point x="144" y="727"/>
      <point x="128" y="373" type="curve"/>
    </contour>
  </outline>
</glyph>
<glyph name="exclamdown" format="1">
  <advance width="641"/>
  <unicode hex="00A1"/>
  <outline>
    <contour>
      <point x="122" y="1081" type="line"/>
      <point x="182" y="1084"/>
      <point x="239" y="1084"/>
      <point x="297" y="1084" type="curve" smooth="yes"/>
      <point x="371" y="1084"/>
      <point x="446" y="1083"/>
      <point x="521" y="1081" type="curve"/>
      <point x="521" y="1168"/>
      <point x="521" y="1255"/>
      <point x="522" y="1343" type="curve"/>
      <point x="480" y="1343"/>
      <point x="441" y="1342"/>
      <point x="400" y="1342" type="curve" smooth="yes"/>
      <point x="344" y="1342" type="line" smooth="yes"/>
      <point x="271" y="1342"/>
      <point x="197" y="1342"/>
      <point x="122" y="1344" type="curve"/>
    </contour>
    <contour>
      <point x="112" y="-144" type="line"/>
      <point x="498" y="-144" type="line"/>
      <point x="470" y="933" type="line"/>
      <point x="142" y="933" type="line"/>
    </contour>
  </outline>
</glyph>
<glyph name="cent" format="1">
  <advance width="1249"/>
  <unicode hex="00A2"/>
  <outline>
    <contour>
      <point x="606" y="-310" type="line"/>
      <point x="761" y="-310" type="line"/>
      <point x="761" y="1396" type="line"/>
      <point x="606" y="1396" type="line"/>
    </contour>
    <component base="c"/>
  </outline>
</glyph>
<glyph name="sterling" format="1">
  <advance width="1242"/>
  <unicode hex="00A3"/>
  <outline>
    <contour>
      <point x="853" y="-3" type="curve" smooth="yes"/>
      <point x="958" y="-3"/>
      <point x="1077" y="3"/>
      <point x="1184" y="33" type="curve"/>
      <point x="1136" y="299" type="line"/>
      <point x="1042" y="281"/>
      <point x="943" y="275"/>
      <point x="851" y="275" type="curve" smooth="yes"/>
      <point x="761" y="275"/>
      <point x="656" y="284"/>
      <point x="569" y="286" type="curve"/>
      <point x="608" y="369"/>
      <point x="648" y="474"/>
      <point x="648" y="573" type="curve" smooth="yes"/>
      <point x="648" y="584"/>
      <point x="648" y="593"/>
      <point x="647" y="604" type="curve"/>
      <point x="992" y="604" type="line"/>
      <point x="992" y="810" type="line"/>
      <point x="628" y="810" type="line"/>
      <point x="613" y="874"/>
      <point x="601" y="956"/>
      <point x="601" y="1030" type="curve" smooth="yes"/>
      <point x="601" y="1137"/>
      <point x="690" y="1209"/>
      <point x="782" y="1209" type="curve" smooth="yes"/>
      <point x="881" y="1209"/>
      <point x="985" y="1149"/>
      <point x="1042" y="1085" type="curve"/>
      <point x="1111" y="1085" type="line"/>
      <point x="1093" y="1399" type="line"/>
      <point x="1036" y="1455"/>
      <point x="883" y="1503"/>
      <point x="734" y="1503" type="curve" smooth="yes"/>
      <point x="398" y="1503"/>
      <point x="242" y="1313"/>
      <point x="242" y="1025" type="curve" smooth="yes"/>
      <point x="242" y="959"/>
      <point x="250" y="886"/>
      <point x="266" y="810" type="curve"/>
      <point x="117" y="810" type="line"/>
      <point x="117" y="604" type="line"/>
      <point x="285" y="604" type="line"/>
      <point x="291" y="553"/>
      <point x="295" y="507"/>
      <point x="295" y="464" type="curve" smooth="yes"/>
      <point x="295" y="398"/>
      <point x="286" y="341"/>
      <point x="262" y="280" type="curve"/>
      <point x="223" y="274"/>
      <point x="171" y="266"/>
      <point x="107" y="262" type="curve"/>
      <point x="107" y="-3" type="line"/>
      <point x="180" y="8"/>
      <point x="252" y="11"/>
      <point x="320" y="11" type="curve" smooth="yes"/>
      <point x="483" y="11"/>
      <point x="696" y="-3"/>
    </contour>
  </outline>
</glyph>
<glyph name="yen" format="1">
  <advance width="1242"/>
  <unicode hex="00A5"/>
  <outline>
    <contour>
      <point x="483" y="0" type="line"/>
      <point x="864" y="0" type="line"/>
      <point x="864" y="396" type="line"/>
      <point x="1233" y="396" type="line"/>
      <point x="1233" y="601" type="line"/>
      <point x="864" y="601" type="line"/>
      <point x="933" y="725" type="line"/>
      <point x="1233" y="725" type="line"/>
      <point x="1233" y="931" type="line"/>
      <point x="1052" y="931" type="line"/>
      <point x="1371" y="1481" type="line"/>
      <point x="948" y="1481" type="line"/>
      <point x="860" y="1300"/>
      <point x="770" y="1126"/>
      <point x="681" y="944" type="curve"/>
      <point x="586" y="1123"/>
      <point x="496" y="1300"/>
      <point x="404" y="1481" type="curve"/>
      <point x="-32" y="1481" type="line"/>
      <point x="288" y="931" type="line"/>
      <point x="112" y="931" type="line"/>
      <point x="112" y="725" type="line"/>
      <point x="408" y="725" type="line"/>
      <point x="481" y="601" type="line"/>
      <point x="112" y="601" type="line"/>
      <point x="112" y="396" type="line"/>
      <point x="483" y="396" type="line"/>
    </contour>
  </outline>
</glyph>
<glyph name="brokenbar" format="1">
  <advance width="427"/>
  <unicode hex="00A6"/>
  <outline>
    <contour>
      <point x="102" y="-338" type="line"/>
      <point x="326" y="-338" type="line"/>
      <point x="326" y="338" type="line"/>
      <point x="102" y="338" type="line"/>
    </contour>
    <contour>
      <point x="102" y="629" type="line"/>
      <point x="326" y="629" type="line"/>
      <point x="326" y="1305" type="line"/>
      <point x="102" y="1305" type="line"/>
    </contour>
  </outline>
</glyph>
<glyph name="section" format="1">
  <advance width="1249"/>
  <unicode hex="00A7"/>
  <outline>
    <contour>
      <point x="816" y="590" type="curve"/>
      <point x="819" y="481"/>
      <point x="773" y="394"/>
      <point x="688" y="372" type="curve"/>
      <point x="523" y="402"/>
      <point x="449" y="483"/>
      <point x="449" y="568" type="curve" smooth="yes"/>
      <point x="449" y="660"/>
      <point x="494" y="724"/>
      <point x="568" y="748" type="curve"/>
      <point x="722" y="716"/>
      <point x="765" y="660"/>
      <point x="803" y="607" type="curve"/>
      <point x="807" y="605"/>
      <point x="811" y="597"/>
    </contour>
    <contour>
      <point x="1168" y="589" type="curve" smooth="yes"/>
      <point x="1168" y="777"/>
      <point x="1059" y="880"/>
      <point x="864" y="953" type="curve"/>
      <point x="633" y="1041"/>
      <point x="535" y="1041"/>
      <point x="535" y="1138" type="curve" smooth="yes"/>
      <point x="535" y="1169"/>
      <point x="556" y="1203"/>
      <point x="602" y="1212" type="curve"/>
      <point x="663" y="1234"/>
      <point x="729" y="1223"/>
      <point x="791" y="1188" type="curve"/>
      <point x="870" y="1188"/>
      <point x="988" y="1152"/>
      <point x="1033" y="1130" type="curve"/>
      <point x="1050" y="1130"/>
      <point x="1067" y="1130"/>
      <point x="1084" y="1131" type="curve"/>
      <point x="1084" y="1230"/>
      <point x="1078" y="1322"/>
      <point x="1067" y="1410" type="curve"/>
      <point x="981" y="1467"/>
      <point x="804" y="1502"/>
      <point x="665" y="1502" type="curve" smooth="yes"/>
      <point x="341" y="1502"/>
      <point x="129" y="1337"/>
      <point x="129" y="1145" type="curve"/>
      <point x="129" y="1158"/>
      <point x="123" y="1169"/>
      <point x="107" y="1177" type="curve"/>
      <point x="107" y="1041"/>
      <point x="158" y="943"/>
      <point x="299" y="864" type="curve"/>
      <point x="147" y="780"/>
      <point x="87" y="681"/>
      <point x="87" y="529" type="curve" smooth="yes"/>
      <point x="87" y="295"/>
      <point x="262" y="228"/>
      <point x="491" y="142" type="curve" smooth="yes"/>
      <point x="630" y="90"/>
      <point x="724" y="69"/>
      <point x="724" y="-24" type="curve" smooth="yes"/>
      <point x="724" y="-85"/>
      <point x="687" y="-125"/>
      <point x="612" y="-135" type="curve" smooth="yes"/>
      <point x="563" y="-141"/>
      <point x="514" y="-132"/>
      <point x="464" y="-113" type="curve"/>
      <point x="378" y="-104"/>
      <point x="263" y="-54"/>
      <point x="237" y="-22" type="curve"/>
      <point x="209" y="-23"/>
      <point x="180" y="-23"/>
      <point x="153" y="-23" type="curve"/>
      <point x="153" y="-120"/>
      <point x="159" y="-213"/>
      <point x="171" y="-302" type="curve"/>
      <point x="239" y="-358"/>
      <point x="457" y="-401"/>
      <point x="584" y="-401" type="curve" smooth="yes"/>
      <point x="908" y="-401"/>
      <point x="1135" y="-250"/>
      <point x="1135" y="-21" type="curve" smooth="yes"/>
      <point x="1135" y="55"/>
      <point x="1104" y="114"/>
      <point x="1017" y="164" type="curve"/>
      <point x="1017" y="205"/>
      <point x="1005" y="241"/>
      <point x="962" y="260" type="curve"/>
      <point x="1109" y="345"/>
      <point x="1168" y="447"/>
    </contour>
  </outline>
</glyph>
<glyph name="dieresis" format="1">
  <advance width="888"/>
  <unicode hex="00A8"/>
  <outline>
    <contour>
      <point x="483" y="1246" type="curve"/>
      <point x="483" y="1339"/>
      <point x="484" y="1432"/>
      <point x="485" y="1525" type="curve"/>
      <point x="454" y="1524"/>
      <point x="424" y="1524"/>
      <point x="394" y="1524" type="curve" smooth="yes"/>
      <point x="343" y="1524" type="line" smooth="yes"/>
      <point x="291" y="1524"/>
      <point x="238" y="1525"/>
      <point x="184" y="1527" type="curve"/>
      <point x="184" y="1246" type="line"/>
      <point x="232" y="1249"/>
      <point x="277" y="1250"/>
      <point x="324" y="1250" type="curve" smooth="yes"/>
      <point x="377" y="1250"/>
      <point x="429" y="1248"/>
    </contour>
    <contour>
      <point x="699" y="1246" type="curve"/>
      <point x="699" y="1525" type="line"/>
      <point x="648" y="1524"/>
      <point x="599" y="1524"/>
      <point x="546" y="1524" type="curve" smooth="yes"/>
      <point x="499" y="1524"/>
      <point x="450" y="1525"/>
      <point x="399" y="1527" type="curve"/>
      <point x="399" y="1246" type="line"/>
      <point x="450" y="1248"/>
      <point x="499" y="1250"/>
      <point x="547" y="1250" type="curve" smooth="yes"/>
      <point x="597" y="1250"/>
      <point x="647" y="1248"/>
    </contour>
  </outline>
</glyph>
<glyph name="copyright" format="1">
  <advance width="1846"/>
  <unicode hex="00A9"/>
  <outline>
    <contour>
      <point x="1140" y="274" type="curve"/>
      <point x="1209" y="319"/>
      <point x="1262" y="410"/>
      <point x="1276" y="534" type="curve"/>
      <point x="1212" y="534" type="line"/>
      <point x="1197" y="484"/>
      <point x="1106" y="400"/>
      <point x="970" y="400" type="curve" smooth="yes"/>
      <point x="828" y="400"/>
      <point x="737" y="516"/>
      <point x="737" y="685" type="curve" smooth="yes"/>
      <point x="737" y="858"/>
      <point x="819" y="970"/>
      <point x="969" y="970" type="curve" smooth="yes"/>
      <point x="1094" y="970"/>
      <point x="1181" y="894"/>
      <point x="1212" y="839" type="curve"/>
      <point x="1233" y="839"/>
      <point x="1255" y="839"/>
      <point x="1276" y="840" type="curve"/>
      <point x="1272" y="917"/>
      <point x="1261" y="988"/>
      <point x="1243" y="1052" type="curve"/>
      <point x="1163" y="1107"/>
      <point x="1064" y="1141"/>
      <point x="956" y="1141" type="curve" smooth="yes"/>
      <point x="694" y="1141"/>
      <point x="500" y="963"/>
      <point x="500" y="685" type="curve" smooth="yes"/>
      <point x="500" y="406"/>
      <point x="690" y="251"/>
      <point x="924" y="234" type="curve"/>
      <point x="1016" y="231"/>
      <point x="1094" y="262"/>
    </contour>
    <contour>
      <point x="1571" y="681" type="curve" smooth="yes"/>
      <point x="1571" y="532"/>
      <point x="1519" y="398"/>
      <point x="1434" y="292" type="curve" smooth="yes"/>
      <point x="1316" y="145"/>
      <point x="1131" y="51"/>
      <point x="923" y="51" type="curve" smooth="yes"/>
      <point x="583" y="51"/>
      <point x="276" y="311"/>
      <point x="276" y="681" type="curve" smooth="yes"/>
      <point x="276" y="1036"/>
      <point x="568" y="1310"/>
      <point x="923" y="1310" type="curve" smooth="yes"/>
      <point x="1265" y="1310"/>
      <point x="1571" y="1049"/>
    </contour>
    <contour>
      <point x="1781" y="681" type="curve" smooth="yes"/>
      <point x="1781" y="1138"/>
      <point x="1384" y="1503"/>
      <point x="923" y="1503" type="curve" smooth="yes"/>
      <point x="732" y="1503"/>
      <point x="551" y="1440"/>
      <point x="404" y="1333" type="curve" smooth="yes"/>
      <point x="202" y="1185"/>
      <point x="65" y="952"/>
      <point x="65" y="681" type="curve" smooth="yes"/>
      <point x="65" y="486"/>
      <point x="135" y="310"/>
      <point x="248" y="172" type="curve" smooth="yes"/>
      <point x="406" y="-20"/>
      <point x="652" y="-142"/>
      <point x="923" y="-142" type="curve" smooth="yes"/>
      <point x="1114" y="-142"/>
      <point x="1295" y="-79"/>
      <point x="1442" y="28" type="curve" smooth="yes"/>
      <point x="1644" y="176"/>
      <point x="1781" y="410"/>
    </contour>
  </outline>
</glyph>
<glyph name="ordfeminine" format="1">
  <advance width="933"/>
  <unicode hex="00AA"/>
  <outline>
    <contour>
      <point x="300" y="680" type="curve" smooth="yes"/>
      <point x="398" y="680"/>
      <point x="498" y="717"/>
      <point x="560" y="778" type="curve"/>
      <point x="562" y="778" type="line"/>
      <point x="562" y="696" type="line"/>
      <point x="841" y="696" type="line"/>
      <point x="841" y="1239" type="line" smooth="yes"/>
      <point x="841" y="1440"/>
      <point x="690" y="1509"/>
      <point x="411" y="1509" type="curve" smooth="yes"/>
      <point x="281" y="1509"/>
      <point x="149" y="1483"/>
      <point x="97" y="1448" type="curve"/>
      <point x="136" y="1263" type="line"/>
      <point x="141" y="1274"/>
      <point x="253" y="1322"/>
      <point x="362" y="1322" type="curve" smooth="yes"/>
      <point x="497" y="1322"/>
      <point x="562" y="1297"/>
      <point x="562" y="1213" type="curve"/>
      <point x="286" y="1184"/>
      <point x="31" y="1174"/>
      <point x="31" y="920" type="curve" smooth="yes"/>
      <point x="31" y="750"/>
      <point x="162" y="680"/>
    </contour>
    <contour>
      <point x="421" y="859" type="curve" smooth="yes"/>
      <point x="365" y="859"/>
      <point x="314" y="884"/>
      <point x="314" y="944" type="curve" smooth="yes"/>
      <point x="314" y="1034"/>
      <point x="432" y="1035"/>
      <point x="562" y="1043" type="curve"/>
      <point x="562" y="923" type="line"/>
      <point x="541" y="885"/>
      <point x="478" y="859"/>
    </contour>
  </outline>
</glyph>
<glyph name="guillemotleft" format="1">
  <advance width="1378"/>
  <unicode hex="00AB"/>
  <outline>
    <contour>
      <point x="667" y="159" type="line"/>
      <point x="662" y="372" type="line"/>
      <point x="354" y="620" type="line"/>
      <point x="667" y="874" type="line"/>
      <point x="657" y="1083" type="line"/>
      <point x="157" y="668" type="line"/>
      <point x="140" y="589" type="line"/>
      <point x="238" y="507"/>
      <point x="339" y="423"/>
      <point x="437" y="341" type="curve"/>
    </contour>
    <contour>
      <point x="1118" y="173" type="curve"/>
      <point x="1112" y="382" type="line"/>
      <point x="812" y="620" type="line"/>
      <point x="1118" y="865" type="line"/>
      <point x="1107" y="1070" type="line"/>
      <point x="609" y="660" type="line" smooth="yes"/>
      <point x="612" y="662"/>
      <point x="615" y="665"/>
      <point x="619" y="667" type="curve"/>
      <point x="602" y="590" type="line"/>
      <point x="773" y="449"/>
      <point x="940" y="306"/>
    </contour>
  </outline>
</glyph>
<glyph name="logicalnot" format="1">
  <advance width="1498"/>
  <unicode hex="00AC"/>
  <outline>
    <contour>
      <point x="1083" y="99" type="line"/>
      <point x="1343" y="99" type="line"/>
      <point x="1343" y="780" type="line"/>
      <point x="153" y="780" type="line"/>
      <point x="153" y="545" type="line"/>
      <point x="1083" y="545" type="line"/>
    </contour>
  </outline>
</glyph>
<glyph name="uni00AD" format="1">
  <advance width="837"/>
  <unicode hex="00AD"/>
  <outline>
    <contour>
      <point x="109" y="465" type="line"/>
      <point x="728" y="465" type="line"/>
      <point x="728" y="675" type="line"/>
      <point x="109" y="675" type="line"/>
    </contour>
  </outline>
</glyph>
<glyph name="registered" format="1">
  <advance width="1846"/>
  <unicode hex="00AE"/>
  <outline>
    <contour>
      <point x="1189" y="801" type="curve" smooth="yes"/>
      <point x="1189" y="635"/>
      <point x="1081" y="525"/>
      <point x="931" y="515" type="curve" smooth="yes"/>
      <point x="835" y="509"/>
      <point x="747" y="539"/>
      <point x="673" y="592" type="curve"/>
      <point x="648" y="649"/>
      <point x="634" y="716"/>
      <point x="634" y="788" type="curve" smooth="yes"/>
      <point x="634" y="862"/>
      <point x="648" y="932"/>
      <point x="673" y="991" type="curve"/>
      <point x="736" y="1044"/>
      <point x="825" y="1077"/>
      <point x="916" y="1074" type="curve"/>
      <point x="1085" y="1066"/>
      <point x="1189" y="955"/>
    </contour>
    <contour>
      <point x="1453" y="428" type="curve"/>
      <point x="1453" y="460" type="line"/>
      <point x="1425" y="493"/>
      <point x="1406" y="511"/>
      <point x="1386" y="532" type="curve"/>
      <point x="1391" y="526"/>
      <point x="1325" y="613"/>
      <point x="1292" y="657" type="curve"/>
      <point x="1358" y="729"/>
      <point x="1398" y="818"/>
      <point x="1379" y="936" type="curve"/>
      <point x="1334" y="1147"/>
      <point x="1134" y="1230"/>
      <point x="909" y="1230" type="curve" smooth="yes"/>
      <point x="764" y="1230"/>
      <point x="626" y="1200"/>
      <point x="506" y="1151" type="curve"/>
      <point x="458" y="1027"/>
      <point x="427" y="883"/>
      <point x="427" y="733" type="curve" smooth="yes"/>
      <point x="427" y="557"/>
      <point x="458" y="388"/>
      <point x="506" y="238" type="curve"/>
      <point x="604" y="190"/>
      <point x="721" y="159"/>
      <point x="845" y="159" type="curve"/>
      <point x="845" y="363" type="line"/>
      <point x="845" y="350" type="line"/>
      <point x="892" y="350" type="line"/>
      <point x="972" y="282"/>
      <point x="1119" y="156"/>
      <point x="1147" y="190" type="curve"/>
      <point x="1288" y="234"/>
      <point x="1400" y="324"/>
    </contour>
    <contour>
      <point x="1431" y="751" type="curve" smooth="yes"/>
      <point x="1431" y="545"/>
      <point x="1292" y="389"/>
      <point x="1102" y="320" type="curve" smooth="yes"/>
      <point x="1054" y="303"/>
      <point x="1003" y="291"/>
      <point x="949" y="286" type="curve"/>
      <point x="699" y="273"/>
      <point x="451" y="451"/>
      <point x="438" y="707" type="curve" smooth="yes"/>
      <point x="438" y="712"/>
      <point x="428" y="720"/>
      <point x="411" y="733" type="curve"/>
      <point x="411" y="997"/>
      <point x="647" y="1210"/>
      <point x="924" y="1210" type="curve" smooth="yes"/>
      <point x="1178" y="1210"/>
      <point x="1431" y="1031"/>
    </contour>
    <contour>
      <point x="1646" y="531" type="curve"/>
      <point x="1556" y="660" type="line"/>
      <point x="1600" y="820"/>
      <point x="1567" y="982"/>
      <point x="1460" y="1144" type="curve" smooth="yes"/>
      <point x="1352" y="1308"/>
      <point x="1169" y="1399"/>
      <point x="940" y="1399" type="curve" smooth="yes"/>
      <point x="561" y="1399"/>
      <point x="217" y="1126"/>
      <point x="198" y="770" type="curve"/>
      <point x="219" y="736"/>
      <point x="232" y="710"/>
      <point x="232" y="688" type="curve" smooth="yes"/>
      <point x="232" y="531" type="line"/>
      <point x="250" y="220"/>
      <point x="540" y="-23"/>
      <point x="875" y="-23" type="curve"/>
      <point x="875" y="104" type="line"/>
      <point x="906" y="104" type="line"/>
      <point x="936" y="62"/>
      <point x="965" y="19"/>
      <point x="996" y="-23" type="curve"/>
      <point x="1322" y="-23"/>
      <point x="1625" y="214"/>
    </contour>
  </outline>
</glyph>
<glyph name="macron" format="1">
  <advance width="492"/>
  <unicode hex="00AF"/>
  <outline>
    <contour>
      <point x="-49" y="1243" type="line"/>
      <point x="541" y="1243" type="line"/>
      <point x="541" y="1378" type="line"/>
      <point x="-49" y="1378" type="line"/>
    </contour>
  </outline>
</glyph>
<glyph name="degree" format="1">
  <advance width="953"/>
  <unicode hex="00B0"/>
  <outline>
    <contour>
      <point x="478" y="871" type="curve" smooth="yes"/>
      <point x="363" y="871"/>
      <point x="269" y="960"/>
      <point x="269" y="1075" type="curve" smooth="yes"/>
      <point x="269" y="1185"/>
      <point x="362" y="1279"/>
      <point x="478" y="1279" type="curve" smooth="yes"/>
      <point x="594" y="1279"/>
      <point x="687" y="1185"/>
      <point x="687" y="1075" type="curve" smooth="yes"/>
      <point x="687" y="963"/>
      <point x="595" y="871"/>
    </contour>
    <contour>
      <point x="478" y="764" type="curve" smooth="yes"/>
      <point x="660" y="764"/>
      <point x="806" y="901"/>
      <point x="806" y="1075" type="curve" smooth="yes"/>
      <point x="806" y="1248"/>
      <point x="660" y="1384"/>
      <point x="478" y="1384" type="curve" smooth="yes"/>
      <point x="297" y="1384"/>
      <point x="151" y="1249"/>
      <point x="151" y="1075" type="curve" smooth="yes"/>
      <point x="151" y="902"/>
      <point x="296" y="764"/>
    </contour>
  </outline>
</glyph>
<glyph name="plusminus" format="1">
  <advance width="1595"/>
  <unicode hex="00B1"/>
  <outline>
    <contour>
      <point x="621" y="299" type="line"/>
      <point x="817" y="299" type="line"/>
      <point x="817" y="656" type="line"/>
      <point x="1240" y="656" type="line"/>
      <point x="1240" y="843" type="line"/>
      <point x="817" y="843" type="line"/>
      <point x="817" y="1202" type="line"/>
      <point x="621" y="1202" type="line"/>
      <point x="621" y="843" type="line"/>
      <point x="200" y="843" type="line"/>
      <point x="200" y="656" type="line"/>
      <point x="621" y="656" type="line"/>
    </contour>
    <contour>
      <point x="197" y="0" type="line"/>
      <point x="1239" y="0" type="line"/>
      <point x="1239" y="188" type="line"/>
      <point x="197" y="188" type="line"/>
    </contour>
  </outline>
</glyph>
<glyph name="acute" format="1">
  <advance width="897"/>
  <unicode hex="00B4"/>
  <outline>
    <contour>
      <point x="779" y="1605" type="line"/>
      <point x="428" y="1605" type="line"/>
      <point x="214" y="1239" type="line"/>
      <point x="463" y="1239" type="line"/>
    </contour>
  </outline>
</glyph>
<glyph name="paragraph" format="1">
  <advance width="1343"/>
  <unicode hex="00B6"/>
  <outline>
    <contour>
      <point x="625" y="-379" type="line"/>
      <point x="844" y="-379" type="line"/>
      <point x="844" y="1307" type="line"/>
      <point x="979" y="1307" type="line"/>
      <point x="979" y="-379" type="line"/>
      <point x="1188" y="-379" type="line"/>
      <point x="1188" y="1165" type="line"/>
      <point x="1185" y="1239" type="line"/>
      <point x="1185" y="1485" type="line"/>
      <point x="645" y="1485" type="line" smooth="yes"/>
      <point x="251" y="1485"/>
      <point x="60" y="1311"/>
      <point x="60" y="1056" type="curve" smooth="yes"/>
      <point x="60" y="794"/>
      <point x="255" y="629"/>
      <point x="625" y="622" type="curve"/>
    </contour>
  </outline>
</glyph>
<glyph name="cedilla" format="1">
  <advance width="995"/>
  <unicode hex="00B8"/>
  <outline>
    <contour>
      <point x="428" y="-547" type="curve" smooth="yes"/>
      <point x="625" y="-547"/>
      <point x="741" y="-442"/>
      <point x="756" y="-317" type="curve" smooth="yes"/>
      <point x="756" y="-310"/>
      <point x="756" y="-303"/>
      <point x="757" y="-296" type="curve" smooth="yes"/>
      <point x="757" y="-290"/>
      <point x="756" y="-283"/>
      <point x="756" y="-276" type="curve" smooth="yes"/>
      <point x="750" y="-204"/>
      <point x="706" y="-142"/>
      <point x="616" y="-117" type="curve" smooth="yes"/>
      <point x="583" y="-107"/>
      <point x="542" y="-104"/>
      <point x="499" y="-103" type="curve"/>
      <point x="542" y="2" type="line"/>
      <point x="431" y="2" type="line"/>
      <point x="362" y="-195" type="line"/>
      <point x="380" y="-198"/>
      <point x="397" y="-202"/>
      <point x="413" y="-207" type="curve"/>
      <point x="440" y="-201"/>
      <point x="464" y="-201"/>
      <point x="486" y="-205" type="curve" smooth="yes"/>
      <point x="544" y="-216"/>
      <point x="576" y="-252"/>
      <point x="576" y="-298" type="curve" smooth="yes"/>
      <point x="576" y="-358"/>
      <point x="522" y="-408"/>
      <point x="430" y="-408" type="curve" smooth="yes"/>
      <point x="387" y="-408"/>
      <point x="356" y="-391"/>
      <point x="328" y="-374" type="curve"/>
      <point x="303" y="-374"/>
      <point x="279" y="-369"/>
      <point x="255" y="-363" type="curve"/>
      <point x="225" y="-501" type="line"/>
      <point x="279" y="-527"/>
      <point x="374" y="-547"/>
    </contour>
  </outline>
</glyph>
<glyph name="ordmasculine" format="1">
  <advance width="993"/>
  <unicode hex="00BA"/>
  <outline>
    <contour>
      <point x="514" y="858" type="curve" smooth="yes"/>
      <point x="409" y="858"/>
      <point x="356" y="926"/>
      <point x="356" y="1089" type="curve" smooth="yes"/>
      <point x="356" y="1284"/>
      <point x="432" y="1318"/>
      <point x="509" y="1318" type="curve" smooth="yes"/>
      <point x="609" y="1318"/>
      <point x="660" y="1253"/>
      <point x="660" y="1088" type="curve" smooth="yes"/>
      <point x="660" y="1055"/>
      <point x="662" y="1025"/>
      <point x="663" y="993" type="curve"/>
      <point x="663" y="884"/>
      <point x="592" y="858"/>
    </contour>
    <contour>
      <point x="508" y="672" type="curve" smooth="yes"/>
      <point x="782" y="672"/>
      <point x="944" y="818"/>
      <point x="944" y="1090" type="curve" smooth="yes"/>
      <point x="944" y="1366"/>
      <point x="783" y="1509"/>
      <point x="509" y="1509" type="curve" smooth="yes"/>
      <point x="237" y="1509"/>
      <point x="73" y="1367"/>
      <point x="73" y="1091" type="curve" smooth="yes"/>
      <point x="73" y="819"/>
      <point x="233" y="672"/>
    </contour>
  </outline>
</glyph>
<glyph name="guillemotright" format="1">
  <advance width="1379"/>
  <unicode hex="00BB"/>
  <outline>
    <contour>
      <point x="87" y="175" type="line"/>
      <point x="281" y="322" type="line"/>
      <point x="389" y="412"/>
      <point x="498" y="503"/>
      <point x="606" y="592" type="curve"/>
      <point x="589" y="667" type="line"/>
      <point x="585" y="671"/>
      <point x="578" y="677"/>
      <point x="539" y="708" type="curve" smooth="yes"/>
      <point x="390" y="829"/>
      <point x="242" y="951"/>
      <point x="88" y="1067" type="curve"/>
      <point x="95" y="858" type="line"/>
      <point x="195" y="780"/>
      <point x="296" y="699"/>
      <point x="395" y="620" type="curve"/>
      <point x="89" y="383" type="line"/>
    </contour>
    <contour>
      <point x="674" y="157" type="line"/>
      <point x="845" y="305"/>
      <point x="1019" y="447"/>
      <point x="1193" y="592" type="curve"/>
      <point x="1173" y="671" type="line"/>
      <point x="1146" y="692"/>
      <point x="1119" y="715"/>
      <point x="1098" y="732" type="curve" smooth="yes"/>
      <point x="823" y="958" type="line" smooth="yes"/>
      <point x="771" y="1000"/>
      <point x="719" y="1042"/>
      <point x="667" y="1086" type="curve"/>
      <point x="666" y="871" type="line"/>
      <point x="768" y="789"/>
      <point x="873" y="703"/>
      <point x="975" y="620" type="curve"/>
      <point x="660" y="366" type="line"/>
    </contour>
  </outline>
</glyph>
<glyph name="onequarter" format="1">
  <advance width="1652.0"/>
  <unicode hex="00BC"/>
  <outline>
    <contour>
      <point x="1260.0" y="0.0" type="line"/>
      <point x="1478.0" y="0.0" type="line"/>
      <point x="1478.0" y="128.0" type="line"/>
      <point x="1563.0" y="128.0" type="line"/>
      <point x="1563.0" y="266.0" type="line"/>
      <point x="1478.0" y="266.0" type="line"/>
      <point x="1478.0" y="871.0" type="line"/>
      <point x="1188.0" y="871.0" type="line"/>
      <point x="889.0" y="266.0" type="line"/>
      <point x="889.0" y="128.0" type="line"/>
      <point x="1260.0" y="128.0" type="line"/>
    </contour>
    <contour>
      <point x="360" y="0" type="line"/>
      <point x="495" y="0" type="line"/>
      <point x="1354" y="1521" type="line"/>
      <point x="1217" y="1521" type="line"/>
    </contour>
    <contour>
      <point x="1062.0" y="266.0" type="line"/>
      <point x="1260.0" y="686.0" type="line"/>
      <point x="1260.0" y="266.0" type="line"/>
    </contour>
    <component base="one.superior"/>
  </outline>
</glyph>
<glyph name="onehalf" format="1">
  <advance width="1478"/>
  <unicode hex="00bd"/>
  <outline>
    <contour>
      <point x="240" y="588" type="line" smooth="no"/>
      <point x="240" y="1290" type="line" smooth="no"/>
      <point x="104" y="1200" type="line" smooth="no"/>
      <point x="104" y="1372" type="line" smooth="no"/>
      <point x="240" y="1462" type="line" smooth="no"/>
      <point x="412" y="1462" type="line" smooth="no"/>
      <point x="412" y="588" type="line" smooth="no"/>
    </contour>
    <contour>
      <point x="835" y="0" type="line" smooth="no"/>
      <point x="835" y="147" type="line" smooth="no"/>
      <point x="1195" y="532" type="line" smooth="yes"/>
      <point x="1224" y="563"/>
      <point x="1240" y="592"/>
      <point x="1240" y="631" type="curve" smooth="yes"/>
      <point x="1240" y="692"/>
      <point x="1197" y="735"/>
      <point x="1127" y="735" type="curve" smooth="yes"/>
      <point x="1058" y="735"/>
      <point x="1019" y="686"/>
      <point x="1013" y="608" type="curve" smooth="no"/>
      <point x="841" y="608" type="line" smooth="no"/>
      <point x="841" y="772"/>
      <point x="962" y="883"/>
      <point x="1121" y="883" type="curve" smooth="yes"/>
      <point x="1293" y="883"/>
      <point x="1412" y="770"/>
      <point x="1412" y="631" type="curve" smooth="yes"/>
      <point x="1412" y="573"/>
      <point x="1398" y="522"/>
      <point x="1347" y="467" type="curve" smooth="yes"/>
      <point x="1043" y="147" type="line" smooth="no"/>
      <point x="1412" y="147" type="line" smooth="no"/>
      <point x="1412" y="0" type="line" smooth="no"/>
    </contour>
    <contour>
      <point x="147" y="-35" type="line" smooth="no"/>
      <point x="1031" y="1493" type="line" smooth="no"/>
      <point x="1166" y="1493" type="line" smooth="no"/>
      <point x="283" y="-35" type="line" smooth="no"/>
    </contour>
  </outline>
</glyph>
<glyph name="threequarters" format="1">
  <advance width="1652.0"/>
  <unicode hex="00BE"/>
  <outline>
    <contour>
      <point x="1260.0" y="0.0" type="line"/>
      <point x="1478.0" y="0.0" type="line"/>
      <point x="1478.0" y="128.0" type="line"/>
      <point x="1563.0" y="128.0" type="line"/>
      <point x="1563.0" y="266.0" type="line"/>
      <point x="1478.0" y="266.0" type="line"/>
      <point x="1478.0" y="871.0" type="line"/>
      <point x="1188.0" y="871.0" type="line"/>
      <point x="889.0" y="266.0" type="line"/>
      <point x="889.0" y="128.0" type="line"/>
      <point x="1260.0" y="128.0" type="line"/>
    </contour>
    <contour>
      <point x="360.0" y="0.0" type="line"/>
      <point x="495.0" y="0.0" type="line"/>
      <point x="1354.0" y="1521.0" type="line"/>
      <point x="1217.0" y="1521.0" type="line"/>
    </contour>
    <contour>
      <point x="1062.0" y="266.0" type="line"/>
      <point x="1260.0" y="686.0" type="line"/>
      <point x="1260.0" y="266.0" type="line"/>
    </contour>
    <component base="three.superior"/>
  </outline>
</glyph>
<glyph name="questiondown" format="1">
  <advance width="1153"/>
  <unicode hex="00BF"/>
  <outline>
    <contour>
      <point x="598" y="-168" type="curve" smooth="yes"/>
      <point x="810" y="-168"/>
      <point x="1021" y="-67"/>
      <point x="1069" y="33" type="curve"/>
      <point x="1069" y="267" type="line"/>
      <point x="1052" y="267"/>
      <point x="1037" y="268"/>
      <point x="1020" y="268" type="curve"/>
      <point x="1012" y="274"/>
      <point x="1015" y="280"/>
      <point x="1014" y="280" type="curve" smooth="yes"/>
      <point x="960" y="186"/>
      <point x="803" y="113"/>
      <point x="685" y="113" type="curve" smooth="yes"/>
      <point x="555" y="113"/>
      <point x="465" y="171"/>
      <point x="465" y="291" type="curve" smooth="yes"/>
      <point x="465" y="444"/>
      <point x="665" y="557"/>
      <point x="800" y="607" type="curve"/>
      <point x="824" y="716"/>
      <point x="820" y="832"/>
      <point x="820" y="956" type="curve"/>
      <point x="462" y="956" type="line"/>
      <point x="462" y="763" type="line"/>
      <point x="282" y="644"/>
      <point x="80" y="491"/>
      <point x="80" y="231" type="curve" smooth="yes"/>
      <point x="80" y="-3"/>
      <point x="287" y="-168"/>
    </contour>
    <contour>
      <point x="442" y="1081" type="line"/>
      <point x="501" y="1084"/>
      <point x="558" y="1084"/>
      <point x="616" y="1084" type="curve" smooth="yes"/>
      <point x="690" y="1084"/>
      <point x="764" y="1083"/>
      <point x="839" y="1081" type="curve"/>
      <point x="839" y="1168"/>
      <point x="840" y="1255"/>
      <point x="840" y="1343" type="curve"/>
      <point x="782" y="1343"/>
      <point x="724" y="1342"/>
      <point x="665" y="1342" type="curve" smooth="yes"/>
      <point x="591" y="1342"/>
      <point x="517" y="1342"/>
      <point x="442" y="1344" type="curve"/>
    </contour>
  </outline>
</glyph>
<glyph name="Atilde" format="1">
  <advance width="1404"/>
  <unicode hex="00C3"/>
  <outline>
    <contour>
      <point x="1139" y="1910" type="curve"/>
      <point x="927" y="1910" type="line"/>
      <point x="921" y="1842"/>
      <point x="893" y="1813"/>
      <point x="836" y="1813" type="curve" smooth="yes"/>
      <point x="811" y="1813"/>
      <point x="763" y="1837"/>
      <point x="728" y="1849" type="curve" smooth="yes"/>
      <point x="672" y="1869"/>
      <point x="616" y="1901"/>
      <point x="549" y="1901" type="curve" smooth="yes"/>
      <point x="380" y="1901"/>
      <point x="273" y="1777"/>
      <point x="261" y="1605" type="curve"/>
      <point x="471" y="1605" type="line"/>
      <point x="475" y="1657"/>
      <point x="485" y="1686"/>
      <point x="533" y="1690" type="curve"/>
      <point x="560" y="1700"/>
      <point x="589" y="1696"/>
      <point x="616" y="1685" type="curve"/>
      <point x="643" y="1678"/>
      <point x="672" y="1664"/>
      <point x="702" y="1651" type="curve"/>
      <point x="746" y="1634"/>
      <point x="796" y="1614"/>
      <point x="852" y="1614" type="curve" smooth="yes"/>
      <point x="1029" y="1614"/>
      <point x="1122" y="1717"/>
    </contour>
    <contour>
      <point x="849" y="553" type="line"/>
      <point x="549" y="553" type="line"/>
      <point x="582" y="655"/>
      <point x="611" y="758"/>
      <point x="644" y="861" type="curve" smooth="yes"/>
      <point x="698" y="1030" type="line"/>
      <point x="699" y="1030" type="line"/>
      <point x="753" y="864" type="line"/>
    </contour>
    <contour>
      <point x="-13" y="0" type="line"/>
      <point x="376" y="0" type="line"/>
      <point x="465" y="282" type="line"/>
      <point x="933" y="282" type="line"/>
      <point x="1021" y="0" type="line"/>
      <point x="1417" y="0" type="line"/>
      <point x="894" y="1479" type="line"/>
      <point x="509" y="1479" type="line"/>
    </contour>
  </outline>
</glyph>
<glyph name="Aring" format="1">
  <advance width="1404"/>
  <unicode hex="00C5"/>
  <outline>
    <contour>
      <point x="823" y="1702" type="curve" smooth="yes"/>
      <point x="823" y="1633"/>
      <point x="772" y="1576"/>
      <point x="703" y="1576" type="curve" smooth="yes"/>
      <point x="631" y="1576"/>
      <point x="581" y="1630"/>
      <point x="581" y="1702" type="curve" smooth="yes"/>
      <point x="581" y="1774"/>
      <point x="634" y="1829"/>
      <point x="703" y="1829" type="curve" smooth="yes"/>
      <point x="772" y="1829"/>
      <point x="823" y="1770"/>
    </contour>
    <contour>
      <point x="975" y="1702" type="curve" smooth="yes"/>
      <point x="975" y="1850"/>
      <point x="853" y="1963"/>
      <point x="702" y="1963" type="curve" smooth="yes"/>
      <point x="552" y="1963"/>
      <point x="429" y="1849"/>
      <point x="429" y="1703" type="curve" smooth="yes"/>
      <point x="429" y="1558"/>
      <point x="549" y="1443"/>
      <point x="703" y="1443" type="curve" smooth="yes"/>
      <point x="854" y="1443"/>
      <point x="975" y="1555"/>
    </contour>
    <contour>
      <point x="849" y="553" type="line"/>
      <point x="549" y="553" type="line"/>
      <point x="582" y="655"/>
      <point x="611" y="758"/>
      <point x="644" y="861" type="curve" smooth="yes"/>
      <point x="698" y="1030" type="line"/>
      <point x="699" y="1030" type="line"/>
      <point x="753" y="864" type="line"/>
    </contour>
    <contour>
      <point x="-13" y="0" type="line"/>
      <point x="376" y="0" type="line"/>
      <point x="465" y="282" type="line"/>
      <point x="933" y="282" type="line"/>
      <point x="1021" y="0" type="line"/>
      <point x="1417" y="0" type="line"/>
      <point x="894" y="1479" type="line"/>
      <point x="509" y="1479" type="line"/>
    </contour>
  </outline>
</glyph>
<glyph name="AE" format="1">
  <advance width="2062"/>
  <unicode hex="00C6"/>
  <outline>
    <contour>
      <point x="-30" y="0" type="line"/>
      <point x="368" y="0" type="line"/>
      <point x="507" y="338" type="line"/>
      <point x="932" y="338" type="line"/>
      <point x="932" y="0" type="line"/>
      <point x="1979" y="0" type="line"/>
      <point x="1979" y="287" type="line"/>
      <point x="1317" y="287" type="line"/>
      <point x="1317" y="638" type="line"/>
      <point x="1895" y="638" type="line"/>
      <point x="1895" y="921" type="line"/>
      <point x="1317" y="921" type="line"/>
      <point x="1317" y="1198" type="line"/>
      <point x="1980" y="1198" type="line"/>
      <point x="1980" y="1485" type="line"/>
      <point x="617" y="1485" type="line"/>
    </contour>
    <contour>
      <point x="621" y="619" type="line"/>
      <point x="873" y="1213" type="line"/>
      <point x="932" y="1213" type="line"/>
      <point x="932" y="619" type="line"/>
    </contour>
    <contour>
      <point x="1031" y="1574" type="move" name="top"/>
    </contour>
  </outline>
</glyph>
<glyph name="AE" format="1">
  <advance width="2054"/>
  <unicode hex="00c6"/>
  <outline>
    <contour>
      <point x="1971" y="0" type="line" smooth="no"/>
      <point x="928" y="0" type="line" smooth="no"/>
      <point x="928" y="337" type="line" smooth="no"/>
      <point x="505" y="337" type="line" smooth="no"/>
      <point x="367" y="0" type="line" smooth="no"/>
      <point x="-30" y="0" type="line" smooth="no"/>
      <point x="615" y="1479" type="line" smooth="no"/>
      <point x="1972" y="1479" type="line" smooth="no"/>
      <point x="1972" y="1193" type="line" smooth="no"/>
      <point x="1312" y="1193" type="line" smooth="no"/>
      <point x="1312" y="917" type="line" smooth="no"/>
      <point x="1887" y="917" type="line" smooth="no"/>
      <point x="1887" y="635" type="line" smooth="no"/>
      <point x="1312" y="635" type="line" smooth="no"/>
      <point x="1312" y="286" type="line" smooth="no"/>
      <point x="1971" y="286" type="line" smooth="no"/>
    </contour>
    <contour>
      <point x="928" y="617" type="line" smooth="no"/>
      <point x="928" y="1208" type="line" smooth="no"/>
      <point x="870" y="1208" type="line" smooth="no"/>
      <point x="619" y="617" type="line" smooth="no"/>
    </contour>
  </outline>
</glyph>
<glyph name="Ccedilla" format="1">
  <advance width="1325"/>
  <unicode hex="00C7"/>
  <outline>
    <contour>
      <point x="471" y="-180" type="line"/>
      <point x="516" y="-219" type="line"/>
      <point x="543" y="-203"/>
      <point x="567" y="-197"/>
      <point x="594" y="-197" type="curve" smooth="yes"/>
      <point x="649" y="-197"/>
      <point x="694" y="-221"/>
      <point x="694" y="-272" type="curve" smooth="yes"/>
      <point x="694" y="-334"/>
      <point x="645" y="-358"/>
      <point x="575" y="-358" type="curve" smooth="yes"/>
      <point x="526" y="-358"/>
      <point x="477" y="-344"/>
      <point x="432" y="-328" type="curve"/>
      <point x="395" y="-414" type="line"/>
      <point x="463" y="-440"/>
      <point x="539" y="-463"/>
      <point x="602" y="-463" type="curve" smooth="yes"/>
      <point x="735" y="-463"/>
      <point x="854" y="-401"/>
      <point x="854" y="-270" type="curve" smooth="yes"/>
      <point x="854" y="-186"/>
      <point x="786" y="-115"/>
      <point x="674" y="-115" type="curve" smooth="yes"/>
      <point x="653" y="-115"/>
      <point x="631" y="-119"/>
      <point x="618" y="-123" type="curve"/>
      <point x="614" y="-123" type="line"/>
      <point x="700" y="-8" type="line"/>
      <point x="918" y="20"/>
      <point x="1085" y="164"/>
      <point x="1137" y="408" type="curve"/>
      <point x="903" y="408" type="line"/>
      <point x="842" y="276"/>
      <point x="748" y="209"/>
      <point x="625" y="209" type="curve" smooth="yes"/>
      <point x="520" y="209"/>
      <point x="444" y="258"/>
      <point x="399" y="315" type="curve" smooth="yes"/>
      <point x="342" y="389"/>
      <point x="326" y="430"/>
      <point x="326" y="729" type="curve" smooth="yes"/>
      <point x="326" y="1028"/>
      <point x="342" y="1069"/>
      <point x="399" y="1143" type="curve" smooth="yes"/>
      <point x="444" y="1200"/>
      <point x="520" y="1249"/>
      <point x="625" y="1249" type="curve" smooth="yes"/>
      <point x="764" y="1249"/>
      <point x="868" y="1151"/>
      <point x="903" y="1038" type="curve"/>
      <point x="1137" y="1038" type="line"/>
      <point x="1092" y="1276"/>
      <point x="901" y="1470"/>
      <point x="625" y="1470" type="curve" smooth="yes"/>
      <point x="395" y="1470"/>
      <point x="238" y="1335"/>
      <point x="168" y="1208" type="curve" smooth="yes"/>
      <point x="121" y="1122"/>
      <point x="104" y="1079"/>
      <point x="104" y="729" type="curve" smooth="yes"/>
      <point x="104" y="379"/>
      <point x="121" y="336"/>
      <point x="168" y="250" type="curve"/>
      <point x="236" y="129"/>
      <point x="381" y="0"/>
      <point x="594" y="-12" type="curve"/>
    </contour>
  </outline>
</glyph>
<glyph name="Iacute" format="1">
  <advance width="908"/>
  <unicode hex="00CD"/>
  <outline>
    <contour>
      <point x="763" y="1967" type="line"/>
      <point x="412" y="1967" type="line"/>
      <point x="198" y="1601" type="line"/>
      <point x="447" y="1601" type="line"/>
    </contour>
    <contour>
      <point x="799" y="0" type="line"/>
      <point x="799" y="256" type="line"/>
      <point x="646" y="319" type="line"/>
      <point x="646" y="1129" type="line"/>
      <point x="799" y="1192" type="line"/>
      <point x="799" y="1479" type="line"/>
      <point x="109" y="1479" type="line"/>
      <point x="109" y="1222" type="line"/>
      <point x="262" y="1160" type="line"/>
      <point x="262" y="350" type="line"/>
      <point x="109" y="287" type="line"/>
      <point x="109" y="0" type="line"/>
    </contour>
  </outline>
</glyph>
<glyph name="Eth" format="1">
  <advance width="1296"/>
  <unicode hex="00D0"/>
  <outline>
    <contour>
      <point x="0" y="640" type="line"/>
      <point x="707" y="640" type="line"/>
      <point x="707" y="837" type="line"/>
      <point x="0" y="837" type="line"/>
    </contour>
    <component base="D"/>
  </outline>
</glyph>
<glyph name="Eth" format="1">
  <advance width="1290"/>
  <unicode hex="00D0"/>
  <outline>
    <contour>
      <point x="154" y="0" type="line"/>
      <point x="649" y="0" type="line" smooth="yes"/>
      <point x="866" y="0"/>
      <point x="1018" y="106"/>
      <point x="1104" y="242" type="curve" smooth="yes"/>
      <point x="1169" y="344"/>
      <point x="1186" y="401"/>
      <point x="1186" y="729" type="curve" smooth="yes"/>
      <point x="1186" y="1034"/>
      <point x="1180" y="1090"/>
      <point x="1108" y="1212" type="curve" smooth="yes"/>
      <point x="1014" y="1372"/>
      <point x="856" y="1458"/>
      <point x="664" y="1458" type="curve" smooth="yes"/>
      <point x="154" y="1458" type="line"/>
      <point x="154" y="834" type="line"/>
      <point x="0" y="834" type="line"/>
      <point x="0" y="637" type="line"/>
      <point x="154" y="637" type="line"/>
    </contour>
    <contour>
      <point x="375" y="834" type="line"/>
      <point x="375" y="1249" type="line"/>
      <point x="639" y="1249" type="line" smooth="yes"/>
      <point x="758" y="1249"/>
      <point x="831" y="1219"/>
      <point x="899" y="1126" type="curve" smooth="yes"/>
      <point x="958" y="1047"/>
      <point x="965" y="983"/>
      <point x="965" y="721" type="curve" smooth="yes"/>
      <point x="965" y="451"/>
      <point x="958" y="410"/>
      <point x="909" y="336" type="curve"/>
      <point x="852" y="252"/>
      <point x="764" y="209"/>
      <point x="639" y="209" type="curve" smooth="yes"/>
      <point x="375" y="209" type="line"/>
      <point x="375" y="637" type="line"/>
      <point x="653" y="637" type="line"/>
      <point x="653" y="834" type="line"/>
    </contour>
  </outline>
</glyph>
<glyph name="Ograve" format="1">
  <advance width="1513"/>
  <unicode hex="00D2"/>
  <outline>
    <contour>
      <point x="997" y="1607" type="line"/>
      <point x="781" y="1973" type="line"/>
      <point x="431" y="1973" type="line"/>
      <point x="748" y="1607" type="line"/>
    </contour>
    <contour>
      <point x="757" y="264" type="curve" smooth="yes"/>
      <point x="679" y="264"/>
      <point x="606" y="297"/>
      <point x="553" y="360" type="curve"/>
      <point x="496" y="430"/>
      <point x="464" y="517"/>
      <point x="464" y="739" type="curve" smooth="yes"/>
      <point x="464" y="963"/>
      <point x="497" y="1050"/>
      <point x="554" y="1119" type="curve" smooth="yes"/>
      <point x="607" y="1183"/>
      <point x="682" y="1215"/>
      <point x="757" y="1215" type="curve" smooth="yes"/>
      <point x="835" y="1215"/>
      <point x="908" y="1181"/>
      <point x="961" y="1116" type="curve" smooth="yes"/>
      <point x="1017" y="1046"/>
      <point x="1049" y="960"/>
      <point x="1049" y="740" type="curve" smooth="yes"/>
      <point x="1049" y="531"/>
      <point x="1021" y="445"/>
      <point x="966" y="371" type="curve" smooth="yes"/>
      <point x="916" y="304"/>
      <point x="842" y="264"/>
    </contour>
    <contour>
      <point x="756" y="-24" type="curve" smooth="yes"/>
      <point x="997" y="-24"/>
      <point x="1178" y="75"/>
      <point x="1288" y="208" type="curve"/>
      <point x="1390" y="325"/>
      <point x="1442" y="465"/>
      <point x="1442" y="740" type="curve" smooth="yes"/>
      <point x="1442" y="1018"/>
      <point x="1389" y="1157"/>
      <point x="1286" y="1274" type="curve"/>
      <point x="1176" y="1406"/>
      <point x="994" y="1503"/>
      <point x="756" y="1503" type="curve" smooth="yes"/>
      <point x="517" y="1503"/>
      <point x="337" y="1406"/>
      <point x="226" y="1274" type="curve"/>
      <point x="123" y="1157"/>
      <point x="70" y="1018"/>
      <point x="70" y="740" type="curve" smooth="yes"/>
      <point x="70" y="465"/>
      <point x="122" y="326"/>
      <point x="224" y="208" type="curve"/>
      <point x="334" y="75"/>
      <point x="515" y="-24"/>
    </contour>
  </outline>
</glyph>
<glyph name="Odieresis" format="1">
  <advance width="1513"/>
  <unicode hex="00D6"/>
  <outline>
    <contour>
      <point x="668" y="1608" type="curve"/>
      <point x="668" y="1701"/>
      <point x="668" y="1794"/>
      <point x="669" y="1887" type="curve"/>
      <point x="637" y="1886"/>
      <point x="606" y="1886"/>
      <point x="574" y="1886" type="curve" smooth="yes"/>
      <point x="549" y="1886" type="line" smooth="yes"/>
      <point x="489" y="1886"/>
      <point x="431" y="1887"/>
      <point x="368" y="1889" type="curve"/>
      <point x="368" y="1608" type="line"/>
      <point x="409" y="1611"/>
      <point x="447" y="1611"/>
      <point x="485" y="1611" type="curve" smooth="yes"/>
      <point x="546" y="1611"/>
      <point x="605" y="1609"/>
    </contour>
    <contour>
      <point x="1145" y="1608" type="curve"/>
      <point x="1145" y="1887" type="line"/>
      <point x="1097" y="1886"/>
      <point x="1050" y="1886"/>
      <point x="1001" y="1886" type="curve" smooth="yes"/>
      <point x="951" y="1886"/>
      <point x="899" y="1887"/>
      <point x="845" y="1889" type="curve"/>
      <point x="845" y="1608" type="line"/>
      <point x="894" y="1610"/>
      <point x="940" y="1611"/>
      <point x="985" y="1611" type="curve" smooth="yes"/>
      <point x="1038" y="1611"/>
      <point x="1090" y="1610"/>
    </contour>
    <contour>
      <point x="757" y="264" type="curve" smooth="yes"/>
      <point x="679" y="264"/>
      <point x="606" y="297"/>
      <point x="553" y="360" type="curve"/>
      <point x="496" y="430"/>
      <point x="464" y="517"/>
      <point x="464" y="739" type="curve" smooth="yes"/>
      <point x="464" y="963"/>
      <point x="497" y="1050"/>
      <point x="554" y="1119" type="curve" smooth="yes"/>
      <point x="607" y="1183"/>
      <point x="682" y="1215"/>
      <point x="757" y="1215" type="curve" smooth="yes"/>
      <point x="835" y="1215"/>
      <point x="908" y="1181"/>
      <point x="961" y="1116" type="curve" smooth="yes"/>
      <point x="1017" y="1046"/>
      <point x="1049" y="960"/>
      <point x="1049" y="740" type="curve" smooth="yes"/>
      <point x="1049" y="531"/>
      <point x="1021" y="445"/>
      <point x="966" y="371" type="curve" smooth="yes"/>
      <point x="916" y="304"/>
      <point x="842" y="264"/>
    </contour>
    <contour>
      <point x="756" y="-24" type="curve" smooth="yes"/>
      <point x="997" y="-24"/>
      <point x="1178" y="75"/>
      <point x="1288" y="208" type="curve"/>
      <point x="1390" y="325"/>
      <point x="1442" y="465"/>
      <point x="1442" y="740" type="curve" smooth="yes"/>
      <point x="1442" y="1018"/>
      <point x="1389" y="1157"/>
      <point x="1286" y="1274" type="curve"/>
      <point x="1176" y="1406"/>
      <point x="994" y="1503"/>
      <point x="756" y="1503" type="curve" smooth="yes"/>
      <point x="517" y="1503"/>
      <point x="337" y="1406"/>
      <point x="226" y="1274" type="curve"/>
      <point x="123" y="1157"/>
      <point x="70" y="1018"/>
      <point x="70" y="740" type="curve" smooth="yes"/>
      <point x="70" y="465"/>
      <point x="122" y="326"/>
      <point x="224" y="208" type="curve"/>
      <point x="334" y="75"/>
      <point x="515" y="-24"/>
    </contour>
  </outline>
</glyph>
<glyph name="Oslash" format="1">
  <advance width="1611"/>
  <unicode hex="00D8"/>
  <outline>
    <contour>
      <point x="807" y="-25" type="curve" smooth="yes"/>
      <point x="1295" y="-25"/>
      <point x="1536" y="271"/>
      <point x="1536" y="788" type="curve" smooth="yes"/>
      <point x="1536" y="1069"/>
      <point x="1466" y="1282"/>
      <point x="1327" y="1419" type="curve"/>
      <point x="1441" y="1600" type="line"/>
      <point x="1232" y="1600" type="line"/>
      <point x="1183" y="1522" type="line"/>
      <point x="1080" y="1573"/>
      <point x="955" y="1600"/>
      <point x="807" y="1600" type="curve" smooth="yes"/>
      <point x="320" y="1600"/>
      <point x="75" y="1310"/>
      <point x="75" y="788" type="curve" smooth="yes"/>
      <point x="75" y="496"/>
      <point x="153" y="274"/>
      <point x="308" y="137" type="curve"/>
      <point x="205" y="-26" type="line"/>
      <point x="412" y="-26" type="line"/>
      <point x="455" y="42" type="line"/>
      <point x="554" y="-2"/>
      <point x="671" y="-25"/>
    </contour>
    <contour>
      <point x="529" y="488" type="line"/>
      <point x="504" y="567"/>
      <point x="494" y="668"/>
      <point x="494" y="787" type="curve" smooth="yes"/>
      <point x="494" y="1108"/>
      <point x="568" y="1293"/>
      <point x="808" y="1293" type="curve" smooth="yes"/>
      <point x="889" y="1293"/>
      <point x="951" y="1271"/>
      <point x="998" y="1229" type="curve"/>
    </contour>
    <contour>
      <point x="808" y="281" type="curve" smooth="yes"/>
      <point x="737" y="281"/>
      <point x="681" y="297"/>
      <point x="636" y="328" type="curve"/>
      <point x="1093" y="1050" type="line"/>
      <point x="1111" y="977"/>
      <point x="1118" y="889"/>
      <point x="1118" y="788" type="curve" smooth="yes"/>
      <point x="1118" y="481"/>
      <point x="1050" y="281"/>
    </contour>
    <contour>
      <point x="760" y="1574" type="move"/>
    </contour>
    <contour>
      <point x="806" y="1574" type="move" name="top"/>
    </contour>
  </outline>
</glyph>
<glyph name="Oslash" format="1">
  <advance width="1513"/>
  <unicode hex="00D8"/>
  <outline>
    <contour>
      <point x="773" y="255" type="curve" smooth="yes"/>
      <point x="701" y="255"/>
      <point x="642" y="277"/>
      <point x="590" y="319" type="curve"/>
      <point x="1027" y="1025" type="line"/>
      <point x="1044" y="972"/>
      <point x="1056" y="867"/>
      <point x="1056" y="740" type="curve" smooth="yes"/>
      <point x="1056" y="557"/>
      <point x="1054" y="496"/>
      <point x="1046" y="399" type="curve"/>
      <point x="987" y="307"/>
      <point x="883" y="255"/>
    </contour>
    <contour>
      <point x="757" y="1219" type="curve" smooth="yes"/>
      <point x="810" y="1219"/>
      <point x="872" y="1200"/>
      <point x="917" y="1166" type="curve"/>
      <point x="481" y="462" type="line"/>
      <point x="461" y="522"/>
      <point x="454" y="599"/>
      <point x="454" y="734" type="curve" smooth="yes"/>
      <point x="454" y="957"/>
      <point x="486" y="1044"/>
      <point x="541" y="1116" type="curve"/>
      <point x="596" y="1185"/>
      <point x="675" y="1219"/>
    </contour>
    <contour>
      <point x="756" y="-24" type="curve" smooth="yes"/>
      <point x="1038" y="-24"/>
      <point x="1241" y="104"/>
      <point x="1346" y="281" type="curve" smooth="yes"/>
      <point x="1412" y="391"/>
      <point x="1443" y="503"/>
      <point x="1443" y="739" type="curve" smooth="yes"/>
      <point x="1443" y="1071"/>
      <point x="1371" y="1199"/>
      <point x="1235" y="1327" type="curve"/>
      <point x="1386" y="1561" type="line"/>
      <point x="1178" y="1572" type="line"/>
      <point x="1089" y="1427" type="line"/>
      <point x="989" y="1477"/>
      <point x="877" y="1503"/>
      <point x="756" y="1503" type="curve" smooth="yes"/>
      <point x="505" y="1503"/>
      <point x="316" y="1398"/>
      <point x="204" y="1252" type="curve" smooth="yes"/>
      <point x="116" y="1136"/>
      <point x="70" y="1005"/>
      <point x="70" y="740" type="curve" smooth="yes"/>
      <point x="70" y="412"/>
      <point x="141" y="284"/>
      <point x="273" y="156" type="curve"/>
      <point x="105" y="-101" type="line"/>
      <point x="311" y="-112" type="line"/>
      <point x="416" y="56" type="line"/>
      <point x="513" y="6"/>
      <point x="631" y="-24"/>
    </contour>
  </outline>
</glyph>
<glyph name="Ucircumflex" format="1">
  <advance width="1498"/>
  <unicode hex="00DB"/>
  <outline>
    <contour>
      <point x="1170" y="1609" type="line"/>
      <point x="864" y="1973" type="line"/>
      <point x="613" y="1973" type="line"/>
      <point x="308" y="1609" type="line"/>
      <point x="581" y="1609" type="line"/>
      <point x="737" y="1797" type="line"/>
      <point x="893" y="1609" type="line"/>
    </contour>
    <contour>
      <point x="1375" y="1479" type="line"/>
      <point x="991" y="1479" type="line"/>
      <point x="991" y="538" type="line" smooth="yes"/>
      <point x="991" y="352"/>
      <point x="902" y="267"/>
      <point x="749" y="267" type="curve" smooth="yes"/>
      <point x="589" y="267"/>
      <point x="507" y="357"/>
      <point x="507" y="537" type="curve" smooth="yes"/>
      <point x="507" y="1479" type="line"/>
      <point x="123" y="1479" type="line"/>
      <point x="123" y="505" type="line" smooth="yes"/>
      <point x="123" y="170"/>
      <point x="370" y="-24"/>
      <point x="749" y="-24" type="curve" smooth="yes"/>
      <point x="1144" y="-24"/>
      <point x="1375" y="177"/>
      <point x="1375" y="506" type="curve" smooth="yes"/>
    </contour>
  </outline>
</glyph>
<glyph name="Thorn" format="1">
  <advance width="1219"/>
  <unicode hex="00DE"/>
  <outline>
    <contour>
      <point x="155" y="0" type="line"/>
      <point x="376" y="0" type="line"/>
      <point x="376" y="317" type="line"/>
      <point x="715" y="317" type="line" smooth="yes"/>
      <point x="1015" y="317"/>
      <point x="1173" y="550"/>
      <point x="1173" y="764" type="curve" smooth="yes"/>
      <point x="1173" y="978"/>
      <point x="1015" y="1211"/>
      <point x="715" y="1211" type="curve" smooth="yes"/>
      <point x="376" y="1211" type="line"/>
      <point x="376" y="1464" type="line"/>
      <point x="155" y="1464" type="line"/>
    </contour>
    <contour>
      <point x="376" y="527" type="line"/>
      <point x="376" y="1001" type="line"/>
      <point x="709" y="1001" type="line" smooth="yes"/>
      <point x="861" y="1001"/>
      <point x="951" y="874"/>
      <point x="951" y="764" type="curve" smooth="yes"/>
      <point x="951" y="653"/>
      <point x="861" y="527"/>
      <point x="711" y="527" type="curve" smooth="yes"/>
    </contour>
  </outline>
</glyph>
<glyph name="germandbls" format="1">
  <advance width="1315"/>
  <unicode hex="00DF"/>
  <outline>
    <contour>
      <point x="747" y="-6" type="curve" smooth="yes"/>
      <point x="1116" y="-6"/>
      <point x="1323" y="169"/>
      <point x="1323" y="488" type="curve" smooth="yes"/>
      <point x="1323" y="661"/>
      <point x="1171" y="866"/>
      <point x="923" y="916" type="curve"/>
      <point x="923" y="916"/>
      <point x="923" y="929"/>
      <point x="923" y="929" type="curve"/>
      <point x="1065" y="952"/>
      <point x="1195" y="1074"/>
      <point x="1195" y="1238" type="curve" smooth="yes"/>
      <point x="1195" y="1448"/>
      <point x="994" y="1599"/>
      <point x="664" y="1599" type="curve" smooth="yes"/>
      <point x="304" y="1599"/>
      <point x="124" y="1419"/>
      <point x="124" y="1096" type="curve" smooth="yes"/>
      <point x="124" y="0" type="line"/>
      <point x="485" y="0" type="line"/>
      <point x="485" y="1121" type="line" smooth="yes"/>
      <point x="485.0" y="1246.50253657"/>
      <point x="517.945781166" y="1345.0"/>
      <point x="685" y="1345" type="curve" smooth="yes"/>
      <point x="797" y="1345"/>
      <point x="843" y="1298"/>
      <point x="843" y="1197" type="curve" smooth="yes"/>
      <point x="843" y="1061"/>
      <point x="741" y="1036"/>
      <point x="638" y="1036" type="curve"/>
      <point x="638" y="762" type="line"/>
      <point x="835" y="762"/>
      <point x="958" y="645"/>
      <point x="958" y="503" type="curve" smooth="yes"/>
      <point x="958" y="348"/>
      <point x="863" y="272"/>
      <point x="678" y="272" type="curve" smooth="yes"/>
      <point x="666" y="272"/>
      <point x="654" y="271"/>
      <point x="642" y="272" type="curve"/>
      <point x="642" y="-1" type="line"/>
      <point x="687" y="-2"/>
      <point x="727" y="-6"/>
    </contour>
  </outline>
</glyph>
<glyph name="adieresis" format="1">
  <advance width="1204"/>
  <unicode hex="00E4"/>
  <outline>
    <contour>
      <point x="513" y="1246" type="curve"/>
      <point x="513" y="1339"/>
      <point x="513" y="1432"/>
      <point x="514" y="1525" type="curve"/>
      <point x="482" y="1524"/>
      <point x="451" y="1524"/>
      <point x="419" y="1524" type="curve" smooth="yes"/>
      <point x="394" y="1524" type="line" smooth="yes"/>
      <point x="334" y="1524"/>
      <point x="276" y="1525"/>
      <point x="214" y="1527" type="curve"/>
      <point x="214" y="1246" type="line"/>
      <point x="254" y="1249"/>
      <point x="292" y="1250"/>
      <point x="330" y="1250" type="curve" smooth="yes"/>
      <point x="391" y="1250"/>
      <point x="451" y="1248"/>
    </contour>
    <contour>
      <point x="991" y="1246" type="curve"/>
      <point x="991" y="1525" type="line"/>
      <point x="940" y="1524"/>
      <point x="890" y="1524"/>
      <point x="838" y="1524" type="curve" smooth="yes"/>
      <point x="791" y="1524"/>
      <point x="742" y="1525"/>
      <point x="691" y="1527" type="curve"/>
      <point x="691" y="1246" type="line"/>
      <point x="742" y="1248"/>
      <point x="790" y="1250"/>
      <point x="839" y="1250" type="curve" smooth="yes"/>
      <point x="889" y="1250"/>
      <point x="938" y="1248"/>
    </contour>
    <contour>
      <point x="750" y="503" type="curve"/>
      <point x="750" y="268"/>
      <point x="664" y="227"/>
      <point x="562" y="227" type="curve" smooth="yes"/>
      <point x="470" y="227"/>
      <point x="418" y="273"/>
      <point x="418" y="351" type="curve" smooth="yes"/>
      <point x="418" y="490"/>
      <point x="548" y="487"/>
    </contour>
    <contour>
      <point x="1108" y="0" type="line"/>
      <point x="1108" y="748" type="line" smooth="yes"/>
      <point x="1108" y="1005"/>
      <point x="934" y="1120"/>
      <point x="553" y="1120" type="curve" smooth="yes"/>
      <point x="387" y="1120"/>
      <point x="213" y="1082"/>
      <point x="142" y="1031" type="curve"/>
      <point x="201" y="790" type="line"/>
      <point x="219" y="804"/>
      <point x="239" y="813"/>
      <point x="265" y="816" type="curve"/>
      <point x="320" y="835"/>
      <point x="388" y="852"/>
      <point x="453" y="862" type="curve"/>
      <point x="517" y="867"/>
      <point x="555" y="862"/>
      <point x="580" y="846" type="curve"/>
      <point x="699" y="834"/>
      <point x="750" y="792"/>
      <point x="750" y="695" type="curve"/>
      <point x="678" y="695"/>
      <point x="607" y="695"/>
      <point x="537" y="693" type="curve"/>
      <point x="250" y="679"/>
      <point x="61" y="564"/>
      <point x="61" y="316" type="curve" smooth="yes"/>
      <point x="61" y="134"/>
      <point x="190" y="-6"/>
      <point x="378" y="-19" type="curve"/>
      <point x="438" y="-22"/>
      <point x="490" y="-15"/>
      <point x="536" y="-2" type="curve"/>
      <point x="646" y="23"/>
      <point x="706" y="78"/>
      <point x="748" y="148" type="curve" smooth="yes"/>
      <point x="750" y="148" type="line"/>
      <point x="750" y="0" type="line"/>
    </contour>
  </outline>
</glyph>
<glyph name="ae" format="1">
  <advance width="1884"/>
  <unicode hex="00E6"/>
  <outline>
    <contour>
      <point x="1354" y="-27" type="curve" smooth="yes"/>
      <point x="1611" y="-27"/>
      <point x="1729" y="35"/>
      <point x="1821" y="96" type="curve"/>
      <point x="1766" y="352" type="line"/>
      <point x="1734" y="330"/>
      <point x="1693" y="316"/>
      <point x="1656" y="316" type="curve"/>
      <point x="1611" y="285"/>
      <point x="1516" y="233"/>
      <point x="1405" y="233" type="curve" smooth="yes"/>
      <point x="1236" y="233"/>
      <point x="1105" y="289"/>
      <point x="1092" y="462" type="curve"/>
      <point x="1839" y="462" type="line"/>
      <point x="1839" y="617" type="line" smooth="yes"/>
      <point x="1839" y="939"/>
      <point x="1650" y="1131"/>
      <point x="1313" y="1131" type="curve" smooth="yes"/>
      <point x="1180" y="1131"/>
      <point x="1027" y="1074"/>
      <point x="949" y="1013" type="curve"/>
      <point x="857" y="1083"/>
      <point x="716" y="1128"/>
      <point x="528" y="1128" type="curve" smooth="yes"/>
      <point x="365" y="1128"/>
      <point x="185" y="1087"/>
      <point x="114" y="1037" type="curve"/>
      <point x="175" y="796" type="line"/>
      <point x="187" y="803"/>
      <point x="201" y="808"/>
      <point x="215" y="812" type="curve"/>
      <point x="297" y="851"/>
      <point x="403" y="878"/>
      <point x="481" y="878" type="curve" smooth="yes"/>
      <point x="685" y="878"/>
      <point x="729" y="821"/>
      <point x="729" y="721" type="curve"/>
      <point x="677" y="711"/>
      <point x="627" y="699"/>
      <point x="578" y="688" type="curve"/>
      <point x="508" y="683"/>
      <point x="438" y="678"/>
      <point x="371" y="671" type="curve"/>
      <point x="154" y="640"/>
      <point x="33" y="518"/>
      <point x="33" y="319" type="curve" smooth="yes"/>
      <point x="33" y="100"/>
      <point x="191" y="-24"/>
      <point x="487" y="-24" type="curve" smooth="yes"/>
      <point x="649" y="-24"/>
      <point x="783" y="32"/>
      <point x="872" y="136" type="curve"/>
      <point x="1005" y="9"/>
      <point x="1104" y="-27"/>
    </contour>
    <contour>
      <point x="561" y="222" type="curve" smooth="yes"/>
      <point x="437" y="222"/>
      <point x="392" y="267"/>
      <point x="392" y="346" type="curve" smooth="yes"/>
      <point x="392" y="472"/>
      <point x="547" y="469"/>
      <point x="739" y="481" type="curve"/>
      <point x="742" y="438"/>
      <point x="747" y="389"/>
      <point x="767" y="333" type="curve"/>
      <point x="745" y="253"/>
      <point x="673" y="222"/>
    </contour>
    <contour>
      <point x="1090" y="678" type="line"/>
      <point x="1089" y="813"/>
      <point x="1163" y="897"/>
      <point x="1290" y="897" type="curve" smooth="yes"/>
      <point x="1407" y="897"/>
      <point x="1478" y="825"/>
      <point x="1480" y="678" type="curve"/>
    </contour>
    <contour>
      <point x="942" y="1098" type="move" name="top"/>
    </contour>
  </outline>
</glyph>
<glyph name="ccedilla" format="1">
  <advance width="1068"/>
  <unicode hex="00E7"/>
  <outline>
    <contour>
      <point x="367" y="-180" type="line"/>
      <point x="412" y="-219" type="line"/>
      <point x="438" y="-203"/>
      <point x="463" y="-197"/>
      <point x="489" y="-197" type="curve" smooth="yes"/>
      <point x="545" y="-197"/>
      <point x="590" y="-221"/>
      <point x="590" y="-272" type="curve" smooth="yes"/>
      <point x="590" y="-334"/>
      <point x="541" y="-358"/>
      <point x="471" y="-358" type="curve" smooth="yes"/>
      <point x="422" y="-358"/>
      <point x="373" y="-344"/>
      <point x="328" y="-328" type="curve"/>
      <point x="291" y="-414" type="line"/>
      <point x="358" y="-440"/>
      <point x="434" y="-463"/>
      <point x="498" y="-463" type="curve" smooth="yes"/>
      <point x="631" y="-463"/>
      <point x="750" y="-401"/>
      <point x="750" y="-270" type="curve" smooth="yes"/>
      <point x="750" y="-186"/>
      <point x="682" y="-115"/>
      <point x="569" y="-115" type="curve" smooth="yes"/>
      <point x="549" y="-115"/>
      <point x="526" y="-119"/>
      <point x="514" y="-123" type="curve"/>
      <point x="510" y="-123" type="line"/>
      <point x="596" y="-10" type="line"/>
      <point x="721" y="10"/>
      <point x="823" y="80"/>
      <point x="899" y="168" type="curve"/>
      <point x="745" y="305" type="line"/>
      <point x="694" y="242"/>
      <point x="621" y="197"/>
      <point x="535" y="197" type="curve" smooth="yes"/>
      <point x="365" y="197"/>
      <point x="264" y="293"/>
      <point x="264" y="518" type="curve" smooth="yes"/>
      <point x="264" y="745"/>
      <point x="365" y="842"/>
      <point x="535" y="842" type="curve" smooth="yes"/>
      <point x="621" y="842"/>
      <point x="694" y="797"/>
      <point x="745" y="733" type="curve"/>
      <point x="899" y="870" type="line"/>
      <point x="809" y="975"/>
      <point x="684" y="1051"/>
      <point x="526" y="1051" type="curve" smooth="yes"/>
      <point x="287" y="1051"/>
      <point x="55" y="899"/>
      <point x="55" y="518" type="curve" smooth="yes"/>
      <point x="55" y="158"/>
      <point x="264" y="4"/>
      <point x="489" y="-12" type="curve"/>
    </contour>
  </outline>
</glyph>
<glyph name="icircumflex" format="1">
  <advance width="614"/>
  <unicode hex="00EE"/>
  <outline>
    <contour>
      <point x="738" y="1241" type="line"/>
      <point x="432" y="1605" type="line"/>
      <point x="181" y="1605" type="line"/>
      <point x="-124" y="1241" type="line"/>
      <point x="149" y="1241" type="line"/>
      <point x="305" y="1430" type="line"/>
      <point x="461" y="1241" type="line"/>
    </contour>
    <contour>
      <point x="486" y="0" type="line"/>
      <point x="486" y="1096" type="line"/>
      <point x="128" y="1096" type="line"/>
      <point x="128" y="0" type="line"/>
    </contour>
  </outline>
</glyph>
<glyph name="eth" format="1">
  <advance width="1028"/>
  <unicode hex="00F0"/>
  <outline>
    <contour>
      <point x="675" y="-25" type="curve" smooth="yes"/>
      <point x="1031" y="-25"/>
      <point x="1260" y="199"/>
      <point x="1260" y="593" type="curve" smooth="yes"/>
      <point x="1260" y="1016.69"/>
      <point x="1106.33" y="1302.63"/>
      <point x="807.016" y="1452.45" type="curve"/>
      <point x="879.954" y="1565.98" type="line"/>
      <point x="760.666" y="1633.47" type="line"/>
      <point x="678.006" y="1505.63" type="line"/>
      <point x="567.623" y="1542.53"/>
      <point x="441.861" y="1564.96"/>
      <point x="301" y="1573" type="curve"/>
      <point x="238" y="1298" type="line"/>
      <point x="341.397" y="1288.22"/>
      <point x="432.469" y="1272.83"/>
      <point x="510.238" y="1246.15" type="curve"/>
      <point x="445.375" y="1145.83" type="line"/>
      <point x="565.518" y="1076.53" type="line"/>
      <point x="635.214" y="1185.02" type="line"/>
      <point x="713.034" y="1131.65"/>
      <point x="768.625" y="1054.8"/>
      <point x="800" y="943" type="curve"/>
      <point x="726" y="986"/>
      <point x="632" y="1020"/>
      <point x="531" y="1020" type="curve" smooth="yes"/>
      <point x="261" y="1020"/>
      <point x="93" y="852"/>
      <point x="93" y="527" type="curve" smooth="yes"/>
      <point x="93" y="183"/>
      <point x="324" y="-25"/>
    </contour>
    <contour>
      <point x="686" y="248" type="curve" smooth="yes"/>
      <point x="516" y="248"/>
      <point x="488" y="350"/>
      <point x="488" y="513" type="curve" smooth="yes"/>
      <point x="488" y="684"/>
      <point x="569" y="741"/>
      <point x="678" y="741" type="curve" smooth="yes"/>
      <point x="872" y="741"/>
      <point x="878" y="643"/>
      <point x="878" y="508" type="curve" smooth="yes"/>
      <point x="878" y="363"/>
      <point x="817" y="248"/>
    </contour>
  </outline>
</glyph>
<glyph name="otilde" format="1">
  <advance width="1235"/>
  <unicode hex="00F5"/>
  <outline>
    <contour>
      <point x="1056" y="1552" type="curve"/>
      <point x="845" y="1552" type="line"/>
      <point x="838" y="1484"/>
      <point x="811" y="1456"/>
      <point x="753" y="1456" type="curve" smooth="yes"/>
      <point x="729" y="1456"/>
      <point x="681" y="1479"/>
      <point x="646" y="1491" type="curve" smooth="yes"/>
      <point x="590" y="1511"/>
      <point x="534" y="1543"/>
      <point x="467" y="1543" type="curve" smooth="yes"/>
      <point x="297" y="1543"/>
      <point x="190" y="1419"/>
      <point x="178" y="1247" type="curve"/>
      <point x="389" y="1247" type="line"/>
      <point x="392" y="1299"/>
      <point x="403" y="1327"/>
      <point x="451" y="1332" type="curve"/>
      <point x="478" y="1342"/>
      <point x="507" y="1338"/>
      <point x="533" y="1327" type="curve"/>
      <point x="560" y="1320"/>
      <point x="588" y="1306"/>
      <point x="618" y="1293" type="curve" smooth="yes"/>
      <point x="663" y="1275"/>
      <point x="714" y="1256"/>
      <point x="769" y="1256" type="curve" smooth="yes"/>
      <point x="946" y="1256"/>
      <point x="1039" y="1359"/>
    </contour>
    <contour>
      <point x="818" y="545" type="curve" smooth="yes"/>
      <point x="818" y="313"/>
      <point x="750" y="232"/>
      <point x="621" y="232" type="curve" smooth="yes"/>
      <point x="502" y="232"/>
      <point x="416" y="280"/>
      <point x="416" y="546" type="curve" smooth="yes"/>
      <point x="416" y="815"/>
      <point x="509" y="865"/>
      <point x="618" y="865" type="curve" smooth="yes"/>
      <point x="732" y="865"/>
      <point x="818" y="807"/>
    </contour>
    <contour>
      <point x="1185" y="547" type="curve" smooth="yes"/>
      <point x="1185" y="748"/>
      <point x="1136" y="874"/>
      <point x="1037" y="971" type="curve" smooth="yes"/>
      <point x="946" y="1059"/>
      <point x="809" y="1120"/>
      <point x="618" y="1120" type="curve" smooth="yes"/>
      <point x="427" y="1120"/>
      <point x="290" y="1060"/>
      <point x="199" y="973" type="curve"/>
      <point x="100" y="876"/>
      <point x="51" y="750"/>
      <point x="51" y="548" type="curve" smooth="yes"/>
      <point x="51" y="348"/>
      <point x="99" y="220"/>
      <point x="198" y="123" type="curve" smooth="yes"/>
      <point x="289" y="34"/>
      <point x="427" y="-28"/>
      <point x="618" y="-28" type="curve" smooth="yes"/>
      <point x="811" y="-28"/>
      <point x="948" y="34"/>
      <point x="1038" y="123" type="curve" smooth="yes"/>
      <point x="1137" y="222"/>
      <point x="1185" y="348"/>
    </contour>
  </outline>
</glyph>
<glyph name="divide" format="1">
  <advance width="1595"/>
  <unicode hex="00F7"/>
  <outline>
    <contour>
      <point x="797" y="0" type="curve" smooth="yes"/>
      <point x="916" y="0"/>
      <point x="1012" y="96"/>
      <point x="1012" y="215" type="curve" smooth="yes"/>
      <point x="1012" y="334"/>
      <point x="916" y="430"/>
      <point x="797" y="430" type="curve" smooth="yes"/>
      <point x="678" y="430"/>
      <point x="582" y="334"/>
      <point x="582" y="215" type="curve" smooth="yes"/>
      <point x="582" y="96"/>
      <point x="678" y="0"/>
    </contour>
    <contour>
      <point x="162" y="528" type="line"/>
      <point x="1434" y="528" type="line"/>
      <point x="1434" y="779" type="line"/>
      <point x="162" y="779" type="line"/>
    </contour>
    <contour>
      <point x="797" y="881" type="curve" smooth="yes"/>
      <point x="916" y="881"/>
      <point x="1012" y="977"/>
      <point x="1012" y="1096" type="curve" smooth="yes"/>
      <point x="1012" y="1215"/>
      <point x="916" y="1311"/>
      <point x="797" y="1311" type="curve" smooth="yes"/>
      <point x="678" y="1311"/>
      <point x="582" y="1215"/>
      <point x="582" y="1096" type="curve" smooth="yes"/>
      <point x="582" y="977"/>
      <point x="678" y="881"/>
    </contour>
  </outline>
</glyph>
<glyph name="oslash" format="1">
  <advance width="1239"/>
  <unicode hex="00F8"/>
  <outline>
    <contour>
      <point x="619" y="-28" type="curve" smooth="yes"/>
      <point x="994" y="-28"/>
      <point x="1190" y="179"/>
      <point x="1190" y="550" type="curve" smooth="yes"/>
      <point x="1190" y="759.429"/>
      <point x="1127.9" y="915.265"/>
      <point x="1007.23" y="1011.67" type="curve"/>
      <point x="1148" y="1228" type="line"/>
      <point x="977" y="1228" type="line"/>
      <point x="882.295" y="1082.46" type="line"/>
      <point x="807.632" y="1111.27"/>
      <point x="719.736" y="1126"/>
      <point x="619" y="1126" type="curve" smooth="yes"/>
      <point x="244" y="1126"/>
      <point x="50" y="925"/>
      <point x="50" y="551" type="curve" smooth="yes"/>
      <point x="50" y="340.317"/>
      <point x="112.212" y="182.913"/>
      <point x="233.753" y="85.8168" type="curve"/>
      <point x="79" y="-152" type="line"/>
      <point x="250" y="-152" type="line"/>
      <point x="358.702" y="15.0481" type="line"/>
      <point x="432.585" y="-13.4055"/>
      <point x="519.452" y="-28"/>
    </contour>
    <contour>
      <point x="431.553" y="389.785" type="line"/>
      <point x="422.107" y="431.452"/>
      <point x="417" y="483.695"/>
      <point x="417" y="549" type="curve" smooth="yes"/>
      <point x="417" y="820"/>
      <point x="510" y="870"/>
      <point x="619" y="870" type="curve" smooth="yes"/>
      <point x="658.766" y="870"/>
      <point x="695.368" y="862.943"/>
      <point x="726.176" y="842.546" type="curve"/>
    </contour>
    <contour>
      <point x="622" y="233" type="curve" smooth="yes"/>
      <point x="582.054" y="233"/>
      <point x="545.826" y="238.409"/>
      <point x="515.322" y="255.732" type="curve"/>
      <point x="806.832" y="703.711" type="line"/>
      <point x="815.997" y="662.181"/>
      <point x="821" y="610.946"/>
      <point x="821" y="548" type="curve" smooth="yes"/>
      <point x="821" y="314"/>
      <point x="752" y="233"/>
    </contour>
    <contour>
      <point x="620" y="1098" type="move" name="top"/>
    </contour>
  </outline>
</glyph>
<glyph name="thorn" format="1">
  <advance width="1067"/>
  <unicode hex="00FE"/>
  <outline>
    <contour>
      <point x="136" y="-422" type="line"/>
      <point x="345" y="-422" type="line"/>
      <point x="345" y="111" type="line"/>
      <point x="423" y="37"/>
      <point x="509" y="-12"/>
      <point x="615" y="-12" type="curve" smooth="yes"/>
      <point x="743" y="-12"/>
      <point x="836" y="45"/>
      <point x="896" y="123" type="curve" smooth="yes"/>
      <point x="953" y="197"/>
      <point x="970" y="265"/>
      <point x="970" y="520" type="curve" smooth="yes"/>
      <point x="970" y="777"/>
      <point x="953" y="846"/>
      <point x="896" y="919" type="curve" smooth="yes"/>
      <point x="836" y="997"/>
      <point x="743" y="1055"/>
      <point x="615" y="1055" type="curve" smooth="yes"/>
      <point x="509" y="1055"/>
      <point x="411" y="1005"/>
      <point x="345" y="934" type="curve"/>
      <point x="345" y="1464" type="line"/>
      <point x="136" y="1464" type="line"/>
    </contour>
    <contour>
      <point x="552" y="198" type="curve" smooth="yes"/>
      <point x="356" y="198"/>
      <point x="345" y="370"/>
      <point x="345" y="520" type="curve" smooth="yes"/>
      <point x="345" y="673"/>
      <point x="356" y="845"/>
      <point x="552" y="845" type="curve" smooth="yes"/>
      <point x="749" y="845"/>
      <point x="760" y="683"/>
      <point x="760" y="520" type="curve" smooth="yes"/>
      <point x="760" y="359"/>
      <point x="749" y="198"/>
    </contour>
  </outline>
</glyph>
<glyph name="dotlessi" format="1">
  <advance width="616"/>
  <unicode hex="0131"/>
  <outline>
    <contour>
      <point x="129" y="0" type="line"/>
      <point x="488" y="0" type="line"/>
      <point x="488" y="1102" type="line"/>
      <point x="129" y="1102" type="line"/>
    </contour>
    <contour>
      <point x="308" y="1098" type="move"/>
    </contour>
    <contour>
      <point x="554" y="10" type="move"/>
    </contour>
    <contour>
      <point x="308" y="1098" type="move" name="top"/>
    </contour>
    <contour>
      <point x="554" y="10" type="move" name="ogonek"/>
    </contour>
  </outline>
</glyph>
<glyph name="kgreenlandic" format="1">
  <advance width="1188"/>
  <unicode hex="0138"/>
  <outline>
    <contour>
      <point x="119" y="0" type="line"/>
      <point x="459" y="0" type="line"/>
      <point x="459" y="346" type="line"/>
      <point x="547" y="444" type="line"/>
      <point x="821" y="0" type="line"/>
      <point x="1175" y="0" type="line"/>
      <point x="1175" y="78" type="line"/>
      <point x="825" y="598" type="line"/>
      <point x="1154" y="992" type="line"/>
      <point x="1154" y="1036" type="line"/>
      <point x="792" y="1036" type="line"/>
      <point x="459" y="619" type="line"/>
      <point x="459" y="619" type="line"/>
      <point x="459" y="1044" type="line"/>
      <point x="119" y="1044" type="line"/>
    </contour>
  </outline>
</glyph>
<glyph name="Lslash" format="1">
  <advance width="1298"/>
  <unicode hex="0141"/>
  <outline>
    <contour>
      <point x="157" y="0" type="line"/>
      <point x="1254" y="0" type="line"/>
      <point x="1254" y="304" type="line"/>
      <point x="566" y="304" type="line"/>
      <point x="566" y="796" type="line"/>
      <point x="826" y="979" type="line"/>
      <point x="826" y="1213" type="line"/>
      <point x="566" y="1030" type="line"/>
      <point x="566" y="1574" type="line"/>
      <point x="157" y="1574" type="line"/>
      <point x="157" y="743" type="line"/>
      <point x="14" y="643" type="line"/>
      <point x="14" y="409" type="line"/>
      <point x="157" y="509" type="line"/>
    </contour>
  </outline>
</glyph>
<glyph name="Lslash" format="1">
  <advance width="1140"/>
  <unicode hex="0141"/>
  <outline>
    <contour>
      <point x="154" y="0" type="line" smooth="no"/>
      <point x="154" y="500" type="line" smooth="no"/>
      <point x="4" y="387" type="line" smooth="no"/>
      <point x="4" y="571" type="line" smooth="no"/>
      <point x="154" y="684" type="line" smooth="no"/>
      <point x="154" y="1458" type="line" smooth="no"/>
      <point x="375" y="1458" type="line" smooth="no"/>
      <point x="375" y="840" type="line" smooth="no"/>
      <point x="693" y="1069" type="line" smooth="no"/>
      <point x="693" y="885" type="line" smooth="no"/>
      <point x="375" y="655" type="line" smooth="no"/>
      <point x="375" y="209" type="line" smooth="no"/>
      <point x="1087" y="209" type="line" smooth="no"/>
      <point x="1087" y="0" type="line" smooth="no"/>
    </contour>
  </outline>
</glyph>
<glyph name="lslash" format="1">
  <advance width="669"/>
  <unicode hex="0142"/>
  <outline>
    <contour>
      <point x="545" y="0" type="curve" smooth="yes"/>
      <point x="633" y="0" type="line"/>
      <point x="633" y="242" type="line"/>
      <point x="488" y="242"/>
      <point x="486" y="319"/>
      <point x="486" y="379" type="curve" smooth="yes"/>
      <point x="486" y="825" type="line"/>
      <point x="631" y="913" type="line"/>
      <point x="631" y="1099" type="line"/>
      <point x="486" y="1011" type="line"/>
      <point x="486" y="1526" type="line"/>
      <point x="127" y="1526" type="line"/>
      <point x="127" y="792" type="line"/>
      <point x="0" y="715" type="line"/>
      <point x="0" y="528" type="line"/>
      <point x="127" y="605" type="line"/>
      <point x="127" y="379" type="line" smooth="yes"/>
      <point x="127" y="186"/>
      <point x="126" y="0"/>
    </contour>
  </outline>
</glyph>
<glyph name="OE" format="1">
  <advance width="2123"/>
  <unicode hex="0152"/>
  <outline>
    <contour>
      <point x="706" y="-3" type="curve"/>
      <point x="811" y="-9"/>
      <point x="958" y="13"/>
      <point x="1075" y="42" type="curve"/>
      <point x="1069" y="28"/>
      <point x="1062" y="14"/>
      <point x="1056" y="0" type="curve"/>
      <point x="2039" y="0" type="line"/>
      <point x="2039" y="287" type="line"/>
      <point x="1386" y="287" type="line"/>
      <point x="1386" y="638" type="line"/>
      <point x="1952" y="638" type="line"/>
      <point x="1952" y="921" type="line"/>
      <point x="1386" y="921" type="line"/>
      <point x="1386" y="1198" type="line"/>
      <point x="2038" y="1198" type="line"/>
      <point x="2038" y="1485" type="line"/>
      <point x="952" y="1485" type="line"/>
      <point x="952" y="1444" type="line"/>
      <point x="619" y="1537"/>
      <point x="350" y="1428"/>
      <point x="206" y="1229" type="curve"/>
      <point x="119" y="1113"/>
      <point x="67" y="985"/>
      <point x="67" y="744" type="curve" smooth="yes"/>
      <point x="67" y="525"/>
      <point x="94" y="428"/>
      <point x="149" y="328" type="curve" smooth="yes"/>
      <point x="237" y="169"/>
      <point x="393" y="19"/>
    </contour>
    <contour>
      <point x="788" y="282" type="curve"/>
      <point x="675" y="285"/>
      <point x="591" y="338"/>
      <point x="540" y="408" type="curve" smooth="yes"/>
      <point x="484" y="485"/>
      <point x="461" y="565"/>
      <point x="461" y="742" type="curve" smooth="yes"/>
      <point x="461" y="925"/>
      <point x="482" y="1002"/>
      <point x="534" y="1073" type="curve"/>
      <point x="583" y="1138"/>
      <point x="663" y="1187"/>
      <point x="772" y="1198" type="curve"/>
      <point x="836" y="1202"/>
      <point x="895" y="1186"/>
      <point x="951" y="1174" type="curve"/>
      <point x="960" y="1170"/>
      <point x="967" y="1167"/>
      <point x="975" y="1165" type="curve"/>
      <point x="995" y="1034"/>
      <point x="1002" y="917"/>
      <point x="1002" y="705" type="curve" smooth="yes"/>
      <point x="1002" y="518"/>
      <point x="995" y="424"/>
      <point x="975" y="320" type="curve"/>
      <point x="966" y="319"/>
      <point x="959" y="319"/>
      <point x="953" y="319" type="curve"/>
      <point x="904" y="298"/>
      <point x="850" y="282"/>
    </contour>
    <contour>
      <point x="1062" y="1574" type="move" name="top"/>
    </contour>
  </outline>
</glyph>
<glyph name="OE" format="1">
  <advance width="1994"/>
  <unicode hex="0152"/>
  <outline>
    <contour>
      <point x="685" y="0" type="curve" smooth="yes"/>
      <point x="1917" y="0" type="line"/>
      <point x="1917" y="286" type="line"/>
      <point x="1325" y="286" type="line"/>
      <point x="1325" y="636" type="line"/>
      <point x="1836" y="636" type="line"/>
      <point x="1836" y="918" type="line"/>
      <point x="1325" y="918" type="line"/>
      <point x="1325" y="1194" type="line"/>
      <point x="1917" y="1194" type="line"/>
      <point x="1917" y="1481" type="line"/>
      <point x="702" y="1481" type="line" smooth="yes"/>
      <point x="307" y="1481"/>
      <point x="62" y="1233"/>
      <point x="62" y="737" type="curve" smooth="yes"/>
      <point x="62" y="202"/>
      <point x="349" y="0"/>
    </contour>
    <contour>
      <point x="740" y="286" type="line"/>
      <point x="518" y="291"/>
      <point x="433" y="417"/>
      <point x="433" y="735" type="curve" smooth="yes"/>
      <point x="433" y="1076"/>
      <point x="524" y="1194"/>
      <point x="746" y="1194" type="curve" smooth="yes"/>
      <point x="943" y="1194" type="line"/>
      <point x="943" y="286" type="line"/>
    </contour>
  </outline>
</glyph>
<glyph name="oe" format="1">
  <advance width="1988"/>
  <unicode hex="0153"/>
  <outline>
    <contour>
      <point x="625" y="-28" type="curve" smooth="yes"/>
      <point x="798" y="-28"/>
      <point x="933" y="34"/>
      <point x="1022" y="121" type="curve"/>
      <point x="1098" y="36"/>
      <point x="1285" y="-25"/>
      <point x="1471" y="-25" type="curve" smooth="yes"/>
      <point x="1705" y="-25"/>
      <point x="1839" y="37"/>
      <point x="1925" y="96" type="curve"/>
      <point x="1869" y="352" type="line"/>
      <point x="1837" y="330"/>
      <point x="1798" y="316"/>
      <point x="1760" y="316" type="curve"/>
      <point x="1716" y="286"/>
      <point x="1618" y="233"/>
      <point x="1506" y="233" type="curve" smooth="yes"/>
      <point x="1331" y="233"/>
      <point x="1206" y="291"/>
      <point x="1193" y="468" type="curve"/>
      <point x="1943" y="468" type="line"/>
      <point x="1943" y="617" type="line" smooth="yes"/>
      <point x="1943" y="944"/>
      <point x="1748" y="1131"/>
      <point x="1416" y="1131" type="curve" smooth="yes"/>
      <point x="1261" y="1131"/>
      <point x="1098" y="1070"/>
      <point x="1020" y="991" type="curve"/>
      <point x="931" y="1062"/>
      <point x="786" y="1131"/>
      <point x="624" y="1131" type="curve" smooth="yes"/>
      <point x="458" y="1131"/>
      <point x="334" y="1081"/>
      <point x="246" y="1016" type="curve" smooth="yes"/>
      <point x="116" y="919"/>
      <point x="51" y="777"/>
      <point x="51" y="551" type="curve" smooth="yes"/>
      <point x="51" y="323"/>
      <point x="118" y="180"/>
      <point x="248" y="85" type="curve"/>
      <point x="335" y="20"/>
      <point x="460" y="-28"/>
    </contour>
    <contour>
      <point x="625" y="228" type="curve" smooth="yes"/>
      <point x="478" y="228"/>
      <point x="418" y="317"/>
      <point x="418" y="549" type="curve" smooth="yes"/>
      <point x="418" y="833"/>
      <point x="515" y="874"/>
      <point x="622" y="874" type="curve" smooth="yes"/>
      <point x="765" y="874"/>
      <point x="827" y="784"/>
      <point x="827" y="548" type="curve" smooth="yes"/>
      <point x="827" y="331"/>
      <point x="770" y="228"/>
    </contour>
    <contour>
      <point x="1191" y="684" type="line"/>
      <point x="1193" y="815"/>
      <point x="1267" y="897"/>
      <point x="1394" y="897" type="curve" smooth="yes"/>
      <point x="1513" y="897"/>
      <point x="1579" y="823"/>
      <point x="1585" y="684" type="curve"/>
    </contour>
    <contour>
      <point x="994" y="1098" type="move" name="top"/>
    </contour>
  </outline>
</glyph>
